<?xml version="1.0" encoding="utf-8"?>
<!-- Generator: Adobe Illustrator 19.1.0, SVG Export Plug-In . SVG Version: 6.00 Build 0)  -->
<svg version="1.1" id="Layer_1" xmlns="http://www.w3.org/2000/svg" xmlns:xlink="http://www.w3.org/1999/xlink" x="0px" y="0px"
	 viewBox="0 0 20 20" style="enable-background:new 0 0 20 20;" xml:space="preserve">
<style type="text/css">
	.st0{fill-rule:evenodd;clip-rule:evenodd;fill:#3993D1;}
</style>
<g>
	<path class="st0" d="M18.8,1.5H4.2C3.5,1.5,2.9,2,2.9,2.7v1.2h12.9c1.2,0,2.2,1,2.2,2.2v6.1h0.7c0.7,0,1.2-0.5,1.2-1.2V2.7
		C20,2,19.5,1.5,18.8,1.5z"/>
	<path class="st0" d="M1.2,4.9h14.6c0.7,0,1.2,0.5,1.2,1.2v8.3c0,0.7-0.5,1.2-1.2,1.2H1.2c-0.7,0-1.2-0.5-1.2-1.2V6.1
		C0,5.4,0.5,4.9,1.2,4.9z"/>
	<path class="st0" d="M6.8,19l3.4-5.4l5.4,0.5L6.8,19z"/>
</g>
</svg>
