<svg id="Layer_1" data-name="Layer 1" xmlns="http://www.w3.org/2000/svg" xmlns:xlink="http://www.w3.org/1999/xlink" viewBox="0 0 752.16 658.73"><defs><style>.cls-1{fill:url(#linear-gradient);}.cls-2{fill:url(#linear-gradient-2);}</style><linearGradient id="linear-gradient" y1="410.77" x2="495.92" y2="410.77" gradientUnits="userSpaceOnUse"><stop offset="0" stop-color="#3279bc"/><stop offset="1" stop-color="#3893d0"/></linearGradient><linearGradient id="linear-gradient-2" x1="234.26" y1="232.94" x2="752.16" y2="232.94" xlink:href="#linear-gradient"/></defs><title>Emondo-Icon-Colour</title><path class="cls-1" d="M457.88,410.77c0,115.75-94.17,209.92-209.92,209.92S38,526.52,38,410.77,132.21,200.84,248,200.84A208.75,208.75,0,0,1,328.6,217q13.6-15.34,27.91-29.09A246.43,246.43,0,0,0,248,162.81C111.23,162.81,0,274,0,410.77s111.23,248,248,248,248-111.23,248-248A246.81,246.81,0,0,0,436.7,250.22a377.63,377.63,0,0,0-38.77,13.86A209.19,209.19,0,0,1,457.88,410.77Z"/><path class="cls-2" d="M564.56,123.34s91.91,45.55,151.9-37c-9.74,8.83-62.9,19.68-86.23,7.4,0,0,62.48-5.11,97.49-44.28C750,24.55,752.16,0,752.16,0S496.61,6.26,328,197C271.33,261.17,238.9,324,234.57,388.8c-3.21,48.11,19.1,77.08,19.1,77.08S220.5,265.27,489.9,217.06c-22.83-4.69-48.58-21-52.31-31.2,100.34,42.23,197.19-3.27,224.14-32C645.89,158.26,578.39,146.84,564.56,123.34Z"/></svg>