<svg id="Page_17" data-name="Page 17" xmlns="http://www.w3.org/2000/svg" xmlns:xlink="http://www.w3.org/1999/xlink" viewBox="0 0 446.58 152.88"><defs><style>.cls-1{fill:#3e93d1;}.cls-2{clip-path:url(#clip-path);}.cls-3{clip-path:url(#clip-path-2);}.cls-4{clip-path:url(#clip-path-3);}</style><clipPath id="clip-path" transform="translate(-131.15 -349.47)"><path class="cls-1" d="M478.58,444.25q0.93-8.77,5.24-13.11a14,14,0,0,1,10.26-4.34,21.44,21.44,0,0,1,3.58.29l-1.93,18.13a13.12,13.12,0,0,1-3.17,8.24,9.32,9.32,0,0,1-7.2,3.07q-8.09,0-6.78-12.28m48.35-3q1.54-14.42,13.33-14.42,9.68,0,10.37,9.72a6.47,6.47,0,0,0-4.7,2.44c-2,2.54-2.25,6.89,1.78,10l0.51,0.37q-3.32,6.07-11,6.09-11.79,0-10.28-14.23m-25.78-46.88-2.4,22.51q-2.51-.2-4-0.2a26,26,0,0,0-19.36,7.89,32,32,0,0,0-9,19.69,27.07,27.07,0,0,0,.2,7.67c-0.47.45-1,.9-1.51,1.35a8.83,8.83,0,0,1-5.52,2.39,3.37,3.37,0,0,1-2.59-.83,3.72,3.72,0,0,1-.52-2.88l2.13-20q0.77-7.21-2.52-11.16t-10.88-3.95q-8.87,0-13.5,6.92l0.63-5.95H419.93l-5,46.78h12.38l2.66-25a17.2,17.2,0,0,1,3.76-8.72q3.28-4.24,7.76-4.24a4.5,4.5,0,0,1,3.59,1.56q1.35,1.56,1,4.78l-2.14,20.08q-0.63,5.95,2,9.26t8.57,3.31a17.66,17.66,0,0,0,5.35-.83,19.61,19.61,0,0,0,4.29-1.85,21.38,21.38,0,0,0,3.12-2.34,23.25,23.25,0,0,0,1.9-1.85l0.08-.1c0.24,0.36.48,0.73,0.75,1.08q4.63,5.9,13.89,5.89,7.7,0,12.12-4.87,2.5,4.87,9.33,4.87a17.67,17.67,0,0,0,5.35-.83A19.55,19.55,0,0,0,515,463a21.22,21.22,0,0,0,3.13-2.34c0.63-.57,1.1-1,1.45-1.37q5.83,6.38,16.56,6.39t18-6.48a24,24,0,0,0,5.73-7.76,46.63,46.63,0,0,0,17.85-6.77l-2-3.81c-6,2.52-10.48,3.61-13.72,3.76,0.22-1.1.41-2.23,0.54-3.41q1.21-11.4-4.76-18t-16.5-6.63a25.81,25.81,0,0,0-18,6.63q-7.33,6.63-8.55,18a27.07,27.07,0,0,0,1.09,12h0a8.83,8.83,0,0,1-5.52,2.39q-3.51,0-3.11-3.7l6.13-57.6H501.14Z"/></clipPath><clipPath id="clip-path-2" transform="translate(-131.15 -349.47)"><path class="cls-1" d="M376.31,441.23q1.54-14.42,13.33-14.42t10.26,14.42q-1.51,14.23-13.31,14.23t-10.28-14.23m-118-1.28a16.79,16.79,0,0,1,4.11-10.15q3.33-4.16,7.63-4.16a4.33,4.33,0,0,1,3.33,1.27,3.94,3.94,0,0,1,.91,3.81A10.05,10.05,0,0,1,270,437c-3,2-7.25,3.08-11.82,3.8Zm-4-16.31a29.42,29.42,0,0,0-8.12,17.94q-1.15,10.85,4.2,17.5t16.11,6.65a30.43,30.43,0,0,0,7.73-1,39.06,39.06,0,0,0,6.55-2.25,38.1,38.1,0,0,0,5-2.83c1.48-1,2.47-1.69,3-2.12L288,464.62h12.38l2.72-25.54a20.38,20.38,0,0,1,1.28-5.17,13.36,13.36,0,0,1,3.45-4.92,8.12,8.12,0,0,1,5.75-2.29A3.78,3.78,0,0,1,316.8,428q1,1.32.67,4.73l-3.39,31.87h12.38l2.69-25.24a20.31,20.31,0,0,1,1.34-5.26A14,14,0,0,1,334,429a8.21,8.21,0,0,1,5.8-2.34q4.39,0,3.74,6l-2.17,20.37q-0.63,5.95,2,9.26t8.57,3.31a17.67,17.67,0,0,0,5.35-.83,19.53,19.53,0,0,0,4.29-1.85,21.06,21.06,0,0,0,3.12-2.34,23,23,0,0,0,1.9-1.85q0.45-.54.67-0.83l0.07-.65a17.45,17.45,0,0,0,1.46,1.87q5.84,6.48,16.66,6.48t18-6.48q7.22-6.48,8.45-18t-4.76-18q-6-6.63-16.49-6.63a25.81,25.81,0,0,0-18,6.63q-7.33,6.63-8.55,18a29.11,29.11,0,0,0,.49,10,27.8,27.8,0,0,1-2.17,2,8.84,8.84,0,0,1-5.52,2.39,3.36,3.36,0,0,1-2.59-.83,3.72,3.72,0,0,1-.52-2.88l2.17-20.37q1.57-14.71-13-14.72-8.09,0-13.56,7.41-1.94-7.41-11.78-7.41-8.09,0-13.07,7.41l0.68-6.43H293l-2.76,25.92a27.18,27.18,0,0,1-2.83,2.75,58.82,58.82,0,0,1-4.69,3.62,25.66,25.66,0,0,1-6.19,3.08,21.62,21.62,0,0,1-7.22,1.27q-7.14,0-9.66-3.81a47.55,47.55,0,0,0,8.75-2.3,37.94,37.94,0,0,0,7.7-3.91,20.43,20.43,0,0,0,6-6,18.29,18.29,0,0,0,2.82-8.11q0.66-6.16-2.85-10t-10.73-3.86a22.84,22.84,0,0,0-17,7.19"/></clipPath><clipPath id="clip-path-3" transform="translate(-131.15 -349.47)"><path class="cls-1" d="M200.77,386.38a50.57,50.57,0,1,0,19.19,14,76.55,76.55,0,0,0-7.89,2.82,42.65,42.65,0,1,1-16.81-10.59c-9.92,12-15.6,23.8-16.41,36a28.09,28.09,0,0,0,0,4,24.1,24.1,0,0,0,3.6,11.33c0.16,0.24.26,0.38,0.26,0.38s-0.13-.79-0.21-2.16c-0.39-7,.56-29.16,26.51-41.7a70.57,70.57,0,0,1,7.92-3.24q3.31-1.13,7.06-2.06c1.46-.36,3-0.7,4.52-1l2.24-.43c-4.64-1-9.88-4.26-10.64-6.35,15.94,6.71,31.45,2.53,40.09-2.4a24.09,24.09,0,0,0,5.49-4.1,11.8,11.8,0,0,1-3.53.12c-5.32-.4-14.05-2.63-16.23-6.33,0,0,13,6.42,24.37-1.15a25.59,25.59,0,0,0,6.52-6.36,11.61,11.61,0,0,1-4.32,1.72c-4.14,1-10,1.46-13.22-.22,0,0,12.71-1,19.83-9a21.49,21.49,0,0,0,3.74-5.82,15.5,15.5,0,0,0,1.23-4.25s-49.11,1.21-83.34,36.91"/></clipPath></defs><title>Vector Smart Object</title><path class="cls-1" d="M478.58,444.25q0.93-8.77,5.24-13.11a14,14,0,0,1,10.26-4.34,21.44,21.44,0,0,1,3.58.29l-1.93,18.13a13.12,13.12,0,0,1-3.17,8.24,9.32,9.32,0,0,1-7.2,3.07q-8.09,0-6.78-12.28m48.35-3q1.54-14.42,13.33-14.42,9.68,0,10.37,9.72a6.47,6.47,0,0,0-4.7,2.44c-2,2.54-2.25,6.89,1.78,10l0.51,0.37q-3.32,6.07-11,6.09-11.79,0-10.28-14.23m-25.78-46.88-2.4,22.51q-2.51-.2-4-0.2a26,26,0,0,0-19.36,7.89,32,32,0,0,0-9,19.69,27.07,27.07,0,0,0,.2,7.67c-0.47.45-1,.9-1.51,1.35a8.83,8.83,0,0,1-5.52,2.39,3.37,3.37,0,0,1-2.59-.83,3.72,3.72,0,0,1-.52-2.88l2.13-20q0.77-7.21-2.52-11.16t-10.88-3.95q-8.87,0-13.5,6.92l0.63-5.95H419.93l-5,46.78h12.38l2.66-25a17.2,17.2,0,0,1,3.76-8.72q3.28-4.24,7.76-4.24a4.5,4.5,0,0,1,3.59,1.56q1.35,1.56,1,4.78l-2.14,20.08q-0.63,5.95,2,9.26t8.57,3.31a17.66,17.66,0,0,0,5.35-.83,19.61,19.61,0,0,0,4.29-1.85,21.38,21.38,0,0,0,3.12-2.34,23.25,23.25,0,0,0,1.9-1.85l0.08-.1c0.24,0.36.48,0.73,0.75,1.08q4.63,5.9,13.89,5.89,7.7,0,12.12-4.87,2.5,4.87,9.33,4.87a17.67,17.67,0,0,0,5.35-.83A19.55,19.55,0,0,0,515,463a21.22,21.22,0,0,0,3.13-2.34c0.63-.57,1.1-1,1.45-1.37q5.83,6.38,16.56,6.39t18-6.48a24,24,0,0,0,5.73-7.76,46.63,46.63,0,0,0,17.85-6.77l-2-3.81c-6,2.52-10.48,3.61-13.72,3.76,0.22-1.1.41-2.23,0.54-3.41q1.21-11.4-4.76-18t-16.5-6.63a25.81,25.81,0,0,0-18,6.63q-7.33,6.63-8.55,18a27.07,27.07,0,0,0,1.09,12h0a8.83,8.83,0,0,1-5.52,2.39q-3.51,0-3.11-3.7l6.13-57.6H501.14Z" transform="translate(-131.15 -349.47)"/><g class="cls-2"><rect class="cls-1" x="283.8" y="44.88" width="162.79" height="71.34"/></g><path class="cls-1" d="M376.31,441.23q1.54-14.42,13.33-14.42t10.26,14.42q-1.51,14.23-13.31,14.23t-10.28-14.23m-118-1.28a16.79,16.79,0,0,1,4.11-10.15q3.33-4.16,7.63-4.16a4.33,4.33,0,0,1,3.33,1.27,3.94,3.94,0,0,1,.91,3.81A10.05,10.05,0,0,1,270,437c-3,2-7.25,3.08-11.82,3.8Zm-4-16.31a29.42,29.42,0,0,0-8.12,17.94q-1.15,10.85,4.2,17.5t16.11,6.65a30.43,30.43,0,0,0,7.73-1,39.06,39.06,0,0,0,6.55-2.25,38.1,38.1,0,0,0,5-2.83c1.48-1,2.47-1.69,3-2.12L288,464.62h12.38l2.72-25.54a20.38,20.38,0,0,1,1.28-5.17,13.36,13.36,0,0,1,3.45-4.92,8.12,8.12,0,0,1,5.75-2.29A3.78,3.78,0,0,1,316.8,428q1,1.32.67,4.73l-3.39,31.87h12.38l2.69-25.24a20.31,20.31,0,0,1,1.34-5.26A14,14,0,0,1,334,429a8.21,8.21,0,0,1,5.8-2.34q4.39,0,3.74,6l-2.17,20.37q-0.63,5.95,2,9.26t8.57,3.31a17.67,17.67,0,0,0,5.35-.83,19.53,19.53,0,0,0,4.29-1.85,21.06,21.06,0,0,0,3.12-2.34,23,23,0,0,0,1.9-1.85q0.45-.54.67-0.83l0.07-.65a17.45,17.45,0,0,0,1.46,1.87q5.84,6.48,16.66,6.48t18-6.48q7.22-6.48,8.45-18t-4.76-18q-6-6.63-16.49-6.63a25.81,25.81,0,0,0-18,6.63q-7.33,6.63-8.55,18a29.11,29.11,0,0,0,.49,10,27.8,27.8,0,0,1-2.17,2,8.84,8.84,0,0,1-5.52,2.39,3.36,3.36,0,0,1-2.59-.83,3.72,3.72,0,0,1-.52-2.88l2.17-20.37q1.57-14.71-13-14.72-8.09,0-13.56,7.41-1.94-7.41-11.78-7.41-8.09,0-13.07,7.41l0.68-6.43H293l-2.76,25.92a27.18,27.18,0,0,1-2.83,2.75,58.82,58.82,0,0,1-4.69,3.62,25.66,25.66,0,0,1-6.19,3.08,21.62,21.62,0,0,1-7.22,1.27q-7.14,0-9.66-3.81a47.55,47.55,0,0,0,8.75-2.3,37.94,37.94,0,0,0,7.7-3.91,20.43,20.43,0,0,0,6-6,18.29,18.29,0,0,0,2.82-8.11q0.66-6.16-2.85-10t-10.73-3.86a22.84,22.84,0,0,0-17,7.19" transform="translate(-131.15 -349.47)"/><g class="cls-3"><rect class="cls-1" x="114.24" y="66.98" width="167.39" height="49.28"/></g><path class="cls-1" d="M200.77,386.38a50.57,50.57,0,1,0,19.19,14,76.55,76.55,0,0,0-7.89,2.82,42.65,42.65,0,1,1-16.81-10.59c-9.92,12-15.6,23.8-16.41,36a28.09,28.09,0,0,0,0,4,24.1,24.1,0,0,0,3.6,11.33c0.16,0.24.26,0.38,0.26,0.38s-0.13-.79-0.21-2.16c-0.39-7,.56-29.16,26.51-41.7a70.57,70.57,0,0,1,7.92-3.24q3.31-1.13,7.06-2.06c1.46-.36,3-0.7,4.52-1l2.24-.43c-4.64-1-9.88-4.26-10.64-6.35,15.94,6.71,31.45,2.53,40.09-2.4a24.09,24.09,0,0,0,5.49-4.1,11.8,11.8,0,0,1-3.53.12c-5.32-.4-14.05-2.63-16.23-6.33,0,0,13,6.42,24.37-1.15a25.59,25.59,0,0,0,6.52-6.36,11.61,11.61,0,0,1-4.32,1.72c-4.14,1-10,1.46-13.22-.22,0,0,12.71-1,19.83-9a21.49,21.49,0,0,0,3.74-5.82,15.5,15.5,0,0,0,1.23-4.25s-49.11,1.21-83.34,36.91" transform="translate(-131.15 -349.47)"/><g class="cls-4"><rect class="cls-1" width="152.96" height="133.96"/></g><path class="cls-1" d="M299,487.23a2.28,2.28,0,0,0,.11-0.84c0-1.48-.73-2.35-2.6-2.35-2.1,0-3.19,1-3.19,3.84a3.51,3.51,0,0,0,3.78,3.86,5.18,5.18,0,0,0,3.95-1.37L302.3,493s-1.65,1.6-5.54,1.62c-4.23,0-6.92-2.24-6.92-6.75s2.55-6.72,6.78-6.72,5.68,2.52,5.68,4.68a3.48,3.48,0,0,1-.22,1.23Z" transform="translate(-131.15 -349.47)"/><path class="cls-1" d="M314.93,484.62a4.38,4.38,0,0,0-1.51-.22,4,4,0,0,0-3.89,2.74v4.31l2.27,0.14v2.83h-7.62v-2.63l1.79-.28v-7.25l-1.79-.28v-2.63h4.42l0.39,3.28h0.11a4.52,4.52,0,0,1,4.42-3.47c0.67,0,1.26.11,1.4,0.11v3.36Z" transform="translate(-131.15 -349.47)"/><path class="cls-1" d="M319.33,488.65c0.28,2.1,1.76,3.08,3.84,3.08a5,5,0,0,0,3.84-1.37l1.26,2.63s-1.71,1.62-5.66,1.62-6.83-2.24-6.83-6.75,2.77-6.72,6.75-6.72a5.69,5.69,0,0,1,5.91,5.82,5,5,0,0,1-.22,1.68h-8.88Zm0-2.07h5.85a2.59,2.59,0,0,0-2.63-2.77A3.05,3.05,0,0,0,319.33,486.58Z" transform="translate(-131.15 -349.47)"/><path class="cls-1" d="M340.27,483h0.08l0.48-1.68h2.6v9.52a0.83,0.83,0,0,0,.84,1,1.79,1.79,0,0,0,.64-0.08v2.55a3.63,3.63,0,0,1-2,.34,2.23,2.23,0,0,1-2.52-2.13v-0.11H340.3c-0.06.06-.9,2.24-4.2,2.24s-5.85-2.24-5.85-6.75,2.77-6.72,6.08-6.72A4.51,4.51,0,0,1,340.27,483Zm-0.39,7.64v-5.29a3.18,3.18,0,0,0-2.66-1.34c-2.13,0-3.44,1.34-3.44,3.86s1.48,3.84,3.39,3.84A3.53,3.53,0,0,0,339.88,490.67Z" transform="translate(-131.15 -349.47)"/><path class="cls-1" d="M351.55,477.65v3.7h4.23v2.74h-4.23v5.1c0,1.46.62,2.32,2,2.32a5.45,5.45,0,0,0,2.38-.39v3a9,9,0,0,1-3.14.53c-3.28,0-4.84-1.76-4.84-5.21v-5.32h-1.82v-2.74H348l0.53-3.7h3Z" transform="translate(-131.15 -349.47)"/><path class="cls-1" d="M361,488.65c0.28,2.1,1.76,3.08,3.84,3.08a5,5,0,0,0,3.84-1.37L370,493s-1.71,1.62-5.66,1.62-6.83-2.24-6.83-6.75,2.77-6.72,6.75-6.72a5.69,5.69,0,0,1,5.91,5.82,5,5,0,0,1-.22,1.68H361Zm0-2.07h5.85a2.59,2.59,0,0,0-2.63-2.77A3.05,3.05,0,0,0,361,486.58Z" transform="translate(-131.15 -349.47)"/><path class="cls-1" d="M374.18,494.62a2,2,0,0,1,0-3.92A2,2,0,0,1,374.18,494.62Z" transform="translate(-131.15 -349.47)"/><path class="cls-1" d="M384.17,491a2.26,2.26,0,0,1,.17-0.87l3.16-.22a2.14,2.14,0,0,0-.06.45c0,1,.81,1.74,2.55,1.74s2.44-.64,2.44-1.48-1.43-1.15-3.05-1.43c-2.27-.42-5-1-5-4.09,0-2.07,1.79-3.95,5.52-3.95,4.31,0,5.71,1.76,5.71,3.72a2,2,0,0,1-.2,1l-3.13.2a1.92,1.92,0,0,0,.08-0.62c0-1.09-.7-1.71-2.3-1.71-1.15,0-2.16.48-2.16,1.51,0,1.23,1.71,1.34,3.53,1.68,2.46,0.48,4.54,1.26,4.54,3.92,0,2.13-1.62,3.84-5.88,3.84C385.63,494.62,384.17,492.83,384.17,491Z" transform="translate(-131.15 -349.47)"/><path class="cls-1" d="M403.24,491.51l1.63,0.28v2.63h-7v-2.63l1.79-.28v-7.25l-1.79-.28v-2.63h5.35v10.16Zm-1.93-12.57a2.49,2.49,0,1,1,2.49-2.49A2.49,2.49,0,0,1,401.31,478.94Z" transform="translate(-131.15 -349.47)"/><path class="cls-1" d="M416.37,494.2a10.17,10.17,0,0,1,.08-1.18h-0.17c0,0.06-1,1.6-3.84,1.6-3.28,0-5.85-2.24-5.85-6.75,0-4.7,2.49-6.72,5.77-6.72a4.73,4.73,0,0,1,4.26,2.27h0.08l0.48-2.07h4.4V484l-1.79.28v11c0,4.87-3.25,7.06-7.28,7.06a7.84,7.84,0,0,1-5.82-2.18l1.48-2.49s1.12,1.68,4.2,1.68c2.46,0,4-1.23,4-4.06V494.2Zm-0.14-3.53v-5.29a3.18,3.18,0,0,0-2.66-1.34c-2.13,0-3.44,1.34-3.44,3.86s1.48,3.84,3.39,3.84A3.53,3.53,0,0,0,416.23,490.67Z" transform="translate(-131.15 -349.47)"/><path class="cls-1" d="M428.08,483.64h0.11s0.76-2.49,4.37-2.49c3.36,0,4.87,2.13,4.87,5v5.35l1.79,0.28v2.63h-5.35v-7.59c0-1.71-.7-2.8-2.58-2.8a2.66,2.66,0,0,0-2.69,1.85v5.63l1.62,0.25v2.66h-7v-2.63l1.79-.28v-7.25l-1.79-.28v-2.63h4.42Z" transform="translate(-131.15 -349.47)"/><path class="cls-1" d="M442.77,494.62a2,2,0,0,1,0-3.92A2,2,0,1,1,442.77,494.62Z" transform="translate(-131.15 -349.47)"/><path class="cls-1" d="M452.77,491a2.26,2.26,0,0,1,.17-0.87l3.16-.22a2.1,2.1,0,0,0-.06.45c0,1,.81,1.74,2.55,1.74s2.44-.64,2.44-1.48-1.43-1.15-3.05-1.43c-2.27-.42-5-1-5-4.09,0-2.07,1.79-3.95,5.52-3.95,4.31,0,5.71,1.76,5.71,3.72a2,2,0,0,1-.2,1l-3.14.2a1.92,1.92,0,0,0,.08-0.62c0-1.09-.7-1.71-2.3-1.71-1.15,0-2.16.48-2.16,1.51,0,1.23,1.71,1.34,3.53,1.68,2.46,0.48,4.54,1.26,4.54,3.92,0,2.13-1.62,3.84-5.88,3.84C454.23,494.62,452.77,492.83,452.77,491Z" transform="translate(-131.15 -349.47)"/><path class="cls-1" d="M469.88,488.65c0.28,2.1,1.76,3.08,3.84,3.08a5,5,0,0,0,3.84-1.37l1.26,2.63s-1.71,1.62-5.66,1.62-6.83-2.24-6.83-6.75,2.77-6.72,6.75-6.72A5.69,5.69,0,0,1,479,487a5,5,0,0,1-.22,1.68h-8.88Zm0-2.07h5.85a2.59,2.59,0,0,0-2.63-2.77A3.05,3.05,0,0,0,469.88,486.58Z" transform="translate(-131.15 -349.47)"/><path class="cls-1" d="M485.7,483.64h0.11s0.76-2.49,4.37-2.49c3.36,0,4.87,2.13,4.87,5v5.35l1.79,0.28v2.63h-5.35v-7.59c0-1.71-.7-2.8-2.58-2.8a2.66,2.66,0,0,0-2.69,1.85v5.63l1.62,0.25v2.66h-7v-2.63l1.79-.28v-7.25l-1.79-.28v-2.63h4.42Z" transform="translate(-131.15 -349.47)"/><path class="cls-1" d="M507.9,482.75H508s-0.17-1.18-.17-1.23v-5.07l-2-.28v-2.63h5.52v18l1.76,0.28v2.63h-4.4l-0.45-2h-0.11a4.66,4.66,0,0,1-4.23,2.24c-3.28,0-5.77-2-5.77-6.72,0-4.51,2.58-6.75,5.85-6.75C506.95,481.15,507.87,482.69,507.9,482.75Zm-0.08,7.64v-5.26a3.27,3.27,0,0,0-2.69-1.09c-1.9,0-3.42,1.26-3.42,3.84s1.34,3.86,3.47,3.86A3.08,3.08,0,0,0,507.82,490.39Z" transform="translate(-131.15 -349.47)"/><path class="cls-1" d="M517,494.62a2,2,0,0,1,0-3.92A2,2,0,1,1,517,494.62Z" transform="translate(-131.15 -349.47)"/></svg>