<svg xmlns="http://www.w3.org/2000/svg" xmlns:xlink="http://www.w3.org/1999/xlink" viewBox="0 0 512.1 176.23"><defs><linearGradient id="a" x1="418.5" y1="137.37" x2="418.5" y2="55.32" gradientUnits="userSpaceOnUse"><stop offset="0" stop-color="#3279bc"/><stop offset="1" stop-color="#3893d0"/></linearGradient><linearGradient id="b" x1="226.13" y1="137.41" x2="226.13" y2="80.74" xlink:href="#a"/><linearGradient id="c" x1="0" y1="96.07" x2="115.98" y2="96.07" xlink:href="#a"/><linearGradient id="d" x1="54.79" y1="54.48" x2="175.91" y2="54.48" xlink:href="#a"/></defs><title>Emondo-Logo-Colour-tagline</title><path d="M509.86,108.83c-7,2.9-12.06,4.16-15.78,4.32,0.25-1.27.47-2.56,0.62-3.92q1.4-13.11-5.47-20.74t-19-7.62q-12.22,0-20.65,7.62t-9.83,20.74A31.13,31.13,0,0,0,441,123.06h0q-3.32,2.75-6.34,2.75-4,0-3.58-4.26l7.05-66.24H424l-2.76,25.89Q418.37,81,416.69,81a30,30,0,0,0-22.26,9.08,36.84,36.84,0,0,0-10.37,22.64,31.18,31.18,0,0,0,.23,8.82c-0.54.52-1.12,1-1.74,1.55a10.15,10.15,0,0,1-6.35,2.75,3.86,3.86,0,0,1-3-1q-0.85-1-.6-3.31l2.45-23q0.88-8.29-2.89-12.83t-12.52-4.54q-10.2,0-15.53,8l0.73-6.84H330.62l-5.73,53.8h14.24l3.06-28.69a19.77,19.77,0,0,1,4.32-10q3.77-4.88,8.93-4.88a5.18,5.18,0,0,1,4.13,1.79q1.55,1.79,1.15,5.49l-2.46,23.09q-0.73,6.84,2.28,10.65t9.85,3.81a20.31,20.31,0,0,0,6.15-1,22.51,22.51,0,0,0,4.93-2.13,24.41,24.41,0,0,0,3.59-2.69,26.67,26.67,0,0,0,2.19-2.13l0.1-.12c0.28,0.42.55,0.84,0.86,1.24q5.33,6.78,16,6.78,8.85,0,13.93-5.6,2.88,5.6,10.72,5.6a20.31,20.31,0,0,0,6.15-1,22.49,22.49,0,0,0,4.93-2.13,24.35,24.35,0,0,0,3.59-2.69c0.72-.65,1.27-1.17,1.67-1.57q6.71,7.34,19,7.34T485,129.91a27.55,27.55,0,0,0,6.59-8.92c7-.89,14.68-4.11,20.53-7.78Zm-92.07,5a15.09,15.09,0,0,1-3.64,9.47,10.72,10.72,0,0,1-8.28,3.53q-9.3,0-7.8-14.12,1.07-10.09,6-15.08a16.07,16.07,0,0,1,11.8-5A24.54,24.54,0,0,1,420,93Zm59.78,4.34c0.19,0.15.39,0.29,0.59,0.42q-3.82,7-12.67,7-13.56,0-11.82-16.36Q455.44,92.64,469,92.64q11.13,0,11.93,11.18a7.44,7.44,0,0,0-5.41,2.81C473.25,109.55,472.93,114.55,477.57,118.17Z" style="fill:url(#a)"/><path d="M297,80.87q-12.22,0-20.65,7.62t-9.83,20.74a33.47,33.47,0,0,0,.57,11.54,32.29,32.29,0,0,1-2.49,2.3q-3.32,2.75-6.35,2.75a3.86,3.86,0,0,1-3-1q-0.85-1-.6-3.31l2.49-23.43q1.8-16.92-14.9-16.92-9.3,0-15.59,8.52-2.23-8.52-13.55-8.52-9.3,0-15,8.52l0.79-7.4H184.68l-3.17,29.81a31.19,31.19,0,0,1-3.26,3.17,67.42,67.42,0,0,1-5.39,4.16,29.42,29.42,0,0,1-7.12,3.54,24.86,24.86,0,0,1-8.31,1.46q-8.21,0-11.11-4.39a54.65,54.65,0,0,0,10.06-2.64,43.69,43.69,0,0,0,8.86-4.5,23.5,23.5,0,0,0,6.86-6.91,21,21,0,0,0,3.24-9.33q0.76-7.08-3.27-11.52t-12.34-4.44A26.27,26.27,0,0,0,140.12,89a33.85,33.85,0,0,0-9.34,20.63q-1.33,12.48,4.83,20.13t18.53,7.65a35,35,0,0,0,8.9-1.18,45.06,45.06,0,0,0,7.53-2.59,44,44,0,0,0,5.8-3.26c1.7-1.13,2.84-1.94,3.46-2.44l-0.87,8.19h14.24l3.13-29.37a23.48,23.48,0,0,1,1.47-5.94,15.39,15.39,0,0,1,4-5.66,9.34,9.34,0,0,1,6.61-2.63A4.35,4.35,0,0,1,212,94q1.18,1.51.77,5.44l-3.9,36.65h14.23l3.09-29a23.39,23.39,0,0,1,1.54-6.05,16.07,16.07,0,0,1,4.09-5.83,9.45,9.45,0,0,1,6.68-2.69q5,0,4.3,6.95l-2.5,23.43q-0.73,6.84,2.28,10.65t9.85,3.81a20.31,20.31,0,0,0,6.15-1,22.47,22.47,0,0,0,4.93-2.13,24.3,24.3,0,0,0,3.59-2.69,26.29,26.29,0,0,0,2.19-2.13q0.52-.62.77-1l0.08-.75a20,20,0,0,0,1.68,2.15q6.72,7.45,19.16,7.45t20.74-7.45q8.3-7.45,9.71-20.68T316,88.5Q309.14,80.87,297,80.87ZM144.75,107.76c0.62-5.85,2.18-8.49,4.73-11.67s5.48-4.78,8.77-4.78a5,5,0,0,1,3.83,1.46,4.54,4.54,0,0,1,1.05,4.39,11.56,11.56,0,0,1-4.9,7.25c-3.42,2.28-8.34,3.54-13.6,4.37Zm162.83,1.48q-1.74,16.36-15.3,16.36t-11.82-16.36q1.77-16.59,15.33-16.59T307.58,109.23Z" style="fill:url(#b)"/><path d="M107.09,96.07A49.11,49.11,0,1,1,76.85,50.75q3.18-3.59,6.53-6.8a58.18,58.18,0,1,0,18.75,14.58,88.32,88.32,0,0,0-9.07,3.24A48.92,48.92,0,0,1,107.09,96.07Z" style="fill:url(#c)"/><path d="M132,28.85s21.5,10.65,35.53-8.64c-2.28,2.06-14.71,4.6-20.17,1.73,0,0,14.61-1.19,22.8-10.36C175.41,5.74,175.91,0,175.91,0s-59.77,1.46-99.2,46.08c-13.26,15-20.84,29.69-21.85,44.85-0.75,11.25,4.47,18,4.47,18S51.57,62,114.58,50.77c-5.34-1.1-11.36-4.9-12.24-7.3,23.47,9.88,46.12-.77,52.42-7.48C151.06,37,135.27,34.34,132,28.85Z" style="fill:url(#d)"/><path d="M211.25,159.14a3.09,3.09,0,0,0,.13-1c0-2.09-1.19-3.37-3.9-3.37s-4.71,1.37-4.71,5.3c0,3.65,2.37,5.33,5.08,5.33,3.37,0,4.71-1.56,4.71-1.56l0.9,1.87s-1.65,1.87-5.8,1.87c-4.4,0-7.45-2.65-7.45-7.52,0-5.05,2.81-7.48,7.3-7.48s6.21,2.53,6.21,5.21a4.16,4.16,0,0,1-.19,1.15Z" style="fill:#3279bc"/><path d="M226.78,155.21a5.78,5.78,0,0,0-1.65-.22c-3.43,0-4.3,3.74-4.37,4.12v6.18l2.4,0.31v1.81h-7.11V165.6l2.12-.31V155l-2.12-.31v-1.81h4.09l0.25,3.68h0.09a4.85,4.85,0,0,1,4.71-3.9,8.72,8.72,0,0,1,1.59.15v2.43Z" style="fill:#3279bc"/><path d="M241.62,160.89h-11a4.76,4.76,0,0,0,5.12,4.55c3.34,0,4.65-1.56,4.65-1.56l0.94,1.87s-1.72,1.87-5.86,1.87c-4.3,0-7.42-2.65-7.42-7.52s3.12-7.48,7.36-7.48a6.4,6.4,0,0,1,6.42,6.71A7,7,0,0,1,241.62,160.89ZM230.55,159h8.83a3.93,3.93,0,0,0-4-4.18A4.51,4.51,0,0,0,230.55,159Z" style="fill:#3279bc"/><path d="M258.74,167.34a3.2,3.2,0,0,1-1.65.28c-1.62,0-2.31-1.09-2.31-2.56V165h-0.06s-1.22,2.62-5.49,2.62c-3,0-5-1.81-5-4.24,0-3,2.56-4.49,6.71-4.49a8.27,8.27,0,0,1,3.52.75v-1.56c0-2.34-1.37-3.34-4-3.34-2.4,0-3.68,1.15-3.68,2.68a2.94,2.94,0,0,0,.06.72l-2.25-.16a3.71,3.71,0,0,1-.12-1c0-2.09,1.81-4.37,6.08-4.37,4,0,6.46,1.75,6.46,5.58v6.21a1,1,0,0,0,1,1.15,1.81,1.81,0,0,0,.75-0.12v1.9Zm-4.3-5.89a8.12,8.12,0,0,0-3.31-.72c-2.5,0-4.37.84-4.37,2.65,0,1.37,1.28,2.21,3.09,2.21a5.49,5.49,0,0,0,4.58-2.37v-1.78Z" style="fill:#3279bc"/><path d="M265,148.91v3.93h4.62v2.06H265v7.52c0,2,.87,3,2.4,3a6.49,6.49,0,0,0,2.62-.47v2.18a8.77,8.77,0,0,1-3.06.5c-2.93,0-4.55-1.69-4.55-5.05V154.9h-2.18v-2.06h2.18l0.44-3.93H265Z" style="fill:#3279bc"/><path d="M285.47,160.89h-11a4.76,4.76,0,0,0,5.12,4.55c3.34,0,4.65-1.56,4.65-1.56l0.94,1.87s-1.72,1.87-5.86,1.87c-4.3,0-7.42-2.65-7.42-7.52s3.12-7.48,7.36-7.48a6.4,6.4,0,0,1,6.42,6.71A7,7,0,0,1,285.47,160.89ZM274.39,159h8.83a3.93,3.93,0,0,0-4-4.18A4.51,4.51,0,0,0,274.39,159Z" style="fill:#3279bc"/><path d="M290.2,167.62a1.7,1.7,0,0,1-1.68-1.69,1.72,1.72,0,0,1,1.68-1.68,1.7,1.7,0,0,1,1.69,1.68A1.68,1.68,0,0,1,290.2,167.62Z" style="fill:#3279bc"/><path d="M302.15,163.57a3.12,3.12,0,0,1,.13-0.9l2.34-.19a2.34,2.34,0,0,0-.06.5c0,1.44,1.19,2.53,3.74,2.53s3.68-.81,3.68-2.15-1.87-1.87-3.93-2.25c-2.59-.47-5.55-1.15-5.55-4.37,0-2.46,2.31-4.12,5.71-4.12,4.37,0,6,1.81,6,4a3,3,0,0,1-.15,1.06l-2.34.16a3.38,3.38,0,0,0,.09-0.81c0-1.5-1-2.34-3.46-2.34-1.62,0-3.24.63-3.24,2.09,0,1.65,2,1.93,4.15,2.34,2.75,0.53,5.33,1.37,5.33,4.27,0,2.34-1.75,4.21-6.18,4.21S302.15,165.63,302.15,163.57Z" style="fill:#3279bc"/><path d="M321.76,165.28l2,0.31v1.81h-6.74V165.6l2.12-.31V155l-2.12-.31v-1.81h4.71v12.45Zm-1.4-16.22a2,2,0,1,1,2-2A2,2,0,0,1,320.36,149.07Z" style="fill:#3279bc"/><path d="M337.6,165.69h0s-1.31,1.94-4.8,1.94-6.68-2.65-6.68-7.49c0-5,2.87-7.52,6.64-7.52a5.77,5.77,0,0,1,5,2.4h0.09l0.4-2.18h4.05v1.81l-2.12.31v13.75c0,5.33-3.4,7.52-7.67,7.52s-6.21-2.31-6.21-2.31l1.12-1.78s1.31,1.9,5,1.9c2.87,0,5.21-1.4,5.21-5.33v-3Zm-0.06-2.15V157a4.63,4.63,0,0,0-4.15-2.25c-2.56,0-4.74,1.72-4.74,5.33s2.4,5.3,4.71,5.3A4.91,4.91,0,0,0,337.54,163.54Z" style="fill:#3279bc"/><path d="M348.92,165.28l2,0.25v1.87h-6.74V165.6l2.12-.31V155l-2.12-.31v-1.81h4.09l0.25,2.75h0.09s0.81-3,5.08-3c3.77,0,5.49,2.4,5.49,5.68v7l2.12,0.31v1.81h-4.71v-8.7c0-2.28-1-3.9-3.62-3.9a4.05,4.05,0,0,0-4.09,3.06v7.42Z" style="fill:#3279bc"/><path d="M365.29,167.62a1.7,1.7,0,0,1-1.68-1.69,1.72,1.72,0,0,1,1.68-1.68,1.7,1.7,0,0,1,1.69,1.68A1.68,1.68,0,0,1,365.29,167.62Z" style="fill:#3279bc"/><path d="M377.24,163.57a3.12,3.12,0,0,1,.13-0.9l2.34-.19a2.34,2.34,0,0,0-.06.5c0,1.44,1.18,2.53,3.74,2.53s3.68-.81,3.68-2.15-1.87-1.87-3.93-2.25c-2.59-.47-5.55-1.15-5.55-4.37,0-2.46,2.31-4.12,5.71-4.12,4.37,0,6,1.81,6,4a3,3,0,0,1-.16,1.06l-2.34.16a3.38,3.38,0,0,0,.09-0.81c0-1.5-1-2.34-3.46-2.34-1.62,0-3.24.63-3.24,2.09,0,1.65,2,1.93,4.15,2.34,2.74,0.53,5.33,1.37,5.33,4.27,0,2.34-1.75,4.21-6.18,4.21S377.24,165.63,377.24,163.57Z" style="fill:#3279bc"/><path d="M405.8,160.89h-11a4.76,4.76,0,0,0,5.12,4.55c3.34,0,4.65-1.56,4.65-1.56l0.94,1.87s-1.71,1.87-5.86,1.87c-4.3,0-7.42-2.65-7.42-7.52s3.12-7.48,7.36-7.48a6.4,6.4,0,0,1,6.43,6.71A7,7,0,0,1,405.8,160.89ZM394.73,159h8.83a3.93,3.93,0,0,0-4-4.18A4.51,4.51,0,0,0,394.73,159Z" style="fill:#3279bc"/><path d="M413,165.28l2,0.25v1.87h-6.74V165.6l2.12-.31V155l-2.12-.31v-1.81h4.08l0.25,2.75h0.09s0.81-3,5.08-3c3.77,0,5.49,2.4,5.49,5.68v7l2.12,0.31v1.81h-4.71v-8.7c0-2.28-1-3.9-3.62-3.9a4.05,4.05,0,0,0-4.09,3.06v7.42Z" style="fill:#3279bc"/><path d="M438.76,154.56h0.09s-0.12-1-.12-1.09v-7.21l-2.21-.31v-1.81h4.8v21.15l2.12,0.31v1.81h-4.05L439,165.25h-0.12a5.7,5.7,0,0,1-4.93,2.37c-3.8,0-6.67-2.53-6.67-7.52,0-4.83,3.06-7.48,6.71-7.48S438.76,154.52,438.76,154.56Zm0,8.67v-6.49a4.74,4.74,0,0,0-4.15-1.93c-2.31,0-4.74,1.65-4.74,5.3s2.18,5.33,4.77,5.33A4.58,4.58,0,0,0,438.73,163.23Z" style="fill:#3279bc"/><path d="M447.65,167.62a1.7,1.7,0,0,1-1.68-1.69,1.72,1.72,0,0,1,1.68-1.68,1.7,1.7,0,0,1,1.68,1.68A1.68,1.68,0,0,1,447.65,167.62Z" style="fill:#3279bc"/></svg>