<?xml version="1.0" encoding="utf-8"?>
<!-- Generator: Adobe Illustrator 19.1.0, SVG Export Plug-In . SVG Version: 6.00 Build 0)  -->
<svg version="1.1" id="Global" xmlns="http://www.w3.org/2000/svg" xmlns:xlink="http://www.w3.org/1999/xlink" x="0px" y="0px"
	 viewBox="0 0 20 20" style="enable-background:new 0 0 20 20;" xml:space="preserve">
<style type="text/css">
	.st0{fill:#073660;}
</style>
<g>
	<path class="st0" d="M10.1,19.8c-5.4,0-9.8-4.4-9.8-9.8s4.4-9.8,9.8-9.8s9.8,4.4,9.8,9.8S15.5,19.8,10.1,19.8z M10.1,1.3
		c-4.8,0-8.6,3.9-8.6,8.6s3.9,8.6,8.6,8.6s8.6-3.9,8.6-8.6S14.8,1.3,10.1,1.3z"/>
	<path class="st0" d="M9.3,17c-1,0-1.8-2.1-1.8-2.6c0-0.3,0.1-0.6,0.3-0.9c0.1-0.1,0.1-0.3,0.1-0.3c0-0.1-0.3-0.5-0.6-0.8
		c-0.1-0.1-0.2-0.3-0.2-0.4c0-0.3,0-0.5-0.1-0.5c-0.1-0.1-0.6-0.1-1-0.1c-0.2,0-0.4,0-0.6,0c-1.4,0-1.8-1.4-1.8-2.2
		c0-0.1,0-3.3,2.5-3.8C7,5.1,7.8,5.2,8.3,5.6C8.4,5.7,8.5,5.8,8.6,6C9,6.2,9.7,6,10.2,5.9c0.2,0,0.3-0.1,0.5-0.1
		c0-0.5,0.1-0.9,0-1.2c-0.5,0.1-0.9,0.1-1.3-0.1C9,4.2,8.7,3.8,8.7,3.2c-0.1-1.7,3-2.5,4-2.7C13,0.4,13.3,0.6,13.4,1
		c0.1,0.3-0.1,0.6-0.5,0.7c-1.7,0.3-3.1,1-3.1,1.4c0,0.1,0,0.3,0.2,0.4c0.1,0.1,0.3,0,0.6-0.1c0.3-0.2,0.6-0.1,0.9,0.1
		c0.2,0.1,0.7,0.5,0.4,3c0,0.3-0.3,0.5-0.6,0.5c-0.2,0-0.5,0.1-0.8,0.1C9.6,7.3,8.4,7.5,7.6,6.7C7.6,6.7,7.5,6.6,7.5,6.5
		c-0.1,0-0.4-0.1-1.3,0C4.7,6.8,4.6,9.1,4.6,9.1c0,0,0,1,0.6,1c0.2,0,0.4,0,0.6,0c0.7,0,1.4-0.1,1.9,0.4c0.3,0.3,0.5,0.7,0.5,1.2
		c0.4,0.4,0.8,1,0.8,1.5c0,0.3-0.1,0.6-0.3,0.9c-0.1,0.1-0.1,0.3-0.1,0.3c0,0.3,0.5,1.1,0.7,1.4c1.7-0.1,1.7-1.1,1.7-1.4
		c0-0.3,0.2-0.5,0.4-0.6c0,0,0.5-0.2,0.9-0.6c0,0,0,0,0,0c-0.2-0.2-0.5-0.4-0.5-0.9c0-0.4,0.3-0.6,0.7-1.1c0.2-0.3,0.8-0.9,1-1.3
		c-0.4,0.1-0.8,0-1.2-0.3c-0.1-0.1-0.1-0.2-0.2-0.3c-0.1-0.5-0.3-1-0.4-1.2c-0.2-0.1-0.3-0.2-0.4-0.3c0-0.1-0.2-0.4,0.1-0.7
		c0.4-0.5,1.8-1.2,3.2-0.9c1.2-0.7,1.5-2.4,1.5-2.4c0.1-0.3,0.4-0.5,0.7-0.5c0.3,0.1,0.5,0.4,0.5,0.7c0,0.1-0.5,2.5-2.3,3.4
		c-0.1,0.1-0.3,0.1-0.4,0c-0.7-0.2-1.4,0-1.8,0.2c0.2,0.3,0.3,0.6,0.5,1.2c0.1,0,0.3-0.1,0.4-0.1c0.2-0.1,0.5-0.1,0.7,0.1
		c1.1,1.1-0.2,2.5-1,3.3c-0.1,0.1-0.2,0.2-0.3,0.3c0.2,0.2,0.5,0.4,0.5,0.9c0,0.3-0.1,0.5-0.4,0.8c-0.4,0.4-0.8,0.6-1.1,0.8
		C12.1,16.1,11,17,9.3,17z"/>
</g>
</svg>
