<?xml version="1.0" encoding="utf-8"?>
<!-- Generator: Adobe Illustrator 19.1.0, SVG Export Plug-In . SVG Version: 6.00 Build 0)  -->
<svg version="1.1" id="Professional" xmlns="http://www.w3.org/2000/svg" xmlns:xlink="http://www.w3.org/1999/xlink" x="0px"
	 y="0px" viewBox="0 0 20 20" style="enable-background:new 0 0 20 20;" xml:space="preserve">
<style type="text/css">
	.st0{fill:#073660;}
</style>
<g>
	<path class="st0" d="M8.7,10.5H0.7c-0.4,0-0.7-0.3-0.7-0.7c0-0.4,0.3-0.7,0.7-0.7h7.9c0.4,0,0.7,0.3,0.7,0.7
		C9.3,10.2,9,10.5,8.7,10.5z"/>
	<path class="st0" d="M19.3,10.5h-7.9c-0.4,0-0.7-0.3-0.7-0.7c0-0.4,0.3-0.7,0.7-0.7h7.9c0.4,0,0.7,0.3,0.7,0.7
		C19.9,10.2,19.6,10.5,19.3,10.5z"/>
	<path class="st0" d="M19.3,18.4H0.7c-0.4,0-0.7-0.3-0.7-0.7V5.4c0-0.4,0.3-0.7,0.7-0.7h18.5c0.4,0,0.7,0.3,0.7,0.7v12.3
		C19.9,18.1,19.6,18.4,19.3,18.4z M1.4,17.1h17.2v-11H1.4V17.1z"/>
	<path class="st0" d="M11.3,13.1H8.7c-0.4,0-0.7-0.3-0.7-0.7V8.9c0-0.4,0.3-0.7,0.7-0.7h2.6c0.4,0,0.7,0.3,0.7,0.7v3.5
		C12,12.8,11.7,13.1,11.3,13.1z M9.3,11.8h1.3V9.6H9.3V11.8z"/>
	<path class="st0" d="M14.2,5.4h-1.3c0-1.6-1.3-2.9-2.9-2.9S7.1,3.8,7.1,5.4H5.8c0-2.3,1.9-4.2,4.2-4.2S14.2,3.1,14.2,5.4z"/>
</g>
</svg>
