<?xml version="1.0" encoding="utf-8"?>
<!-- Generator: Adobe Illustrator 19.1.0, SVG Export Plug-In . SVG Version: 6.00 Build 0)  -->
<svg version="1.1" id="Team" xmlns="http://www.w3.org/2000/svg" xmlns:xlink="http://www.w3.org/1999/xlink" x="0px" y="0px"
	 viewBox="0 0 20 20" style="enable-background:new 0 0 20 20;" xml:space="preserve">
<style type="text/css">
	.st0{fill:#073660;}
</style>
<g>
	<path class="st0" d="M3.5,11c-1.2,0-2.2-1-2.2-2.2s1-2.2,2.2-2.2s2.2,1,2.2,2.2S4.8,11,3.5,11z M3.5,7.8c-0.6,0-1,0.5-1,1
		s0.5,1,1,1s1-0.5,1-1S4.1,7.8,3.5,7.8z"/>
	<path class="st0" d="M4.7,19.9H2.3c-0.3,0-0.6-0.3-0.6-0.6v-2.8c-1.6-0.8-1.6-2.8-1.6-4.4c0-0.7,0.1-0.7,3.4-0.7h2.8
		C6.7,11.4,7,11.7,7,12c0,1.7,0,3.7-1.6,4.5v2.8C5.3,19.6,5.1,19.9,4.7,19.9z M2.9,18.7h1.2v-2.6c0-0.3,0.2-0.5,0.4-0.6
		c0.8-0.2,1.1-0.9,1.2-2.9H3.5c-0.8,0-1.7,0-2.2,0c0,1.9,0.3,2.6,1.2,2.8c0.3,0.1,0.4,0.3,0.4,0.6V18.7z"/>
	<path class="st0" d="M16.5,11c-1.2,0-2.2-1-2.2-2.2s1-2.2,2.2-2.2c1.2,0,2.2,1,2.2,2.2S17.7,11,16.5,11z M16.5,7.8
		c-0.6,0-1,0.5-1,1s0.5,1,1,1c0.6,0,1-0.5,1-1S17,7.8,16.5,7.8z"/>
	<path class="st0" d="M17.7,19.9h-2.4c-0.3,0-0.6-0.3-0.6-0.6v-2.8C13,15.7,13,13.7,13,12.1c0-0.7,0.1-0.7,3.4-0.7h2.8
		c0.3,0,0.6,0.3,0.6,0.6c0,1.7,0,3.7-1.6,4.5v2.8C18.3,19.6,18,19.9,17.7,19.9z M15.9,18.7h1.2v-2.6c0-0.3,0.2-0.5,0.4-0.6
		c0.8-0.2,1.1-0.9,1.2-2.9h-2.2c-0.8,0-1.7,0-2.2,0c0,1.9,0.3,2.6,1.2,2.8c0.3,0.1,0.4,0.3,0.4,0.6V18.7z"/>
	<path class="st0" d="M10,4.5c-1.2,0-2.2-1-2.2-2.2s1-2.2,2.2-2.2s2.2,1,2.2,2.2S11.2,4.5,10,4.5z M10,1.3c-0.6,0-1,0.5-1,1
		s0.5,1,1,1s1-0.5,1-1S10.6,1.3,10,1.3z"/>
	<path class="st0" d="M11.2,13.4H8.8c-0.3,0-0.6-0.3-0.6-0.6V10C6.6,9.3,6.6,7.2,6.6,5.6c0-0.3,0.3-0.6,0.6-0.6h5.7
		c0.3,0,0.6,0.3,0.6,0.6c0,1.7,0,3.7-1.6,4.4v2.9C11.8,13.2,11.5,13.4,11.2,13.4z M9.4,12.2h1.2V9.5c0-0.3,0.2-0.5,0.5-0.6
		c0.8-0.2,1.1-0.8,1.1-2.8H7.8c0,1.9,0.3,2.6,1.1,2.8C9.2,9,9.4,9.2,9.4,9.5V12.2z"/>
</g>
</svg>
