<?xml version="1.0" encoding="utf-8"?>
<!-- Generator: Adobe Illustrator 19.1.0, SVG Export Plug-In . SVG Version: 6.00 Build 0)  -->
<svg version="1.1" id="Layer_1" xmlns="http://www.w3.org/2000/svg" xmlns:xlink="http://www.w3.org/1999/xlink" x="0px" y="0px"
	 viewBox="0 0 20 20" style="enable-background:new 0 0 20 20;" xml:space="preserve">
<style type="text/css">
	.st0{fill-rule:evenodd;clip-rule:evenodd;fill:#3993D1;}
</style>
<path class="st0" d="M10,0C4.5,0,0,4.5,0,10s4.5,10,10,10s10-4.5,10-10S15.5,0,10,0z M10.1,15c-0.5,0-0.9-0.4-0.9-0.9
	c0-0.5,0.4-0.9,0.9-0.9c0.5,0,0.9,0.4,0.9,0.9C11.1,14.6,10.6,15,10.1,15z M12.5,8.9l-1.3,1.3c-0.1,0.2-0.3,0.4-0.4,0.6
	c-0.1,0.2-0.2,0.5-0.2,0.9v0.4H9.4v-0.3c0-0.3,0-0.6,0.1-0.9c0.1-0.2,0.2-0.5,0.3-0.7c0.2-0.2,0.4-0.5,0.7-0.9l0.4-0.4
	c0.1-0.1,0.2-0.2,0.3-0.4L11.5,8C11.9,7.6,12,7.3,12,7c0-0.2-0.1-0.5-0.3-0.7c-0.2-0.2-0.6-0.3-1.1-0.3c-0.3,0-0.7,0-1,0.1
	C9.3,6.3,8.9,6.5,8.4,6.7L8.2,6.9V5.5l0.1,0C9,5.1,9.8,4.9,10.6,4.9c0.9,0,1.6,0.2,2.1,0.6c0.5,0.4,0.7,0.9,0.7,1.5
	C13.5,7.6,13.1,8.3,12.5,8.9z"/>
</svg>
