<svg xmlns="http://www.w3.org/2000/svg" viewBox="0 0 1053.37 405.08"><defs><style>.cls-1{opacity:0.2;}.cls-12,.cls-2{fill:#fff;}.cls-3{fill:#444;}.cls-4{fill:#7d6c5a;}.cls-5{fill:#b5cadf;}.cls-6{fill:#cfcfcf;}.cls-7{fill:#819cb4;}.cls-8{fill:#313131;}.cls-9{fill:#7b7b7b;}.cls-10{opacity:0.5;}.cls-11{fill:none;stroke:#444;}.cls-11,.cls-12{stroke-linecap:round;stroke-linejoin:round;stroke-width:3px;}.cls-12{stroke:#313131;}.cls-13{fill:#d4b892;}.cls-14{opacity:0.7;}.cls-15{fill:#a58f77;}.cls-16{fill:#70a1bc;}.cls-17{fill:#e7cb77;}.cls-18{fill:#d7b351;}</style></defs><title>Asset 3</title><g id="Layer_2" data-name="Layer 2"><g id="Layer_1-2" data-name="Layer 1"><g class="cls-1"><rect class="cls-2" x="219.35" y="203.64" width="23.44" height="116.7"/><rect class="cls-2" x="344.87" y="203.64" width="30.83" height="116.7"/><rect class="cls-3" x="711.07" y="292.27" width="72.37" height="41.97"/><path class="cls-3" d="M783.43,335.88H711.07a1.64,1.64,0,0,1-1.64-1.64v-42a1.64,1.64,0,0,1,1.64-1.64h72.37a1.64,1.64,0,0,1,1.64,1.64v42A1.64,1.64,0,0,1,783.43,335.88Zm-70.73-3.28h69.09V293.91H712.71Z"/><polyline class="cls-4" points="775.9 295.5 698.83 295.5 724.25 274.82 757.54 274.82"/><path class="cls-3" d="M775.9,297.14H698.83a1.64,1.64,0,0,1-1-2.91l25.42-20.68a1.63,1.63,0,0,1,1-.37h28a1.64,1.64,0,1,1,0,3.28h-27.4l-21.39,17.4H775.9a1.64,1.64,0,0,1,0,3.28Z"/><path class="cls-3" d="M87.19,310.32a1.64,1.64,0,0,1-1.64-1.64V268.92a1.64,1.64,0,1,1,3.28,0v39.76A1.64,1.64,0,0,1,87.19,310.32Z"/><rect class="cls-3" x="867.16" y="307.22" width="98.04" height="56.86"/><path class="cls-3" d="M965.2,365.72h-98a1.64,1.64,0,0,1-1.64-1.64V307.22a1.64,1.64,0,0,1,1.64-1.64h98a1.64,1.64,0,0,1,1.64,1.64v56.86A1.64,1.64,0,0,1,965.2,365.72Zm-96.4-3.28h94.76V308.86H868.8Z"/><rect class="cls-3" x="87.19" y="263.08" width="48.47" height="43.04"/><path class="cls-3" d="M135.66,307.77H87.19a1.64,1.64,0,0,1-1.64-1.64v-43a1.64,1.64,0,0,1,1.64-1.64h48.47a1.64,1.64,0,0,1,1.64,1.64v43A1.64,1.64,0,0,1,135.66,307.77Zm-46.83-3.28H134V264.72H88.83Z"/><polyline class="cls-4" points="177.71 268.02 73.29 268.02 107.73 240 152.84 240"/><path class="cls-3" d="M177.71,269.66H73.29a1.64,1.64,0,0,1-1-2.91l34.44-28a1.64,1.64,0,0,1,1-.37h37.9a1.64,1.64,0,0,1,0,3.28H108.32L77.91,266.38h99.81a1.64,1.64,0,0,1,0,3.28Z"/><polyline class="cls-4" points="877.36 311.59 981.78 311.59 947.34 283.57 902.24 283.57"/><rect class="cls-5" x="758.18" y="299.26" width="70.22" height="46.59"/><polygon class="cls-5" points="817.13 305.76 809.27 280.43 778.43 279.16 765.97 305.76 817.13 305.76"/><path class="cls-6" d="M547.15,293c26.31-3.9,50.88-8.66,76-12.75C582,235.11,552.46,197.37,549,192.87l-97.08,84.46C483.14,285.32,513.74,298.07,547.15,293Z"/><path class="cls-6" d="M548.61,192.41l.35.46h0Z"/><path class="cls-5" d="M533.48,296.3a43.28,43.28,0,0,1-8.2-.56c-31.39-9.37-47.24-11.72-73.4-18.41l-48.7,42.36L662.81,322c-14-14.11-27.33-28.24-39.62-41.72-25.16,4.09-55.47,8.29-81.5,15.48a40.57,40.57,0,0,1-8.2.56"/><path class="cls-6" d="M343.29,157s51.51-40.81-3.52-14.84C303.45,159.35,273.64,227,257.57,271c3.22,1.16,6.45,2.3,9.67,2.3,25.95,2.88,50.2,10,75,13.89C329,226.45,343.29,157,343.29,157Z"/><path class="cls-5" d="M257.57,271c-8.28,22.69-12.92,39.11-12.92,39.11l107.87,10.21v-1.1a162.77,162.77,0,0,1-10.28-32c-24.79-3.91-49.05-11-75-13.89C264,273.32,260.79,272.19,257.57,271Z"/><polygon class="cls-7" points="345.17 298.64 254.03 281.26 257.73 270.29 342.23 287.21 345.17 298.64"/><path class="cls-5" d="M142.84,287l74.59,12.53a168.46,168.46,0,0,1-5-30.39c-19.2-3-38.4-7.36-57.6-11.15A307.71,307.71,0,0,0,142.84,287Z"/><polygon class="cls-7" points="213.69 280.66 150.13 268.14 153.58 252.25 215.44 263.16 213.69 280.66"/><path class="cls-6" d="M226.51,173.31C193.19,186.66,168.44,229,154.81,258c19.2,3.79,38.4,8.12,57.6,11.15-1.89-23.48-.29-56.86,17-86.5C229.45,182.68,278.95,152.3,226.51,173.31Z"/><path class="cls-7" d="M623.75,281.7s-40.64.69-81.74,13.77l1.87,7.43,99.37.39Z"/><path class="cls-2" d="M370.75,319.25S358,170.54,302.23,16.74c0,0,151.62,2.19,246.38,175.67L402.82,319.25"/><path class="cls-8" d="M370.74,320.89a1.64,1.64,0,0,1-1.63-1.5c-.13-1.48-13.38-150.26-68.43-302.09a1.64,1.64,0,0,1,.21-1.51,1.62,1.62,0,0,1,1.36-.69c.39,0,9.8.17,25.45,3.08A282.64,282.64,0,0,1,390.55,38a312.56,312.56,0,0,1,80.68,52.53c30.6,27.33,57.12,61.34,78.82,101.08a1.64,1.64,0,0,1-.36,2L403.9,320.48a1.64,1.64,0,0,1-2.15-2.47L546.54,192c-21.41-38.91-47.47-72.23-77.49-99a309.34,309.34,0,0,0-79.83-52c-41.86-18.7-75.55-22-84.61-22.52,54.5,151.44,67.65,299.14,67.78,300.62a1.64,1.64,0,0,1-1.49,1.77Z"/><polygon class="cls-9" points="548.61 192.41 518.98 319.25 541.49 319.69 548.61 192.41"/><g class="cls-10"><path class="cls-6" d="M369.64,314.54s-10.8-116.91-49.23-243.92c0,0,124,8.08,194.52,140.31L395.84,314.54"/></g><path class="cls-9" d="M549.72,191.29s-73.06,63.72-146.9,128H391.89c69-67.21,146.54-143.89,146.76-144.12C543.5,179.25,545,186.65,549.72,191.29Z"/><path class="cls-2" d="M679.82,318.89l86-168.75s-108.61-30.62-217.22,42.28c0,0,50.23,65.06,114.2,129.57"/><path class="cls-8" d="M662.81,323.62a1.64,1.64,0,0,1-1.16-.49c-63.3-63.84-113.83-129.07-114.33-129.72a1.64,1.64,0,0,1,.38-2.36,288,288,0,0,1,150.2-48.75c40.52-1.45,68.11,6.18,68.39,6.26a1.64,1.64,0,0,1,1,2.32l-86,168.76a1.64,1.64,0,1,1-2.92-1.49l85.08-166.93c-6.91-1.66-31.62-6.86-65.56-5.64A284.73,284.73,0,0,0,551,192.79c7.66,9.78,54.94,69.49,113,128a1.64,1.64,0,0,1-1.17,2.8Z"/><g class="cls-10"><path class="cls-6" d="M681,315.37,750.1,179.74S656,157,575.52,213.72A1266.78,1266.78,0,0,0,667.3,317.86"/></g><path class="cls-3" d="M684.86,286.83l-.22,0a1.09,1.09,0,0,1-.85-1.29c9.62-47.35,20.83-83.11,28.55-104.77,8.37-23.49,14.56-36,14.62-36.09a1.09,1.09,0,0,1,2,1c-.06.12-6.21,12.51-14.54,35.89-7.69,21.59-18.87,57.22-28.45,104.42A1.09,1.09,0,0,1,684.86,286.83Z"/><path class="cls-3" d="M391.89,320.89a1.64,1.64,0,0,1-1.15-2.81L537.5,174a1.64,1.64,0,0,1,2.3,2.34L393,320.42A1.63,1.63,0,0,1,391.89,320.89Z"/><path class="cls-9" d="M548.61,192.41S598.84,257.48,662.81,322l7.34-1.33c-56.81-68.69-104.81-138.29-105-138.55C559.65,185.28,554.13,188.71,548.61,192.41Z"/><path class="cls-3" d="M671.26,323.62A1.64,1.64,0,0,1,670,323c-56.79-68.51-105.7-139.3-106.19-140a1.64,1.64,0,1,1,2.7-1.86c.48.71,49.31,71.38,106,139.78a1.64,1.64,0,0,1-1.26,2.69Z"/><path class="cls-3" d="M542.87,296.71a1.64,1.64,0,0,1-.47-3.21,325.46,325.46,0,0,1,78.87-13.44,1.66,1.66,0,0,1,1.72,1.56,1.64,1.64,0,0,1-1.55,1.72,322.27,322.27,0,0,0-78.1,13.31A1.63,1.63,0,0,1,542.87,296.71Z"/><path class="cls-7" d="M453.66,277s29.94,4.94,71,18l-1.87,7.43-99.37.39Z"/><path class="cls-3" d="M524.7,296.67a1.65,1.65,0,0,1-.5-.08c-40.49-12.9-70.51-17.92-70.8-18a1.64,1.64,0,0,1,.53-3.24c.3,0,30.53,5.11,71.27,18.08a1.64,1.64,0,0,1-.5,3.2Z"/><path class="cls-3" d="M518.72,322a1.69,1.69,0,0,1-.37,0,1.64,1.64,0,0,1-1.23-2L547,192a1.64,1.64,0,0,1,3.24.48l-8,126.84a1.64,1.64,0,0,1-3.27-.21l6.78-107.2L520.32,320.72A1.64,1.64,0,0,1,518.72,322Z"/><path class="cls-3" d="M765.83,150.13s-41,83.66-70,168.75h-16C704.76,233.23,765.83,150.13,765.83,150.13Z"/><path class="cls-3" d="M695.86,320.53h-16a1.64,1.64,0,0,1-1.57-2.1C703,233.48,763.9,150,764.51,149.16a1.64,1.64,0,0,1,2.79,1.69c-.41.84-41.29,84.54-69.9,168.56A1.64,1.64,0,0,1,695.86,320.53ZM682,317.25h12.67C715.26,257,742,197.18,755.6,167.91,736.89,196.19,700.22,256.19,682,317.25Z"/><polyline class="cls-6" points="771.71 293.58 813.93 293.58 796.45 241.07 771.71 293.58"/><path class="cls-3" d="M813.93,280.51H771.71a1.09,1.09,0,0,1,0-2.19h42.22a1.09,1.09,0,1,1,0,2.19Z"/><path class="cls-3" d="M813.93,266.33H771.71a1.09,1.09,0,0,1,0-2.19h42.22a1.09,1.09,0,1,1,0,2.19Z"/><path class="cls-2" d="M796.45,241.07S869.71,203.34,978,209.36c0,0-73.26,53-133.94,125.75H826.52Z"/><path class="cls-8" d="M844,336.75H826.52a1.64,1.64,0,0,1-1.56-1.14l-30.07-94a1.64,1.64,0,0,1,.81-2c.63-.32,64.29-32.54,158.87-32.54,7.79,0,15.69.22,23.48.65a1.64,1.64,0,0,1,.87,3c-.73.53-73.8,53.76-133.65,125.47A1.64,1.64,0,0,1,844,336.75Zm-16.3-3.28h15.53c52.32-62.52,114.48-110.94,130.07-122.7-6.24-.28-12.53-.42-18.75-.42-86.5,0-146.84,27.13-156.13,31.57Z"/><polygon class="cls-9" points="833.63 335.11 809.27 235.4 796.45 241.07 826.52 335.11 833.63 335.11"/><g class="cls-10"><path class="cls-6" d="M815,255s54.71-28,141-23.25c0,0-60.49,42.11-108.86,100.06l-13.47-1Z"/></g><path class="cls-3" d="M833.63,336.75A1.64,1.64,0,0,1,832,335.5l-24.36-99.71a1.64,1.64,0,0,1,3.19-.78l24.36,99.71a1.64,1.64,0,0,1-1.2,2A1.66,1.66,0,0,1,833.63,336.75Z"/><path class="cls-3" d="M844,335.11S914.54,242.71,978,209.36c0,0-71.62,89.12-107.15,125.75Z"/><path class="cls-3" d="M870.8,336.75H844a1.64,1.64,0,0,1-1.3-2.63c.71-.93,71.47-93.07,134.48-126.21a1.64,1.64,0,0,1,2,2.48c-.72.89-72.07,89.6-107.26,125.87A1.63,1.63,0,0,1,870.8,336.75Zm-23.43-3.28h22.74c29.57-30.6,84-97.32,101.23-118.53C917,247.09,858.92,318.82,847.37,333.47Z"/><path class="cls-3" d="M210.73,270.35a1.68,1.68,0,0,1-.33,0l-56.07-11.27a1.64,1.64,0,1,1,.65-3.22L211,267.11a1.64,1.64,0,0,1-.32,3.25Z"/><path class="cls-3" d="M211,252.08l-.22,0-47.25-9.5a1.09,1.09,0,1,1,.43-2.14l47.25,9.49a1.09,1.09,0,0,1-.21,2.17Z"/><path class="cls-3" d="M212.11,235.19l-.23,0L173.52,227a1.09,1.09,0,1,1,.46-2.14L212.34,233a1.09,1.09,0,0,1-.23,2.16Z"/><path class="cls-3" d="M215.88,218.28l-.22,0L184.47,212a1.09,1.09,0,1,1,.43-2.14l31.19,6.26a1.09,1.09,0,0,1-.21,2.17Z"/><path class="cls-3" d="M221.23,200.9l-.2,0-24.16-4.36a1.09,1.09,0,0,1,.39-2.15l24.16,4.36a1.09,1.09,0,0,1-.19,2.17Z"/><path class="cls-3" d="M339.18,270.74l-.23,0-73.46-15.64a1.09,1.09,0,1,1,.45-2.14l73.46,15.64a1.09,1.09,0,0,1-.23,2.16Z"/><path class="cls-3" d="M337.29,252.8l-.22,0L269.81,239a1.09,1.09,0,0,1,.44-2.14l67.25,13.79a1.09,1.09,0,0,1-.22,2.16Z"/><path class="cls-3" d="M336.43,235.33l-.23,0L277.89,223a1.09,1.09,0,1,1,.45-2.14l58.31,12.32a1.09,1.09,0,0,1-.22,2.16Z"/><path class="cls-3" d="M335.23,217.1l-.2,0-48.54-8.94a1.09,1.09,0,1,1,.4-2.15l48.54,8.94a1.09,1.09,0,0,1-.2,2.17Z"/><path class="cls-3" d="M336.43,200.16l-.2,0-39.72-7.31a1.09,1.09,0,0,1,.4-2.15L336.62,198a1.09,1.09,0,0,1-.2,2.17Z"/><path class="cls-3" d="M338.68,183.77l-.21,0-30.74-6a1.09,1.09,0,1,1,.42-2.15l30.74,6a1.09,1.09,0,0,1-.21,2.17Z"/><path class="cls-3" d="M340.87,167.28l-.2,0-20.46-3.77a1.09,1.09,0,0,1,.4-2.15l20.46,3.77a1.09,1.09,0,0,1-.2,2.17Z"/><path class="cls-3" d="M213.69,282.3a1.61,1.61,0,0,1-.32,0l-63.56-12.52a1.64,1.64,0,0,1,.63-3.22L214,279.05a1.64,1.64,0,0,1-.32,3.25Z"/><path class="cls-9" d="M232.34,204.87s-17.73,55.88-10.19,94.79l-4.71-.09s-18.7-64.32,12-116.89Z"/><polygon class="cls-7" points="765.97 305.76 817.13 305.76 813.93 293.58 771.71 293.58 765.97 305.76"/><path class="cls-2" d="M339.77,142.21S271.71,197.33,247,304.49l-14.4,1.64C244.82,168,204.84,105,204.84,105c82.4-10.44,131.58,23.77,131.58,23.77Z"/><path class="cls-3" d="M232.61,307.77A1.64,1.64,0,0,1,231,306c12-136-27.12-199.48-27.52-200.11a1.64,1.64,0,0,1,1.18-2.51,248.67,248.67,0,0,1,31.15-2c63.4,0,101.2,25.79,101.58,26a1.64,1.64,0,0,1,.66,1l3.34,13.44a1.64,1.64,0,0,1-.56,1.67c-.68.55-67.92,56.05-92.2,161.37a1.64,1.64,0,0,1-1.41,1.26l-14.4,1.64Zm-25.1-201.45c3,5.4,10.63,20.71,17.38,47,7.69,30,15.53,80.38,9.53,150.92L245.67,303a331.67,331.67,0,0,1,55.66-120.8c17.54-23.72,33-37.47,36.6-40.58L335,129.78c-4.63-3-40.82-25.13-99.2-25.13A244.59,244.59,0,0,0,207.51,106.32Z"/><g class="cls-10"><path class="cls-6" d="M321.64,160s-49.33,49.45-73,137L234,295.65c9.45-106.94-14.61-155.85-14.61-155.85C277.24,130.73,321.64,160,321.64,160Z"/></g><path class="cls-11" d="M339.18,285"/><path class="cls-2" d="M226.51,173.31c-61,34.77-80.09,106-80.09,106H131.65C124,212.82,84.09,155.78,84.09,155.78,166.64,132.82,226.51,173.31,226.51,173.31Z"/><path class="cls-3" d="M146.41,281H131.65a1.64,1.64,0,0,1-1.63-1.45c-7.52-65.32-46.88-122.24-47.28-122.8a1.64,1.64,0,0,1,.91-2.52,192,192,0,0,1,51.43-7.11c55,0,92,24.61,92.35,24.86a1.64,1.64,0,0,1-.11,2.78c-59.68,34-79.13,104.32-79.32,105A1.64,1.64,0,0,1,146.41,281Zm-13.3-3.28h12.07c2.86-9.47,23.44-71.8,78.14-104.43-8.72-5.18-42-22.9-88.25-22.9a188.37,188.37,0,0,0-48.35,6.39C93.61,167.23,125.92,218.92,133.11,277.7Z"/><path class="cls-11" d="M230.29,178.11"/><path class="cls-3" d="M215.86,300c-.19-.65-18.55-65.6,12.17-118.17l2.83,1.66c-30,51.37-12,115-11.85,115.6Z"/><path class="cls-11" d="M200.14,267.82"/><path class="cls-3" d="M981.78,313.23H877.36a1.64,1.64,0,1,1,0-3.28h99.81l-30.41-24.74H909.44a1.64,1.64,0,1,1,0-3.28h37.91a1.64,1.64,0,0,1,1,.37l34.44,28a1.64,1.64,0,0,1-1,2.91Z"/><rect class="cls-3" x="771.71" y="291.94" width="42.22" height="3.28"/><g class="cls-10"><path class="cls-6" d="M202.71,191C163.92,221.53,147,277.22,147,277.22l-15.58.49c-6.18-53.66-33.07-98.05-33.07-98.05C165,161.14,202.71,191,202.71,191Z"/></g><rect class="cls-3" x="765.97" y="304.12" width="51.16" height="3.28"/><rect class="cls-3" x="158.05" y="263.88" width="11.4" height="3.28" transform="translate(-145.34 307.64) rotate(-66.1)"/><rect class="cls-3" x="170.68" y="265.7" width="10.1" height="3.28" transform="translate(-139.13 324) rotate(-66.88)"/><rect class="cls-3" x="182.13" y="268.22" width="9.48" height="3.28" transform="translate(-135.41 332.13) rotate(-66.23)"/><rect class="cls-3" x="192.37" y="270.04" width="11.49" height="3.28" transform="translate(-125.93 361.44) rotate(-69.38)"/><rect class="cls-3" x="202.95" y="272.55" width="11.49" height="3.28" transform="translate(-121.42 373) rotate(-69.39)"/><rect class="cls-3" x="298.87" y="235.41" width="3.28" height="87.36" transform="translate(-33.41 517.2) rotate(-78.38)"/><path class="cls-3" d="M344.87,301.3a1.66,1.66,0,0,1-.33,0l-90.83-18.45a1.64,1.64,0,0,1,.65-3.21L345.2,298a1.64,1.64,0,0,1-.32,3.25Z"/><rect class="cls-3" x="260.83" y="276.72" width="10.99" height="3.28" transform="translate(-78.71 449.71) rotate(-72.68)"/><rect class="cls-3" x="272.1" y="279.02" width="10.99" height="3.28" transform="translate(-72.93 462.21) rotate(-72.69)"/><rect class="cls-3" x="283.38" y="281.32" width="10.99" height="3.28" transform="translate(-67.27 474.47) rotate(-72.68)"/><rect class="cls-3" x="294.65" y="283.62" width="10.99" height="3.28" transform="translate(-61.49 486.97) rotate(-72.69)"/><rect class="cls-3" x="305.93" y="285.93" width="10.99" height="3.28" transform="translate(-55.77 499.34) rotate(-72.69)"/><rect class="cls-3" x="317.21" y="288.23" width="10.99" height="3.28" transform="translate(-50.1 511.63) rotate(-72.68)"/><rect class="cls-3" x="328.48" y="290.53" width="10.99" height="3.28" transform="translate(-44.32 524.11) rotate(-72.69)"/><rect class="cls-3" x="422.12" y="300.82" width="100.71" height="3.28"/><rect class="cls-3" x="542.39" y="300.82" width="101.92" height="3.28"/><rect class="cls-3" x="436.22" y="288.22" width="27.63" height="3.28" transform="translate(1.33 581.77) rotate(-65.83)"/><rect class="cls-3" x="428.41" y="293.78" width="15.36" height="3.28" transform="translate(-9.26 576.68) rotate(-66.39)"/><rect class="cls-3" x="448" y="289" width="25.84" height="3.28" transform="translate(8.98 595.05) rotate(-66.2)"/><rect class="cls-3" x="459.82" y="289.81" width="24.04" height="3.28" transform="translate(15.77 607) rotate(-66.38)"/><rect class="cls-3" x="472.01" y="291.12" width="21.16" height="3.28" transform="translate(21.05 617.69) rotate(-66.39)"/><rect class="cls-3" x="484.21" y="292.46" width="18.25" height="3.28" transform="translate(26.26 628.34) rotate(-66.39)"/><rect class="cls-3" x="496.46" y="293.86" width="15.18" height="3.28" transform="translate(31.39 638.99) rotate(-66.39)"/><rect class="cls-3" x="624.25" y="280.75" width="3.28" height="22.66" transform="translate(-64.59 275.07) rotate(-23.61)"/><rect class="cls-3" x="613.05" y="281.54" width="3.28" height="21.84" transform="translate(-65.75 272.94) rotate(-23.8)"/><rect class="cls-3" x="602.01" y="282.71" width="3.28" height="20.61" transform="translate(-66.82 266.25) rotate(-23.61)"/><rect class="cls-3" x="591" y="284.23" width="3.28" height="19.03" transform="translate(-68.03 261.89) rotate(-23.61)"/><rect class="cls-3" x="579.94" y="285.52" width="3.28" height="17.68" transform="translate(-69.21 257.53) rotate(-23.61)"/><rect class="cls-3" x="569.12" y="287.91" width="3.28" height="15.18" transform="matrix(0.92, -0.4, 0.4, 0.92, -70.58, 253.36)"/><rect class="cls-3" x="558.42" y="290.94" width="3.28" height="12.02" transform="matrix(0.92, -0.4, 0.4, 0.92, -72.05, 249.14)"/><rect class="cls-3" x="547.53" y="292.58" width="3.28" height="10.31" transform="translate(-73.28 244.89) rotate(-23.61)"/><path class="cls-3" d="M374.39,264.17a1.09,1.09,0,0,1-1.09-1.09c0-126.38-30.75-238.39-31.06-239.51a1.09,1.09,0,0,1,2.11-.59c.31,1.12,31.14,113.42,31.14,240.09A1.09,1.09,0,0,1,374.39,264.17Z"/><path class="cls-3" d="M384.78,264.64h-.15a1.09,1.09,0,0,1-.94-1.23c14.58-106.74,3.16-223.51,3-224.68a1.09,1.09,0,1,1,2.18-.22c.12,1.17,11.55,118.2-3.06,225.19A1.1,1.1,0,0,1,384.78,264.64Z"/><path class="cls-3" d="M395.71,267.6a1.06,1.06,0,0,1-.32,0,1.09,1.09,0,0,1-.73-1.36c28.59-93.59,29.65-206.72,29.66-207.85a1.09,1.09,0,0,1,1.09-1.09h0a1.09,1.09,0,0,1,1.08,1.1c0,1.13-1.06,114.57-29.75,208.48A1.09,1.09,0,0,1,395.71,267.6Z"/><path class="cls-3" d="M406.1,270.64a1.09,1.09,0,0,1-1-1.5C450,157.73,456.92,82.17,457,81.42a1.09,1.09,0,1,1,2.18.19c-.06.75-7,76.64-52,188.35A1.09,1.09,0,0,1,406.1,270.64Z"/><path class="cls-3" d="M414.3,275.29a1.09,1.09,0,0,1-.9-1.71c55-79.71,72.19-165.16,72.35-166a1.09,1.09,0,0,1,2.15.42c-.17.86-17.45,86.75-72.7,166.84A1.1,1.1,0,0,1,414.3,275.29Z"/><path class="cls-3" d="M419.95,280.18a1.09,1.09,0,0,1-.82-1.81c.79-.91,79.12-91.07,94.35-138.9a1.09,1.09,0,1,1,2.08.66c-15.36,48.26-94,138.77-94.78,139.68A1.09,1.09,0,0,1,419.95,280.18Z"/><path class="cls-3" d="M425.42,287.05a1.63,1.63,0,0,1-1.18-.5c-27.42-28.42-59.48-19.55-59.8-19.46a1.64,1.64,0,0,1-.91-3.15c.34-.1,34.29-9.5,63.07,20.33a1.64,1.64,0,0,1-1.18,2.78Z"/><path class="cls-3" d="M677,284.67a1.1,1.1,0,0,1-1.09-1.06A508.21,508.21,0,0,1,683,182.45c4.25-24.13,8.85-38.21,8.9-38.35a1.09,1.09,0,1,1,2.08.69c-.18.55-18.23,56.29-15.89,138.76a1.1,1.1,0,0,1-1.06,1.13Z"/><path class="cls-3" d="M662.81,323.62a1.64,1.64,0,0,1-1.16-.49c-63.3-63.84-113.83-129.07-114.33-129.72a1.64,1.64,0,0,1,.38-2.36,288,288,0,0,1,150.2-48.75c40.52-1.45,68.11,6.18,68.39,6.26a1.64,1.64,0,0,1,1,2.32l-86,168.76a1.64,1.64,0,1,1-2.92-1.49l85.08-166.93c-6.91-1.66-31.62-6.86-65.56-5.64A284.73,284.73,0,0,0,551,192.79c7.66,9.78,54.94,69.49,113,128a1.64,1.64,0,0,1-1.17,2.8Z"/><path class="cls-3" d="M669.07,284.67a1.09,1.09,0,0,1-1-.78c-16.63-55-11.94-133-11.89-133.82a1.11,1.11,0,0,1,1.16-1,1.09,1.09,0,0,1,1,1.16c0,.78-4.71,78.4,11.8,133.05a1.09,1.09,0,0,1-1,1.41Z"/><path class="cls-3" d="M662.81,288.15a1.1,1.1,0,0,1-1-.58c-28.76-54-39.07-130.23-39.17-131a1.09,1.09,0,1,1,2.17-.29c.1.76,10.36,76.59,38.94,130.25a1.09,1.09,0,0,1-1,1.61Z"/><path class="cls-3" d="M656,291.46a1.09,1.09,0,0,1-.9-.46c-42.86-60.57-63.32-122-63.52-122.57a1.09,1.09,0,1,1,2.08-.68c.2.61,20.57,61.7,63.23,122a1.09,1.09,0,0,1-.89,1.72Z"/><path class="cls-3" d="M650,297.14a1.64,1.64,0,0,1-1.29-2.65c.14-.18,14.65-18.17,42-7.47a1.64,1.64,0,1,1-1.2,3.05c-25.07-9.82-38.06,6.28-38.19,6.44A1.64,1.64,0,0,1,650,297.14Z"/><path class="cls-3" d="M239.36,270.74h-.07a1.09,1.09,0,0,1-1-1.16q.39-6.38.77-12.5c3.4-54.36,5.85-93.64-7.5-154.24a1.09,1.09,0,0,1,2.14-.47c13.42,60.91,11,100.31,7.55,154.85q-.38,6.12-.77,12.49A1.09,1.09,0,0,1,239.36,270.74Z"/><path class="cls-3" d="M243.32,270.64h-.15a1.09,1.09,0,0,1-.93-1.23C248.55,224.11,255.63,156,259,123.28c1.48-14.26,2-18.92,2.1-19.44a1.09,1.09,0,0,1,2.13.5c-.13.66-.94,8.43-2.05,19.17-3.4,32.74-10.49,100.87-16.81,146.19A1.09,1.09,0,0,1,243.32,270.64Z"/><path class="cls-3" d="M247.7,271.38l-.23,0a1.09,1.09,0,0,1-.84-1.3c12.37-56.56,27.05-108.5,43.65-154.39.92-2.54,1.65-4.55,1.71-4.91a1.08,1.08,0,0,1,1.19-1,1.11,1.11,0,0,1,1,1.21c0,.43-.31,1.21-1.83,5.41-16.56,45.8-31.22,97.65-43.57,154.11A1.09,1.09,0,0,1,247.7,271.38Z"/><path class="cls-3" d="M251.14,272.77a1.08,1.08,0,0,1-.35-.06,1.1,1.1,0,0,1-.69-1.39c23.91-70.54,56.89-128.27,70-149.82l.6-1,.93.51,1.09-.33c.15.48.15.48-.75,2C308.9,144.13,276,201.7,252.17,272A1.09,1.09,0,0,1,251.14,272.77Z"/><path class="cls-3" d="M254.51,276.36a1.64,1.64,0,0,1-1.21-.53c-6.66-7.3-17.86-3.48-18-3.44a1.64,1.64,0,0,1-1.09-3.09c.54-.19,13.35-4.6,21.49,4.32a1.64,1.64,0,0,1-1.21,2.75Z"/><path class="cls-3" d="M151.62,265.27a1.64,1.64,0,0,1-1.14-.47c-8.42-8.2-19.24-3.17-19.7-3a1.64,1.64,0,0,1-1.42-3c.13-.06,13.32-6.27,23.41,3.56a1.64,1.64,0,0,1-1.14,2.81Z"/><path class="cls-3" d="M133.22,260.37a1.09,1.09,0,0,1-1.09-1c-4.5-79.94-23-108-23.23-108.26a1.09,1.09,0,0,1,1.81-1.23c.78,1.14,19.07,28.83,23.6,109.37a1.09,1.09,0,0,1-1,1.15Z"/><path class="cls-3" d="M147.64,261.76a1.09,1.09,0,0,1-1.06-1.38c10.49-39,24.77-64.12,34.89-78.3,11-15.43,19.46-21.52,19.81-21.77a1.09,1.09,0,0,1,1.27,1.78c-.34.24-34,24.94-53.86,98.85A1.1,1.1,0,0,1,147.64,261.76Z"/><path class="cls-3" d="M137.67,259.65h-.13a1.09,1.09,0,0,1-1-1.21c7.36-62.62,1.66-109.09,1.6-109.55a1.09,1.09,0,0,1,2.17-.27c.06.47,5.79,47.2-1.6,110.08A1.09,1.09,0,0,1,137.67,259.65Z"/><path class="cls-3" d="M142.85,260l-.2,0a1.09,1.09,0,0,1-.87-1.28l.31-1.64c6.39-34.19,12.42-66.48,28.27-105.16a1.09,1.09,0,1,1,2,.83c-15.76,38.47-21.78,70.65-28.14,104.73l-.31,1.64A1.09,1.09,0,0,1,142.85,260Z"/><path class="cls-3" d="M850.41,314.65a1.09,1.09,0,0,1-.95-1.64c35.4-61.77,83.55-104.06,84-104.48a1.09,1.09,0,0,1,1.44,1.65c-.48.42-48.37,42.48-83.58,103.92A1.09,1.09,0,0,1,850.41,314.65Z"/><path class="cls-3" d="M843.22,312.43a1,1,0,0,1-.25,0,1.09,1.09,0,0,1-.82-1.31c11-47.34,36.41-95.67,36.67-96.16a1.09,1.09,0,1,1,1.93,1c-.25.48-25.51,48.57-36.47,95.63A1.09,1.09,0,0,1,843.22,312.43Z"/><path class="cls-3" d="M835.5,312.69a1.09,1.09,0,0,1-1.09-1c-2.53-44.34,3.54-85.49,3.6-85.9a1.09,1.09,0,1,1,2.16.32c-.06.41-6.1,41.35-3.59,85.46a1.09,1.09,0,0,1-1,1.15Z"/><path class="cls-3" d="M858,320.53a1.63,1.63,0,0,1-1.15-.47c-12.26-12.15-27.61-4.93-27.76-4.86a1.64,1.64,0,1,1-1.43-3c.17-.09,17.61-8.29,31.5,5.48a1.64,1.64,0,0,1-1.16,2.8Z"/><path class="cls-12" d="M679.82,318.89"/><path class="cls-2" d="M744.51,320s-26.79-74-49.75-100.79c0,0,36.08-2.73,101.69,21.87L759.27,320"/><path class="cls-8" d="M744.51,321.62a1.64,1.64,0,0,1-1.54-1.08c-.27-.74-27-74-49.45-100.28a1.64,1.64,0,0,1,1.12-2.7c1.49-.11,37.19-2.48,102.39,22a1.64,1.64,0,0,1,.91,2.24l-37.18,78.92a1.64,1.64,0,0,1-3-1.4L794.21,242c-32.85-12.18-57.93-17.29-73.27-19.43a168.08,168.08,0,0,0-22.78-1.8c9.15,11.66,19.77,31.22,31.6,58.23,9.48,21.65,16.24,40.26,16.3,40.45a1.64,1.64,0,0,1-1,2.1A1.66,1.66,0,0,1,744.51,321.62Z"/><g class="cls-10"><path class="cls-6" d="M742.7,315.11s-20-57.82-36.3-76.63c0,0,44.49-.15,70.81,13.94l-23.41,62.44Z"/></g><polygon class="cls-9" points="753.81 319.98 783.26 236.35 796.45 241.07 758.18 321.98 753.81 319.98"/><path class="cls-3" d="M753.81,321.62a1.64,1.64,0,0,1-1.55-2.18l29.45-83.64a1.64,1.64,0,1,1,3.09,1.09l-29.45,83.64A1.64,1.64,0,0,1,753.81,321.62Z"/><path class="cls-3" d="M748.34,320a1.09,1.09,0,0,1-1.08-.93c-10.42-70.66-26.36-97.21-26.52-97.47a1.09,1.09,0,0,1,1.86-1.14c.16.26,16.33,27.2,26.82,98.3a1.09,1.09,0,0,1-.92,1.24Z"/><path class="cls-9" d="M352.51,201.94s-8.48,65.77,4.93,116.95l-4.93.36C323.3,254.19,343.29,157,343.29,157Z"/><path class="cls-3" d="M750.89,321.07h-.16a1.1,1.1,0,0,1-.93-1.24c5.39-37.73,2.93-90,2.91-90.54a1.09,1.09,0,1,1,2.18-.11c0,.53,2.49,53-2.93,91A1.09,1.09,0,0,1,750.89,321.07Z"/><path class="cls-3" d="M352.51,320.89a1.64,1.64,0,0,1-1.49-1c-29.09-64.79-9.54-162.23-9.33-163.2a1.64,1.64,0,0,1,1.61-1.31h0a1.64,1.64,0,0,1,1.61,1.31l9.22,44.89a1.66,1.66,0,0,1,0,.56c-.08.58-8.28,59.11,4.9,116.35a1.64,1.64,0,0,1-1.48,2l-4.93.36Zm-9.09-155.07c-4,24.81-13,99,10.13,151.71l1.87-.14c-12.26-55.16-5.18-110.88-4.57-115.4Z"/><path class="cls-3" d="M220.52,299.79c-4.69-55.87,10.14-95.12,10.29-95.51l3.06,1.18c-.15.38-14.71,39-10.08,94.06Z"/><path class="cls-3" d="M528.3,280.44a1.11,1.11,0,0,1-.4-.08c-29.56-11.67-60.41-16.15-60.71-16.2a1.09,1.09,0,1,1,.31-2.17c.31,0,31.41,4.57,61.21,16.33a1.09,1.09,0,0,1-.4,2.11Z"/><path class="cls-3" d="M532,264.78a1.09,1.09,0,0,1-.42-.08c-16.89-7-35.65-11.3-48.41-13.67a1.09,1.09,0,0,1,.4-2.15c12.87,2.38,31.79,6.71,48.85,13.8a1.09,1.09,0,0,1-.42,2.1Z"/><path class="cls-3" d="M539.26,233.55a1.12,1.12,0,0,1-.39-.07,226.2,226.2,0,0,0-26.26-8.15,1.09,1.09,0,0,1,.53-2.12,228.3,228.3,0,0,1,26.52,8.23,1.09,1.09,0,0,1-.39,2.11Z"/><path class="cls-3" d="M535.66,248.94a1.11,1.11,0,0,1-.39-.07A243.67,243.67,0,0,0,498.05,238a1.09,1.09,0,0,1,.44-2.14,246.37,246.37,0,0,1,37.56,10.93,1.09,1.09,0,0,1-.39,2.11Z"/><path class="cls-3" d="M542.89,218a1.08,1.08,0,0,1-.38-.07c-5-1.87-10.54-3.65-16.34-5.29a1.09,1.09,0,0,1,.59-2.1c5.86,1.66,11.41,3.46,16.51,5.35a1.09,1.09,0,0,1-.38,2.12Z"/><path class="cls-3" d="M544.34,280.51a1.09,1.09,0,0,1-.32-2.14c30.65-9.33,66.33-11.83,66.69-11.86a1.09,1.09,0,0,1,.15,2.18c-.35,0-35.8,2.51-66.2,11.77A1.08,1.08,0,0,1,544.34,280.51Z"/><path class="cls-3" d="M544.34,265a1.09,1.09,0,0,1-.33-2.13c21.31-6.9,48.14-9.9,53.31-10.43a1.09,1.09,0,0,1,.22,2.18c-5.12.53-31.76,3.51-52.86,10.34A1.1,1.1,0,0,1,544.34,265Z"/><path class="cls-3" d="M546.58,233.34a1.09,1.09,0,0,1-.31-2.14c9.05-2.67,20.68-4.6,29.18-6l.38-.06a1.09,1.09,0,0,1,.36,2.16l-.38.06c-8.44,1.4-20,3.32-28.92,6A1.06,1.06,0,0,1,546.58,233.34Z"/><path class="cls-3" d="M545.08,248.51a1.09,1.09,0,0,1-.31-2.14c12.95-3.83,32.3-7.89,42.65-7.89a1.09,1.09,0,0,1,0,2.19c-10.15,0-29.23,4-42,7.8A1.06,1.06,0,0,1,545.08,248.51Z"/><path class="cls-3" d="M548.61,218a1.09,1.09,0,0,1-.3-2.15c5.21-1.47,10.89-2.82,16.88-4a1.09,1.09,0,1,1,.42,2.15c-5.93,1.17-11.56,2.51-16.71,4A1.07,1.07,0,0,1,548.61,218Z"/><path class="cls-3" d="M844,336.75H826.52a1.64,1.64,0,0,1-1.56-1.14l-30.07-94a1.64,1.64,0,0,1,.81-2c.63-.32,64.29-32.54,158.87-32.54,7.79,0,15.69.22,23.48.65a1.64,1.64,0,0,1,.87,3c-.73.53-73.8,53.76-133.65,125.47A1.64,1.64,0,0,1,844,336.75Zm-16.3-3.28h15.53c52.32-62.52,114.48-110.94,130.07-122.7-6.24-.28-12.53-.42-18.75-.42-86.5,0-146.84,27.13-156.13,31.57Z"/><path class="cls-3" d="M744.51,321.62a1.64,1.64,0,0,1-1.54-1.08c-.27-.74-27-74-49.45-100.28a1.64,1.64,0,0,1,1.12-2.7c1.49-.11,37.19-2.48,102.39,22a1.64,1.64,0,0,1,.91,2.24l-37.18,78.92a1.64,1.64,0,0,1-3-1.4L794.21,242c-32.85-12.18-57.93-17.29-73.27-19.43a168.08,168.08,0,0,0-22.78-1.8c9.15,11.66,19.77,31.22,31.6,58.23,9.48,21.65,16.24,40.26,16.3,40.45a1.64,1.64,0,0,1-1,2.1A1.66,1.66,0,0,1,744.51,321.62Z"/><path class="cls-3" d="M232.61,307.77A1.64,1.64,0,0,1,231,306c12-136-27.12-199.48-27.52-200.11a1.64,1.64,0,0,1,1.18-2.51,248.67,248.67,0,0,1,31.15-2c63.4,0,101.2,25.79,101.58,26a1.64,1.64,0,0,1,.66,1l3.34,13.44a1.64,1.64,0,0,1-.56,1.67c-.68.55-67.92,56.05-92.2,161.37a1.64,1.64,0,0,1-1.41,1.26l-14.4,1.64Zm-25.1-201.45c3,5.4,10.63,20.71,17.38,47,7.69,30,15.53,80.38,9.53,150.92L245.67,303a331.67,331.67,0,0,1,55.66-120.8c17.54-23.72,33-37.47,36.6-40.58L335,129.78c-4.63-3-40.82-25.13-99.2-25.13A244.59,244.59,0,0,0,207.51,106.32Z"/><path class="cls-3" d="M146.41,281H131.65a1.64,1.64,0,0,1-1.63-1.45c-7.52-65.32-46.88-122.24-47.28-122.8a1.64,1.64,0,0,1,.91-2.52,192,192,0,0,1,51.43-7.11c55,0,92,24.61,92.35,24.86a1.64,1.64,0,0,1-.11,2.78c-59.68,34-79.13,104.32-79.32,105A1.64,1.64,0,0,1,146.41,281Zm-13.3-3.28h12.07c2.86-9.47,23.44-71.8,78.14-104.43-8.72-5.18-42-22.9-88.25-22.9a188.37,188.37,0,0,0-48.35,6.39C93.61,167.23,125.92,218.92,133.11,277.7Z"/><path class="cls-3" d="M371.11,321.33a1.64,1.64,0,0,1-1.63-1.5c-.13-1.48-13.38-150.26-68.43-302.09a1.64,1.64,0,0,1,1.57-2.2c.39,0,9.8.17,25.45,3.08a282.63,282.63,0,0,1,62.85,19.84A312.56,312.56,0,0,1,471.59,91c30.6,27.33,57.12,61.34,78.82,101.08a1.64,1.64,0,0,1-.36,2L404.26,320.93a1.64,1.64,0,0,1-2.15-2.47l144.79-126c-21.4-38.91-47.47-72.23-77.49-99a309.34,309.34,0,0,0-79.83-52C347.72,22.75,314,19.49,305,18.93c54.5,151.44,67.65,299.14,67.78,300.62a1.64,1.64,0,0,1-1.49,1.77Z"/><rect class="cls-3" x="773.52" y="297.62" width="14.08" height="3.28" transform="translate(204.93 905.46) rotate(-67.46)"/><rect class="cls-3" x="786.06" y="298.03" width="12.24" height="3.28" transform="translate(412.27 1056.66) rotate(-84.07)"/><rect class="cls-3" x="802.05" y="293.55" width="3.28" height="12.26" transform="translate(-28.41 91.53) rotate(-6.41)"/><polygon class="cls-13" points="982.38 330.73 827.11 330.73 759.87 314.87 353.11 314.87 287.28 296.99 233.2 296.99 155.53 277.22 128.89 277.22 103.27 291.36 61.17 291.36 61.17 387.04 1030.15 387.04 1030.15 347.31 982.38 330.73"/><path class="cls-3" d="M1030.15,388.68h-969A1.64,1.64,0,0,1,59.53,387V291.36a1.64,1.64,0,0,1,1.64-1.64h41.67l25.25-13.93a1.64,1.64,0,0,1,.79-.2h26.64a1.67,1.67,0,0,1,.41.05l77.47,19.71h53.87a1.66,1.66,0,0,1,.43.06l65.62,17.83H759.87a1.64,1.64,0,0,1,.38,0l67.06,15.82H982.38a1.65,1.65,0,0,1,.54.09l47.78,16.58a1.64,1.64,0,0,1,1.1,1.55V387A1.64,1.64,0,0,1,1030.15,388.68ZM62.81,385.4h965.7V348.48L982.1,332.37h-155a1.69,1.69,0,0,1-.38,0l-67.06-15.82H353.11a1.64,1.64,0,0,1-.43-.06l-65.62-17.83H233.2a1.66,1.66,0,0,1-.4,0l-77.47-19.71h-26L104.06,292.8a1.64,1.64,0,0,1-.79.2H62.81Z"/><g class="cls-14"><polyline class="cls-15" points="60.58 310.86 60.58 378.29 173.71 378.29 126.84 335.76 105.49 335.55 60.58 306.13 60.58 310.86"/><path class="cls-15" d="M176.54,379.38H59.49V304.1l46.33,30.36,21.45.22ZM61.67,377.2h109.2l-44.46-40.35-21.26-.21L61.67,308.15Z"/></g><g class="cls-14"><polyline class="cls-15" points="448.06 349.92 448.06 377.62 486.51 377.62 458.35 364.87 448.06 349.92"/><path class="cls-15" d="M494.1,379.26H446.42V344.65l13,18.91ZM449.7,376h29.21l-21.66-9.81-7.55-11Z"/></g><g class="cls-14"><polyline class="cls-15" points="496.93 350.11 496.93 377.81 535.38 377.81 507.22 365.05 496.93 350.11"/><path class="cls-15" d="M543,379.45H495.29V344.83l13,18.91Zm-44.4-3.28h29.21l-21.66-9.81-7.55-11Z"/></g><g class="cls-14"><polyline class="cls-15" points="545.17 349.92 545.17 377.62 583.62 377.62 555.46 364.87 545.17 349.92"/><path class="cls-15" d="M591.21,379.26H543.53V344.65l13,18.91ZM546.81,376H576l-21.65-9.81-7.55-11Z"/></g><g class="cls-14"><polyline class="cls-15" points="593.95 349.92 593.95 377.62 632.39 377.62 604.23 364.87 593.95 349.92"/><path class="cls-15" d="M640,379.26H592.31V344.65l13,18.91ZM595.59,376H624.8l-21.66-9.81-7.55-11Z"/></g><g class="cls-14"><polyline class="cls-15" points="827.11 341.94 982.38 341.94 1030.15 356.97 1030.15 364.49 982.38 349.45 830.39 349.45 827.11 341.94"/><path class="cls-15" d="M1031.79,366.72l-49.67-15.63H829.32l-4.72-10.8h158l49.16,15.47ZM831.47,347.81H982.63l45.88,14.44v-4.08l-46.39-14.6H829.62Z"/></g><g class="cls-14"><polyline class="cls-15" points="642.36 349.96 642.36 377.66 661.22 377.66 642.36 349.96"/><path class="cls-15" d="M664.32,379.3h-23.6V344.64ZM644,376h14.12L644,355.28Z"/></g><g class="cls-14"><polygon class="cls-15" points="352.51 378.29 286.69 378.29 286.69 296.99 352.51 314.87 352.51 378.29"/></g><g class="cls-14"><polygon class="cls-15" points="484.03 336.01 368.49 336.01 365.62 331.82 481.15 331.82 484.03 336.01"/><path class="cls-15" d="M484,337.1H368.49a1.09,1.09,0,0,1-.9-.48l-2.87-4.19a1.09,1.09,0,0,1,.9-1.71H481.16a1.1,1.1,0,0,1,.9.48l2.77,4a1.1,1.1,0,0,1-.78,1.87Zm-115-2.19H482l-1.38-2H367.7Z"/></g><g class="cls-14"><polygon class="cls-15" points="745.61 336.01 630.07 336.01 627.2 331.82 742.73 331.82 745.61 336.01"/><path class="cls-15" d="M745.63,337.1H630.07a1.09,1.09,0,0,1-.9-.48l-2.87-4.19a1.09,1.09,0,0,1,.9-1.71H742.73a1.1,1.1,0,0,1,.9.48l2.77,4a1.1,1.1,0,0,1-.78,1.87Zm-115-2.19H743.53l-1.37-2H629.27Z"/></g><g class="cls-14"><polygon class="cls-15" points="276.8 326.17 223.24 326.17 220.37 321.98 273.93 321.98 276.8 326.17"/><path class="cls-15" d="M276.83,327.27H223.24a1.09,1.09,0,0,1-.9-.48l-2.87-4.19a1.09,1.09,0,0,1,.9-1.71h53.56a1.1,1.1,0,0,1,.9.47l2.77,4a1.1,1.1,0,0,1-.78,1.86Zm-53-2.19h50.91l-1.37-2H222.44Z"/></g><path class="cls-3" d="M1030.15,388.68h-969A1.64,1.64,0,0,1,59.53,387V291.36a1.64,1.64,0,0,1,1.64-1.64h41.67l25.25-13.93a1.64,1.64,0,0,1,.79-.2h26.64a1.67,1.67,0,0,1,.41.05l77.47,19.71h53.87a1.66,1.66,0,0,1,.43.06l65.62,17.83H759.87a1.64,1.64,0,0,1,.38,0l67.06,15.82H982.38a1.65,1.65,0,0,1,.54.09l47.78,16.58a1.64,1.64,0,0,1,1.1,1.55V387A1.64,1.64,0,0,1,1030.15,388.68ZM62.81,385.4h965.7V348.48L982.1,332.37h-155a1.69,1.69,0,0,1-.38,0l-67.06-15.82H353.11a1.64,1.64,0,0,1-.43-.06l-65.62-17.83H233.2a1.66,1.66,0,0,1-.4,0l-77.47-19.71h-26L104.06,292.8a1.64,1.64,0,0,1-.79.2H62.81Z"/><polyline class="cls-13" points="26.68 378.29 26.68 340.75 44.54 340.75 44.54 315.97 60.58 315.97 102.13 342.99 125.5 343.23 163.75 378.29"/><path class="cls-3" d="M163.75,379.93a1.63,1.63,0,0,1-1.11-.43l-37.78-34.64-22.74-.23a1.64,1.64,0,0,1-.88-.26L60.09,317.61H46.18v23.15a1.64,1.64,0,0,1-1.64,1.64H28.33v35.9a1.64,1.64,0,0,1-3.28,0V340.75a1.64,1.64,0,0,1,1.64-1.64H42.9V316a1.64,1.64,0,0,1,1.64-1.64h16a1.64,1.64,0,0,1,.89.26l41.15,26.76,22.89.23a1.64,1.64,0,0,1,1.09.43l38.25,35.07a1.64,1.64,0,0,1-1.11,2.85Z"/><rect class="cls-13" x="1.64" y="378.29" width="1050.09" height="25.15"/><path class="cls-3" d="M1051.73,405.08H1.64A1.64,1.64,0,0,1,0,403.44V378.29a1.64,1.64,0,0,1,1.64-1.64H1051.73a1.64,1.64,0,0,1,1.64,1.64v25.15A1.64,1.64,0,0,1,1051.73,405.08ZM3.28,401.8H1050.09V379.93H3.28Z"/><path class="cls-2" d="M908.82,157.56a7.81,7.81,0,0,0-10.4-7.37,10.67,10.67,0,0,0-15.81-9.28,16.2,16.2,0,0,0-31.9-1,8,8,0,0,0-10.34,7.66c0,.1,0,.2,0,.3a10.58,10.58,0,0,0-14.89,9.66h0a1.78,1.78,0,0,0,1.78,1.78H907a1.78,1.78,0,0,0,1.78-1.78Z"/><path class="cls-16" d="M907,161H827.28a3.43,3.43,0,0,1-3.42-3.42,12.22,12.22,0,0,1,15.06-11.89,9.67,9.67,0,0,1,9.46-7.72,9.79,9.79,0,0,1,1.13.07,17.84,17.84,0,0,1,34.3.58,12.31,12.31,0,0,1,16.07,9.57,9.29,9.29,0,0,1,1.12-.07,9.47,9.47,0,0,1,9.46,9.45A3.42,3.42,0,0,1,907,161Zm-71-12.36a9,9,0,0,0-8.94,8.94.14.14,0,0,0,.14.14H907a.14.14,0,0,0,.14-.14,6.17,6.17,0,0,0-8.22-5.83,1.64,1.64,0,0,1-2.18-1.54,9,9,0,0,0-13.38-7.85,1.64,1.64,0,0,1-2.41-1.2,14.56,14.56,0,0,0-28.67-.87,1.64,1.64,0,0,1-2.09,1.24A6.37,6.37,0,0,0,842,147.6v.23a1.64,1.64,0,0,1-2.31,1.57A8.84,8.84,0,0,0,836.08,148.63Z"/><path class="cls-2" d="M583.63,83.49A11.63,11.63,0,0,0,561,78.28a7.42,7.42,0,0,0-11.63,6.1,7.52,7.52,0,0,0,.32,2.15l-.32,0a5.29,5.29,0,0,0-5.29,5.29A1.15,1.15,0,0,0,545.26,93h44.91a1.15,1.15,0,0,0,1.15-1.15A8.34,8.34,0,0,0,583.63,83.49Z"/><path class="cls-16" d="M590.17,94.6H545.26a2.8,2.8,0,0,1-2.8-2.79,6.94,6.94,0,0,1,5.32-6.74c0-.23,0-.45,0-.68A9.06,9.06,0,0,1,560.17,76a13.28,13.28,0,0,1,25.25,5.74c0,.14,0,.28,0,.42A10,10,0,0,1,593,91.8,2.8,2.8,0,0,1,590.17,94.6Zm-44.4-3.28h43.89a6.73,6.73,0,0,0-6.16-6.19,1.64,1.64,0,0,1-1.5-1.88,9.78,9.78,0,0,0,.13-1.53,10,10,0,0,0-19.54-2.94,1.64,1.64,0,0,1-2.5.87A5.77,5.77,0,0,0,551,84.38a5.94,5.94,0,0,0,.25,1.68,1.64,1.64,0,0,1-1.66,2.11h-.14A3.68,3.68,0,0,0,545.78,91.31Z"/><path class="cls-2" d="M111.13,112.88a11.63,11.63,0,0,0-22.6-5.21,7.42,7.42,0,0,0-11.63,6.1,7.49,7.49,0,0,0,.32,2.15l-.32,0a5.29,5.29,0,0,0-5.29,5.29,1.15,1.15,0,0,0,1.16,1.15h44.91a1.15,1.15,0,0,0,1.15-1.15A8.34,8.34,0,0,0,111.13,112.88Z"/><path class="cls-16" d="M117.67,124H72.76a2.8,2.8,0,0,1-2.8-2.79,6.94,6.94,0,0,1,5.32-6.74c0-.23,0-.45,0-.68a9.06,9.06,0,0,1,12.42-8.41,13.28,13.28,0,0,1,25.25,5.74c0,.14,0,.28,0,.42a10,10,0,0,1,7.55,9.68A2.8,2.8,0,0,1,117.67,124ZM73.28,120.7h43.89a6.73,6.73,0,0,0-6.16-6.19,1.64,1.64,0,0,1-1.5-1.88,10,10,0,0,0-19.41-4.48,1.64,1.64,0,0,1-2.5.87,5.78,5.78,0,0,0-9.06,4.75,5.88,5.88,0,0,0,.25,1.68,1.64,1.64,0,0,1-.29,1.49,1.61,1.61,0,0,1-1.38.62H76.9A3.66,3.66,0,0,0,73.28,120.7Z"/><path class="cls-2" d="M220.37,53.13H179.83a11.26,11.26,0,0,1-.1-1.39,10.93,10.93,0,0,1,17.22-8.95c0-7,5.38-12.7,12-12.7a12,12,0,0,1,10.9,7.44,7.77,7.77,0,0,1,12.75.91,12.27,12.27,0,0,1,22.07,5.15h.18a9.55,9.55,0,0,1,9.55,9.55h-44"/><path class="cls-16" d="M264.43,54.77h-84.6a1.64,1.64,0,0,1-1.63-1.44,12.87,12.87,0,0,1-.11-1.59,12.58,12.58,0,0,1,17.46-11.59,13.88,13.88,0,0,1,13.4-11.69,13.5,13.5,0,0,1,11.34,6.4,9.4,9.4,0,0,1,12.38,1A13.91,13.91,0,0,1,256,42a11.21,11.21,0,0,1,10,10.84,1.77,1.77,0,0,1,0,.29A1.64,1.64,0,0,1,264.43,54.77Zm-83.05-3.28H262.6a7.92,7.92,0,0,0-7.74-6.27h-.12a1.65,1.65,0,0,1-1.68-1.37,10.63,10.63,0,0,0-19.12-4.46,1.62,1.62,0,0,1-1.4.68,1.64,1.64,0,0,1-1.34-.8,6.13,6.13,0,0,0-10.07-.72,1.64,1.64,0,0,1-2.78-.38,10.37,10.37,0,0,0-9.4-6.45c-5.7,0-10.34,5-10.36,11.06A1.64,1.64,0,0,1,196,44.13a9.29,9.29,0,0,0-14.63,7.35Z"/><circle class="cls-17" cx="706.4" cy="26.41" r="24.77"/><path class="cls-18" d="M706.4,52.82a26.41,26.41,0,1,1,26.41-26.41A26.44,26.44,0,0,1,706.4,52.82Zm0-49.54a23.13,23.13,0,1,0,23.13,23.13A23.16,23.16,0,0,0,706.4,3.28Z"/><path class="cls-2" d="M725.35,46.8a7.1,7.1,0,0,0-3.35.84,10.84,10.84,0,1,0-20.67-6.58,6.18,6.18,0,0,0-8.42.21A17.08,17.08,0,0,0,690.74,38a11.19,11.19,0,0,0-13-2.84,18,18,0,0,0-35.31,3.05,9.79,9.79,0,0,0-14.29,8.66h0a7.1,7.1,0,0,0-7.1,7.1,1.57,1.57,0,0,0,1.57,1.58H730.9a1.58,1.58,0,0,0,1.58-1.58A7.13,7.13,0,0,0,725.35,46.8Z"/><path class="cls-16" d="M730.9,57.15H622.66a3.22,3.22,0,0,1-3.21-3.22,8.76,8.76,0,0,1,7.21-8.61,11.43,11.43,0,0,1,14.49-9.44A19.62,19.62,0,0,1,678.84,33a12.68,12.68,0,0,1,2.5-.45A12.87,12.87,0,0,1,692,36.87a16.91,16.91,0,0,1,1.45,2,8,8,0,0,1,7.13-.25,12.49,12.49,0,0,1,23.62,5.67c0,.32,0,.64,0,1a8.9,8.9,0,0,1,1.21-.08,8.78,8.78,0,0,1,8.77,8.77A3.22,3.22,0,0,1,730.9,57.15ZM638,38.72a8.19,8.19,0,0,0-8.16,8.12,1.64,1.64,0,0,1-1.64,1.63,5.47,5.47,0,0,0-5.46,5.46l108.11-.06a5.5,5.5,0,0,0-5.49-5.43,5.44,5.44,0,0,0-2.58.65,1.64,1.64,0,0,1-2.33-2,9.2,9.2,0,1,0-17.54-5.58,1.64,1.64,0,0,1-2.65.74,4.66,4.66,0,0,0-6.19.15,1.64,1.64,0,0,1-2.61-.44,15.6,15.6,0,0,0-1.93-3,9.55,9.55,0,0,0-11.06-2.42,1.64,1.64,0,0,1-2.24-1.08,16.34,16.34,0,0,0-32.09,2.77,1.64,1.64,0,0,1-2.39,1.32A8,8,0,0,0,638,38.72Z"/><rect class="cls-4" x="410.57" y="350.59" width="38.44" height="27.7"/><path class="cls-3" d="M449,379.93H410.57a1.64,1.64,0,0,1-1.64-1.64v-27.7a1.64,1.64,0,0,1,1.64-1.64H449a1.64,1.64,0,0,1,1.64,1.64v27.7A1.64,1.64,0,0,1,449,379.93Zm-36.8-3.28h35.16V352.23H412.21Z"/><rect class="cls-4" x="459.13" y="350.59" width="38.44" height="27.7"/><path class="cls-3" d="M497.58,379.93H459.13a1.64,1.64,0,0,1-1.64-1.64v-27.7a1.64,1.64,0,0,1,1.64-1.64h38.44a1.64,1.64,0,0,1,1.64,1.64v27.7A1.64,1.64,0,0,1,497.58,379.93Zm-36.8-3.28h35.16V352.23H460.77Z"/><rect class="cls-4" x="507.7" y="350.59" width="38.44" height="27.7"/><path class="cls-3" d="M546.14,379.93H507.7a1.64,1.64,0,0,1-1.64-1.64v-27.7A1.64,1.64,0,0,1,507.7,349h38.44a1.64,1.64,0,0,1,1.64,1.64v27.7A1.64,1.64,0,0,1,546.14,379.93Zm-36.8-3.28H544.5V352.23H509.34Z"/><rect class="cls-4" x="556.27" y="350.59" width="38.44" height="27.7"/><path class="cls-3" d="M594.71,379.93H556.27a1.64,1.64,0,0,1-1.64-1.64v-27.7a1.64,1.64,0,0,1,1.64-1.64h38.44a1.64,1.64,0,0,1,1.64,1.64v27.7A1.64,1.64,0,0,1,594.71,379.93Zm-36.8-3.28h35.16V352.23H557.91Z"/><rect class="cls-4" x="604.83" y="350.59" width="38.44" height="27.7"/><path class="cls-3" d="M643.28,379.93H604.83a1.64,1.64,0,0,1-1.64-1.64v-27.7a1.64,1.64,0,0,1,1.64-1.64h38.44a1.64,1.64,0,0,1,1.64,1.64v27.7A1.64,1.64,0,0,1,643.28,379.93Zm-36.8-3.28h35.16V352.23H606.48Z"/><g class="cls-14"><polyline class="cls-15" points="796.62 341.3 796.62 377.66 815.48 377.66 796.62 341.3"/><path class="cls-15" d="M818.18,379.3H795V334.58ZM798.26,376h14.53l-14.53-28Z"/></g><rect class="cls-4" x="759.1" y="341.93" width="38.45" height="36.36"/><path class="cls-3" d="M797.55,379.93H759.1a1.64,1.64,0,0,1-1.64-1.64V341.94a1.64,1.64,0,0,1,1.64-1.64h38.45a1.64,1.64,0,0,1,1.64,1.64v36.36A1.64,1.64,0,0,1,797.55,379.93Zm-36.8-3.28h35.16V343.58H760.74Z"/><g class="cls-14"><polyline class="cls-15" points="235.84 341.3 235.84 377.66 254.7 377.66 235.84 341.3"/><path class="cls-15" d="M257.4,379.3H234.2V334.58ZM237.48,376H252l-14.53-28Z"/></g><rect class="cls-4" x="198.32" y="341.93" width="38.45" height="36.36"/><path class="cls-3" d="M236.76,379.93H198.32a1.64,1.64,0,0,1-1.64-1.64V341.94a1.64,1.64,0,0,1,1.64-1.64h38.45a1.64,1.64,0,0,1,1.64,1.64v36.36A1.64,1.64,0,0,1,236.76,379.93ZM200,376.65h35.16V343.58H200Z"/><g class="cls-14"><rect class="cls-15" x="1.64" y="378.29" width="1050.09" height="8.75"/></g><path class="cls-3" d="M1051.73,405.08H1.64A1.64,1.64,0,0,1,0,403.44V378.29a1.64,1.64,0,0,1,1.64-1.64H1051.73a1.64,1.64,0,0,1,1.64,1.64v25.15A1.64,1.64,0,0,1,1051.73,405.08ZM3.28,401.8H1050.09V379.93H3.28Z"/><rect class="cls-4" x="220.37" y="315.97" width="53.84" height="6.01"/><path class="cls-3" d="M274.2,323.07H220.37a1.09,1.09,0,0,1-1.09-1.09v-6a1.09,1.09,0,0,1,1.09-1.09H274.2A1.09,1.09,0,0,1,275.3,316v6A1.09,1.09,0,0,1,274.2,323.07Zm-52.74-2.19h51.65v-3.83H221.46Z"/><g class="cls-14"><polygon class="cls-15" points="191.97 326.17 138.41 326.17 135.53 321.98 189.1 321.98 191.97 326.17"/><path class="cls-15" d="M192,327.27H138.41a1.09,1.09,0,0,1-.9-.48l-2.87-4.19a1.09,1.09,0,0,1,.9-1.71H189.1a1.1,1.1,0,0,1,.9.47l2.77,4a1.09,1.09,0,0,1-.78,1.86Zm-53-2.19H189.9l-1.37-2H137.61Z"/></g><rect class="cls-4" x="135.53" y="315.97" width="53.84" height="6.01"/><path class="cls-3" d="M189.37,323.07H135.53a1.09,1.09,0,0,1-1.09-1.09v-6a1.09,1.09,0,0,1,1.09-1.09h53.84a1.09,1.09,0,0,1,1.09,1.09v6A1.09,1.09,0,0,1,189.37,323.07Zm-52.75-2.19h51.65v-3.83H136.63Z"/><rect class="cls-4" x="365.62" y="325.81" width="115.81" height="6.01"/><path class="cls-3" d="M481.43,332.91H365.62a1.09,1.09,0,0,1-1.09-1.09v-6a1.09,1.09,0,0,1,1.09-1.09H481.43a1.09,1.09,0,0,1,1.09,1.09v6A1.09,1.09,0,0,1,481.43,332.91Zm-114.71-2.19H480.33V326.9H366.71Z"/><rect class="cls-4" x="627.2" y="325.81" width="115.81" height="6.01"/><path class="cls-3" d="M743,332.91H627.2a1.09,1.09,0,0,1-1.09-1.09v-6a1.09,1.09,0,0,1,1.09-1.09H743a1.09,1.09,0,0,1,1.09,1.09v6A1.09,1.09,0,0,1,743,332.91Zm-114.71-2.19H741.91V326.9H628.29Z"/><path class="cls-3" d="M287.28,379.26a1.64,1.64,0,0,1-1.64-1.64V297a1.64,1.64,0,1,1,3.28,0v80.64A1.64,1.64,0,0,1,287.28,379.26Z"/><path class="cls-3" d="M352.51,379.93a1.64,1.64,0,0,1-1.64-1.64V314.87a1.64,1.64,0,0,1,3.28,0v63.42A1.64,1.64,0,0,1,352.51,379.93Z"/><path class="cls-3" d="M103.27,344.67a1.64,1.64,0,0,1-1.64-1.64V291.36a1.64,1.64,0,1,1,3.28,0V343A1.64,1.64,0,0,1,103.27,344.67Z"/><path class="cls-3" d="M44.42,379.48a1.64,1.64,0,0,1-1.64-1.64V340.75a1.64,1.64,0,1,1,3.28,0v37.09A1.64,1.64,0,0,1,44.42,379.48Z"/><path class="cls-3" d="M1030.15,358.61a1.61,1.61,0,0,1-.49-.08l-47.54-15h-155a1.64,1.64,0,0,1,0-3.28H982.38a1.66,1.66,0,0,1,.49.08l47.78,15a1.64,1.64,0,0,1-.49,3.2Z"/><path class="cls-2" d="M490.78,26.17a10.11,10.11,0,0,0-11.2-10.05,13,13,0,0,0-25.43,3.62c0,.08,0,.15,0,.23a8.43,8.43,0,0,0-10.26,6.75h46.85C490.76,26.53,490.78,26.35,490.78,26.17Z"/><path class="cls-16" d="M490.75,28.35H443.9a1.64,1.64,0,0,1-1.61-1.93A10,10,0,0,1,452.6,18.1a14.61,14.61,0,0,1,28.13-3.69,11.77,11.77,0,0,1,11.69,11.75c0,.15,0,.31,0,.46v.16A1.64,1.64,0,0,1,490.75,28.35Zm-44.59-3.28h42.91a8.49,8.49,0,0,0-8.4-7.38,8.62,8.62,0,0,0-.91,0A1.63,1.63,0,0,1,478,16.57a11.33,11.33,0,0,0-22.21,3.16c0,.08,0,.15,0,.23a1.64,1.64,0,0,1-2,1.6A6.74,6.74,0,0,0,446.16,25.07Z"/><path class="cls-3" d="M961.92,312.69a1.1,1.1,0,0,1-1-.59l-14.58-28a1.09,1.09,0,0,1,1.94-1l14.58,28a1.09,1.09,0,0,1-1,1.6Z"/><path class="cls-3" d="M944.43,312.69a1.09,1.09,0,0,1-1.07-.87l-5.83-28a1.09,1.09,0,1,1,2.14-.45l5.83,28a1.1,1.1,0,0,1-.85,1.29Z"/><path class="cls-3" d="M927.84,312.69h-.12a1.09,1.09,0,0,1-1-1.2l2.92-28a1.08,1.08,0,0,1,1.2-1,1.09,1.09,0,0,1,1,1.2l-2.92,28A1.09,1.09,0,0,1,927.84,312.69Z"/><path class="cls-3" d="M912,312.69a1.09,1.09,0,0,1-1-1.49l10.93-28a1.09,1.09,0,0,1,2,.79L913,312A1.09,1.09,0,0,1,912,312.69Z"/><path class="cls-3" d="M96.94,269.81a1.09,1.09,0,0,1-1-1.62l15.85-28.72a1.09,1.09,0,0,1,1.92,1.06L97.89,269.24A1.1,1.1,0,0,1,96.94,269.81Z"/><path class="cls-3" d="M115.62,269.11h-.13a1.09,1.09,0,0,1-1-1.21l3.28-28a1.09,1.09,0,1,1,2.17.25l-3.28,28A1.1,1.1,0,0,1,115.62,269.11Z"/></g></g></g></svg>