<svg id="Layer_1" data-name="Layer 1" xmlns="http://www.w3.org/2000/svg" viewBox="0 0 950.29 753.76"><defs><style>.cls-1{opacity:0.2;}.cls-10,.cls-11,.cls-12,.cls-13,.cls-14,.cls-15,.cls-17,.cls-18,.cls-19,.cls-2,.cls-27,.cls-28,.cls-29,.cls-3,.cls-31,.cls-32,.cls-33,.cls-34,.cls-5,.cls-6,.cls-7,.cls-8,.cls-9{fill:none;}.cls-10,.cls-11,.cls-12,.cls-13,.cls-14,.cls-2,.cls-27,.cls-28,.cls-3,.cls-31,.cls-32,.cls-33,.cls-5,.cls-6,.cls-7,.cls-8,.cls-9{stroke:#3893d0;stroke-width:4px;}.cls-10,.cls-11,.cls-12,.cls-13,.cls-14,.cls-2,.cls-20,.cls-27,.cls-28,.cls-3,.cls-31,.cls-32,.cls-33,.cls-34,.cls-5,.cls-6,.cls-7,.cls-8,.cls-9{stroke-linecap:round;}.cls-10,.cls-11,.cls-12,.cls-13,.cls-14,.cls-18,.cls-2,.cls-20,.cls-23,.cls-26,.cls-27,.cls-28,.cls-29,.cls-3,.cls-31,.cls-32,.cls-33,.cls-34,.cls-5,.cls-6,.cls-7,.cls-8,.cls-9{stroke-linejoin:round;}.cls-3{stroke-dasharray:7.55 14.16;}.cls-4{fill:#3893d0;}.cls-5{stroke-dasharray:7.75 14.53;}.cls-6{stroke-dasharray:8.05 15.09;}.cls-7{stroke-dasharray:8.43 15.8;}.cls-8{stroke-dasharray:7 13.12;}.cls-9{stroke-dasharray:8 15;}.cls-10{stroke-dasharray:7.77 14.58;}.cls-11{stroke-dasharray:7.8 14.62;}.cls-12{stroke-dasharray:7.4 13.87;}.cls-13{stroke-dasharray:8.25 15.47;}.cls-14{stroke-dasharray:7.53 14.12;}.cls-15,.cls-17,.cls-18,.cls-21,.cls-22,.cls-23,.cls-26,.cls-30,.cls-34{stroke:#073660;}.cls-15,.cls-17,.cls-21,.cls-22,.cls-30{stroke-miterlimit:10;}.cls-15,.cls-18,.cls-22,.cls-23,.cls-26,.cls-29,.cls-34{stroke-width:2px;}.cls-16,.cls-20,.cls-21,.cls-22,.cls-26{fill:#5cbdf2;}.cls-20{stroke:#5cbdf2;}.cls-23,.cls-24,.cls-30{fill:#fff;}.cls-25{fill:#073660;}.cls-27{stroke-dasharray:9.92 18.6;}.cls-28{stroke-dasharray:7.91 14.84;}.cls-29{stroke:#4d5152;}.cls-31{stroke-dasharray:7.08 13.28;}.cls-32{stroke-dasharray:7.52 14.1;}.cls-33{stroke-dasharray:8.25 15.47;}</style></defs><title>Vector Smart Object5</title><g class="cls-1"><path class="cls-2" d="M1100.51,1060.36q1.92,0,4,.13" transform="translate(-564.16 -998.51)"/><path class="cls-3" d="M1118.6,1061.74a149.74,149.74,0,0,1,55.3,18.66,146.16,146.16,0,0,1,17.4,11.81" transform="translate(-564.16 -998.51)"/><path class="cls-2" d="M1196.75,1096.74q1.54,1.34,3,2.66" transform="translate(-564.16 -998.51)"/><polygon class="cls-4" points="538.08 67.91 527.74 61.89 538.12 55.94 538.08 67.91"/><polygon class="cls-4" points="630.12 104.04 641.74 106.89 638.4 95.4 630.12 104.04"/></g><g class="cls-1"><path class="cls-2" d="M853.17,1240c0,1.22-.07,2.56-0.14,4" transform="translate(-564.16 -998.51)"/><path class="cls-5" d="M851.66,1258.42c-4.36,33.22-19,88.77-56.08,121.23-68.88,60.33-106.43,66.65-126.8,67" transform="translate(-564.16 -998.51)"/><path class="cls-2" d="M661.52,1446.63c-1.45,0-2.78-.06-4,0" transform="translate(-564.16 -998.51)"/><polygon class="cls-4" points="283 243.61 288.27 232.86 294.94 242.8 283 243.61"/><polygon class="cls-4" points="93.75 442.17 85.08 450.41 96.56 453.8 93.75 442.17"/></g><g class="cls-1"><path class="cls-2" d="M975.29,1059.36q-1.92,0-4,.13" transform="translate(-564.16 -998.51)"/><path class="cls-3" d="M957.19,1060.74a149.74,149.74,0,0,0-55.3,18.66,146.16,146.16,0,0,0-17.4,11.81" transform="translate(-564.16 -998.51)"/><path class="cls-2" d="M879,1095.74q-1.54,1.34-3,2.66" transform="translate(-564.16 -998.51)"/><polygon class="cls-4" points="409.36 54.94 419.74 60.89 409.4 66.91 409.36 54.94"/><polygon class="cls-4" points="309.08 94.4 305.74 105.89 317.36 103.04 309.08 94.4"/></g><g class="cls-1"><path class="cls-2" d="M633.44,1274.6q-1.53,1.22-3,2.62" transform="translate(-564.16 -998.51)"/><path class="cls-6" d="M621,1288.93c-11.31,17.95-16.5,44.08-5.51,65.08,18.12,34.6,25,31.72,55.06,49.11,39.81,23,91.28,48.13,114.49,83.79,23.88,36.68,29.56,88.18,27.8,116.82" transform="translate(-564.16 -998.51)"/><path class="cls-2" d="M812.1,1611.24c-0.18,1.41-.39,2.73-0.61,4" transform="translate(-564.16 -998.51)"/><polygon class="cls-4" points="64.64 272.14 76.59 271.53 71.15 282.18 64.64 272.14"/><polygon class="cls-4" points="241.88 613.27 244.74 624.89 253.38 616.61 241.88 613.27"/></g><g class="cls-1"><path class="cls-2" d="M760.4,1243.22q2-.19,4-0.26" transform="translate(-564.16 -998.51)"/><path class="cls-7" d="M780.12,1244.1c43.25,7.61,86,50.41,95.78,90.24,5.73,23.3,4.4,37.68,1.41,47.39" transform="translate(-564.16 -998.51)"/><path class="cls-2" d="M874.43,1389.08c-0.61,1.28-1.23,2.46-1.81,3.56" transform="translate(-564.16 -998.51)"/><polygon class="cls-4" points="198.88 250.44 187.74 246.07 197.09 238.61 198.88 250.44"/><polygon class="cls-4" points="303.84 389.96 304.74 401.89 314.63 395.15 303.84 389.96"/></g><g class="cls-1"><path class="cls-2" d="M908,1461.26c1,0.83,2.07,1.63,3.18,2.42" transform="translate(-564.16 -998.51)"/><path class="cls-8" d="M922.82,1469.69c7.69,2.79,18.14,4.73,33.72,5.29,8.63,0.31,14.61.79,19.54,0.61" transform="translate(-564.16 -998.51)"/><path class="cls-2" d="M982.58,1474.78a25.84,25.84,0,0,0,3.81-1.21" transform="translate(-564.16 -998.51)"/><polygon class="cls-4" points="341.31 468.36 337.41 457.05 349.15 459.32 341.31 468.36"/><polygon class="cls-4" points="423.41 481 429.74 470.85 417.78 470.44 423.41 481"/></g><g class="cls-1"><path class="cls-9" d="M674.37,1559.89c25.56,16.35,85.52,39,184.18,31.34,85.1-6.64,138.14-53.64,158.85-81.23" transform="translate(-564.16 -998.51)"/><polygon class="cls-4" points="108.3 567.21 103.2 556.39 115.12 557.38 108.3 567.21"/><polygon class="cls-4" points="457.05 516.3 458.15 504.39 447.28 509.39 457.05 516.3"/></g><g class="cls-1"><path class="cls-2" d="M1233.1,1235.77c-0.92.82-1.94,1.69-3,2.59" transform="translate(-564.16 -998.51)"/><path class="cls-10" d="M1218.17,1246.78c-12.77,7.94-30.31,15.71-49.6,17.06-38.78,2.71-59.48-5.39-71.51-13" transform="translate(-564.16 -998.51)"/><path class="cls-2" d="M1091.09,1246.66c-1.14-.88-2.18-1.72-3.12-2.5" transform="translate(-564.16 -998.51)"/><polygon class="cls-4" points="663.28 234.34 674.74 230.89 672 242.54 663.28 234.34"/><polygon class="cls-4" points="528.59 241.76 516.66 240.86 521.85 251.65 528.59 241.76"/></g><g class="cls-1"><path class="cls-2" d="M1038,1294.36a36.76,36.76,0,0,0,1.59,3.67" transform="translate(-564.16 -998.51)"/><path class="cls-11" d="M1047.89,1310.06c11.75,13.56,30.19,25.54,44,29.08,24.64,6.33,49.45.74,85.5,24.3,18.8,12.29,41.5,44.22,43.33,82.29" transform="translate(-564.16 -998.51)"/><path class="cls-2" d="M1220.81,1453q0,2-.17,4" transform="translate(-564.16 -998.51)"/><polygon class="cls-4" points="468.63 298.8 472.24 287.39 480.31 296.22 468.63 298.8"/><polygon class="cls-4" points="650.6 456.19 655.57 467.08 662.51 457.33 650.6 456.19"/></g><g class="cls-1"><path class="cls-2" d="M1068.69,1512c0.38,1.21.77,2.49,1.15,3.83" transform="translate(-564.16 -998.51)"/><path class="cls-12" d="M1073.29,1529.27c4,17.51,6.86,38.32,4.61,50.08-3.35,17.55-9.73,34.41-16.32,45.81" transform="translate(-564.16 -998.51)"/><path class="cls-2" d="M1057.85,1631c-0.83,1.15-1.65,2.21-2.46,3.15" transform="translate(-564.16 -998.51)"/><polygon class="cls-4" points="499.37 517.14 501.63 505.39 510.67 513.22 499.37 517.14"/><polygon class="cls-4" points="488.64 629.7 484.4 640.89 496.21 638.97 488.64 629.7"/></g><g class="cls-1"><path class="cls-2" d="M1392.13,1382.92c1.11,0.55,2.29,1.17,3.53,1.88" transform="translate(-564.16 -998.51)"/><path class="cls-13" d="M1408.54,1393.34c10.74,8.06,22.58,19.22,30.68,31.54,10,15.24,15,28.69,17.29,39.07" transform="translate(-564.16 -998.51)"/><path class="cls-2" d="M1457.84,1471.57c0.17,1.42.29,2.75,0.37,4" transform="translate(-564.16 -998.51)"/><polygon class="cls-4" points="827.69 390.83 819.74 381.89 831.46 379.48 827.69 390.83"/><polygon class="cls-4" points="887.92 475.21 893.78 485.64 899.88 475.35 887.92 475.21"/></g><g class="cls-1"><path class="cls-2" d="M1343.88,1702.43a37.51,37.51,0,0,0,4-.11" transform="translate(-564.16 -998.51)"/><path class="cls-14" d="M1361.73,1699.73c17.25-4.66,39.87-15,61.1-28.26,18-11.25,27.88-29.1,33.07-43.07" transform="translate(-564.16 -998.51)"/><path class="cls-2" d="M1458.14,1621.7c0.4-1.36.76-2.65,1.07-3.85" transform="translate(-564.16 -998.51)"/><polygon class="cls-4" points="780.15 709.82 771.41 701.66 782.85 698.17 780.15 709.82"/><polygon class="cls-4" points="900.46 622.26 896.74 610.89 888.75 619.79 900.46 622.26"/></g><polyline class="cls-15" points="697.74 114.89 697.74 122.89 705.74 122.89"/><path class="cls-15" d="M1269.34,1146.41v-25l-8.63-8h-35.61a0.76,0.76,0,0,0-.76.76v32.24" transform="translate(-564.16 -998.51)"/><path class="cls-15" d="M1224.34,1158.41v16.24a0.76,0.76,0,0,0,.76.76h43.47a0.76,0.76,0,0,0,.76-0.76v-12.24" transform="translate(-564.16 -998.51)"/><path class="cls-15" d="M1229.41,1165.41c2,0,2,2,4,2s2-2,4-2,2,2,4,2,2-2,4-2,2,2,4,2" transform="translate(-564.16 -998.51)"/><line class="cls-15" x1="665.74" y1="128.89" x2="700.74" y2="128.89"/><line class="cls-15" x1="665.74" y1="136.89" x2="700.74" y2="136.89"/><line class="cls-15" x1="665.74" y1="144.89" x2="682.74" y2="144.89"/><path class="cls-15" d="M1249.46,1169.41" transform="translate(-564.16 -998.51)"/><path class="cls-15" d="M1229.26,1169.41" transform="translate(-564.16 -998.51)"/><rect class="cls-16" x="662.72" y="151.27" width="42" height="6"/><path class="cls-17" d="M1269.13,1155.62h5a3,3,0,0,0,0-6h-5v6Z" transform="translate(-564.16 -998.51)"/><polygon class="cls-17" points="662.94 151.14 655.94 151.14 650.94 154.14 655.94 157.14 662.94 157.14 662.94 151.14"/><path class="cls-18" d="M1265.09,1155.66v2a2,2,0,0,1-2,2h-17" transform="translate(-564.16 -998.51)"/><line class="cls-18" x1="662.94" y1="157.14" x2="662.94" y2="151.14"/><line class="cls-18" x1="704.94" y1="157.14" x2="704.94" y2="151.14"/><path class="cls-18" d="M1274.09,1149.66a3,3,0,0,1,0,6h-54l-5-3,5-3h54Z" transform="translate(-564.16 -998.51)"/><rect class="cls-16" x="24.02" y="477.27" width="42" height="6"/><path class="cls-17" d="M630.43,1481.62h5a3,3,0,1,0,0-6h-5v6Z" transform="translate(-564.16 -998.51)"/><polygon class="cls-17" points="24.24 477.14 17.24 477.14 12.24 480.14 17.24 483.14 24.24 483.14 24.24 477.14"/><path class="cls-18" d="M626.39,1481.66v2a2,2,0,0,1-2,2h-17" transform="translate(-564.16 -998.51)"/><line class="cls-18" x1="24.24" y1="483.14" x2="24.24" y2="477.14"/><line class="cls-18" x1="66.24" y1="483.14" x2="66.24" y2="477.14"/><path class="cls-18" d="M635.39,1475.66a3,3,0,1,1,0,6h-54l-5-3,5-3h54Z" transform="translate(-564.16 -998.51)"/><rect class="cls-16" x="20.99" y="465.82" width="42" height="6"/><path class="cls-17" d="M584.89,1464.49h-5a3,3,0,0,0,0,6h5v-6Z" transform="translate(-564.16 -998.51)"/><polygon class="cls-17" points="62.77 471.94 69.77 471.94 74.77 468.94 69.77 465.94 62.77 465.94 62.77 471.94"/><path class="cls-18" d="M588.93,1464.46v-2a2,2,0,0,1,2-2h17" transform="translate(-564.16 -998.51)"/><line class="cls-18" x1="62.77" y1="465.94" x2="62.77" y2="471.94"/><line class="cls-18" x1="20.77" y1="465.94" x2="20.77" y2="471.94"/><path class="cls-18" d="M579.93,1470.46a3,3,0,0,1,0-6h54l5,3-5,3h-54Z" transform="translate(-564.16 -998.51)"/><polyline class="cls-15" points="57.74 440.89 57.74 448.89 65.74 448.89"/><path class="cls-15" d="M630.14,1461.41v-14l-8.63-8H585.91a0.76,0.76,0,0,0-.76.76v21.24" transform="translate(-564.16 -998.51)"/><path class="cls-15" d="M585.14,1484.41v16.24a0.76,0.76,0,0,0,.76.76h43.47a0.76,0.76,0,0,0,.76-0.76v-12.24" transform="translate(-564.16 -998.51)"/><path class="cls-15" d="M590.21,1491.41c2,0,2,2,4,2s2-2,4-2,2,2,4,2,2-2,4-2,2,2,4,2" transform="translate(-564.16 -998.51)"/><line class="cls-15" x1="25.74" y1="454.89" x2="60.74" y2="454.89"/><path class="cls-15" d="M610.26,1495.41" transform="translate(-564.16 -998.51)"/><path class="cls-15" d="M590.06,1495.41" transform="translate(-564.16 -998.51)"/><polygon class="cls-19" points="121.45 216.86 155.45 216.86 163.45 224.86 163.45 270.86 121.45 270.86 121.45 216.86"/><polyline class="cls-15" points="163.45 224.86 155.45 224.86 155.45 216.86"/><polyline class="cls-18" points="133.45 270.86 121.45 270.86 121.45 216.86 155.45 216.86 163.45 224.86 163.45 270.86 151.45 270.86"/><polyline class="cls-20" points="148.55 263.94 148.45 278.86 142.45 273.86 136.45 278.86 136.52 264.09 142.36 266.63"/><polyline class="cls-18" points="148.45 263.86 148.45 278.86 142.45 273.86 136.45 278.86 136.45 263.86"/><path class="cls-17" d="M719.6,1252.38a3,3,0,0,0-2.41-2.94,10.86,10.86,0,0,0-1-2.5,3,3,0,0,0,.45-1.56,3,3,0,0,0-3-3,3,3,0,0,0-1.56.45,10.86,10.86,0,0,0-2.5-1,3,3,0,0,0-5.88,0,10.86,10.86,0,0,0-2.5,1,3,3,0,0,0-1.56-.45,3,3,0,0,0-3,3,3,3,0,0,0,.45,1.56,10.86,10.86,0,0,0-1,2.5,3,3,0,0,0,0,5.88,10.86,10.86,0,0,0,1,2.5,3,3,0,0,0-.45,1.56,3,3,0,0,0,3,3,3,3,0,0,0,1.56-.45,10.86,10.86,0,0,0,2.5,1,3,3,0,0,0,5.88,0,10.86,10.86,0,0,0,2.5-1,3,3,0,0,0,1.56.45,3,3,0,0,0,3-3,3,3,0,0,0-.45-1.56,10.86,10.86,0,0,0,1-2.5A3,3,0,0,0,719.6,1252.38Z" transform="translate(-564.16 -998.51)"/><circle class="cls-21" cx="142.45" cy="253.86" r="6"/><path class="cls-22" d="M719.6,1252.38a3,3,0,0,0-2.41-2.94,10.86,10.86,0,0,0-1-2.5,3,3,0,0,0,.45-1.56,3,3,0,0,0-3-3,3,3,0,0,0-1.56.45,10.86,10.86,0,0,0-2.5-1,3,3,0,0,0-5.88,0,10.86,10.86,0,0,0-2.5,1,3,3,0,0,0-1.56-.45,3,3,0,0,0-3,3,3,3,0,0,0,.45,1.56,10.86,10.86,0,0,0-1,2.5,3,3,0,0,0,0,5.88,10.86,10.86,0,0,0,1,2.5,3,3,0,0,0-.45,1.56,3,3,0,0,0,3,3,3,3,0,0,0,1.56-.45,10.86,10.86,0,0,0,2.5,1,3,3,0,0,0,5.88,0,10.86,10.86,0,0,0,2.5-1,3,3,0,0,0,1.56.45,3,3,0,0,0,3-3,3,3,0,0,0-.45-1.56,10.86,10.86,0,0,0,1-2.5A3,3,0,0,0,719.6,1252.38Z" transform="translate(-564.16 -998.51)"/><circle class="cls-23" cx="142.45" cy="253.86" r="6"/><rect class="cls-16" x="109.45" y="224.86" width="6" height="42"/><path class="cls-17" d="M673.6,1223.38v-5a3,3,0,0,1,6,0v5h-6Z" transform="translate(-564.16 -998.51)"/><polygon class="cls-17" points="115.45 266.86 115.45 273.86 112.45 278.86 109.45 273.86 109.45 266.86 115.45 266.86"/><path class="cls-18" d="M673.6,1227.38h-2a2,2,0,0,0-2,2v17" transform="translate(-564.16 -998.51)"/><line class="cls-18" x1="109.45" y1="266.86" x2="115.45" y2="266.86"/><line class="cls-18" x1="109.45" y1="224.86" x2="115.45" y2="224.86"/><path class="cls-18" d="M679.6,1218.38a3,3,0,0,0-6,0v54l3,5,3-5v-54Z" transform="translate(-564.16 -998.51)"/><line class="cls-23" x1="126.45" y1="221.86" x2="138.45" y2="221.86"/><line class="cls-23" x1="126.45" y1="228.86" x2="158.45" y2="228.86"/><line class="cls-18" x1="126.45" y1="232.86" x2="158.45" y2="232.86"/><line class="cls-18" x1="126.45" y1="236.86" x2="158.45" y2="236.86"/><path class="cls-22" d="M996.94,1188.66a3,3,0,0,1,3-3h56a3,3,0,0,1,3,3v33h-62v-33Z" transform="translate(-564.16 -998.51)"/><polyline class="cls-19" points="485.62 187.14 485.62 195.14 441.95 195.14 441.95 187.14"/><polyline class="cls-15" points="485.79 187.14 485.79 195.14 441.79 195.14 441.79 187.14"/><polyline class="cls-17" points="451.79 187.14 451.79 173.14 475.79 173.14 475.79 187.14"/><polyline class="cls-15" points="451.79 187.14 451.79 173.14 475.79 173.14 475.79 187.14"/><path class="cls-15" d="M1032.94,1189.66" transform="translate(-564.16 -998.51)"/><path class="cls-15" d="M1010.94,1189.66" transform="translate(-564.16 -998.51)"/><rect class="cls-24" x="447.22" y="213.14" width="33.13" height="22"/><rect class="cls-15" x="446.79" y="212.14" width="34" height="23"/><path class="cls-15" d="M1032.94,1229.66" transform="translate(-564.16 -998.51)"/><path class="cls-15" d="M1018.94,1229.66" transform="translate(-564.16 -998.51)"/><line class="cls-15" x1="451.79" y1="230.14" x2="475.79" y2="230.14"/><line class="cls-15" x1="451.79" y1="226.14" x2="475.79" y2="226.14"/><polyline class="cls-16" points="518.82 440.86 496.63 424.06 517.96 403.06"/><polyline class="cls-16" points="455.63 440.86 477.82 424.06 456.49 403.06"/><path class="cls-25" d="M1055.68,1404h-0.07s-1.47,2.77-5.71,2.77c-4.06,0-7.6-3-7.6-8.4s3.4-8.44,7.7-8.44a6.55,6.55,0,0,1,5.5,2.59h0.11l0.42-2.34h1.75v13.09a1.34,1.34,0,0,0,1.4,1.61c3.57,0,5.85-2.66,5.85-8.61,0-7.32-4.41-13.58-14-13.58-9,0-14.35,6.86-14.35,14.77,0,10.19,7.56,13.27,10.75,14.42l-1.23,1.82c-2.94-1.19-11.83-4.48-11.83-16.24,0-8.75,6.06-16.8,16.66-16.8,11.17,0,16.28,7.49,16.28,15.44,0,7.56-4.09,10.68-8.68,10.68-2.21,0-3-1.37-3-2.49V1404Zm-0.25-1.68v-7.6a5.75,5.75,0,0,0-5.11-2.8c-3,0-5.71,2.07-5.71,6.44s3,6.41,5.71,6.41A5.77,5.77,0,0,0,1055.43,1402.32Z" transform="translate(-564.16 -998.51)"/><polyline class="cls-15" points="511.74 401.89 518.74 401.89 518.74 441.89 455.74 441.89 455.74 401.89 462.74 401.89"/><polyline class="cls-22" points="518.93 440.89 487.63 416.89 456.32 440.89"/><line class="cls-15" x1="456.32" y1="401.89" x2="478.84" y2="424.21"/><line class="cls-15" x1="518.93" y1="401.89" x2="496.82" y2="423.81"/><path class="cls-15" d="M1006.87,1043.12" transform="translate(-564.16 -998.51)"/><rect class="cls-26" x="440.74" y="45.89" width="62" height="11"/><line class="cls-18" x1="444.74" y1="51.89" x2="446.74" y2="51.89"/><line class="cls-18" x1="448.74" y1="51.89" x2="450.74" y2="51.89"/><line class="cls-18" x1="453.74" y1="51.89" x2="455.74" y2="51.89"/><line class="cls-18" x1="498.74" y1="51.89" x2="487.74" y2="51.89"/><line class="cls-18" x1="443.74" y1="41.89" x2="488.74" y2="41.89"/><path class="cls-18" d="M1066.52,1044.43c1.26-1.26,3.1-5.15,1.84-6.41l-6.85-6.85-24.37-24.37-6.85-6.85c-1.26-1.26-5.15.58-6.41,1.84Z" transform="translate(-564.16 -998.51)"/><g class="cls-1"><path class="cls-2" d="M1154.93,1526.8c-1.2-.27-2.51-0.59-3.88-1" transform="translate(-564.16 -998.51)"/><path class="cls-27" d="M1133.57,1519.54a62.56,62.56,0,0,1-15.95-10.6" transform="translate(-564.16 -998.51)"/><path class="cls-2" d="M1111.58,1501.88a37.31,37.31,0,0,1-2.07-3.43" transform="translate(-564.16 -998.51)"/><polygon class="cls-4" points="590.22 521.98 599.24 529.84 587.92 533.72 590.22 521.98"/><polygon class="cls-4" points="551.72 499.23 542.25 491.91 540.65 503.76 551.72 499.23"/></g><rect class="cls-18" x="250.74" y="141.89" width="62" height="16" rx="2" ry="2"/><rect class="cls-26" x="298.74" y="145.89" width="10" height="8"/><rect class="cls-26" x="254.74" y="145.89" width="10" height="8"/><path class="cls-18" d="M859.9,1144.41" transform="translate(-564.16 -998.51)"/><path class="cls-18" d="M831.9,1144.41" transform="translate(-564.16 -998.51)"/><line class="cls-18" x1="267.74" y1="147.89" x2="295.74" y2="147.89"/><polygon class="cls-18" points="300.67 127.89 302.36 127.89 301.02 123.89 263.02 123.89 261.69 127.89 261.92 127.89 300.67 127.89"/><polygon class="cls-26" points="300.67 127.89 261.92 127.89 261.69 127.89 257.02 141.89 307.02 141.89 302.36 127.89 300.67 127.89"/><rect class="cls-18" x="296.74" y="163.89" width="12" height="8"/><rect class="cls-18" x="254.74" y="163.89" width="12" height="8"/><path class="cls-18" d="M814.9,1154.41v4.8a3.27,3.27,0,0,0,3.1,3.2h56a3,3,0,0,0,2.9-3.1v-4.9" transform="translate(-564.16 -998.51)"/><path class="cls-18" d="M877.9,1170.41" transform="translate(-564.16 -998.51)"/><path class="cls-18" d="M813.9,1170.41" transform="translate(-564.16 -998.51)"/><line class="cls-18" x1="292.74" y1="157.89" x2="292.74" y2="163.89"/><line class="cls-18" x1="270.74" y1="157.89" x2="270.74" y2="163.89"/><line class="cls-18" x1="267.74" y1="151.89" x2="295.74" y2="151.89"/><rect class="cls-18" x="214.74" y="658.89" width="62" height="16" rx="2" ry="2"/><rect class="cls-26" x="262.74" y="662.89" width="10" height="8"/><rect class="cls-26" x="218.74" y="662.89" width="10" height="8"/><path class="cls-18" d="M823.9,1661.41" transform="translate(-564.16 -998.51)"/><path class="cls-18" d="M795.9,1661.41" transform="translate(-564.16 -998.51)"/><line class="cls-18" x1="231.74" y1="664.89" x2="259.74" y2="664.89"/><polygon class="cls-18" points="264.63 644.89 266.31 644.89 264.98 640.89 226.98 640.89 225.65 644.89 225.88 644.89 264.63 644.89"/><polygon class="cls-26" points="264.63 644.89 225.88 644.89 225.65 644.89 220.98 658.89 270.98 658.89 266.31 644.89 264.63 644.89"/><rect class="cls-18" x="260.74" y="680.89" width="12" height="8"/><rect class="cls-18" x="218.74" y="680.89" width="12" height="8"/><path class="cls-18" d="M778.9,1671.41v4.8a3.27,3.27,0,0,0,3.1,3.2h56a3,3,0,0,0,2.9-3.1v-4.9" transform="translate(-564.16 -998.51)"/><path class="cls-18" d="M841.9,1687.41" transform="translate(-564.16 -998.51)"/><path class="cls-18" d="M777.9,1687.41" transform="translate(-564.16 -998.51)"/><line class="cls-18" x1="256.74" y1="674.89" x2="256.74" y2="680.89"/><line class="cls-18" x1="234.74" y1="674.89" x2="234.74" y2="680.89"/><line class="cls-18" x1="231.74" y1="668.89" x2="259.74" y2="668.89"/><g class="cls-1"><path class="cls-2" d="M740.75,1677.35h-4" transform="translate(-564.16 -998.51)"/><path class="cls-28" d="M721.92,1677c-26-1.15-64.87-6-92.28-25.53-15.86-11.28-27.39-28.92-33.8-42.49" transform="translate(-564.16 -998.51)"/><path class="cls-2" d="M592.89,1602.18c-0.52-1.34-1-2.6-1.35-3.76" transform="translate(-564.16 -998.51)"/><polygon class="cls-4" points="174.88 672.83 185.2 678.89 174.79 684.8 174.88 672.83"/><polygon class="cls-4" points="33.8 600.53 26.08 591.39 22.02 602.65 33.8 600.53"/></g><rect class="cls-18" x="260.74" y="433.89" width="62" height="16" rx="2" ry="2"/><rect class="cls-26" x="308.74" y="437.89" width="10" height="8"/><rect class="cls-26" x="264.74" y="437.89" width="10" height="8"/><path class="cls-18" d="M869.9,1436.41" transform="translate(-564.16 -998.51)"/><path class="cls-18" d="M841.9,1436.41" transform="translate(-564.16 -998.51)"/><line class="cls-18" x1="277.74" y1="439.89" x2="305.74" y2="439.89"/><polygon class="cls-18" points="310.96 419.89 312.65 419.89 311.31 415.89 273.31 415.89 271.98 419.89 272.21 419.89 310.96 419.89"/><polygon class="cls-26" points="310.96 419.89 272.21 419.89 271.98 419.89 267.31 433.89 317.31 433.89 312.65 419.89 310.96 419.89"/><rect class="cls-18" x="306.74" y="455.89" width="12" height="8"/><rect class="cls-18" x="264.74" y="455.89" width="12" height="8"/><path class="cls-18" d="M824.9,1446.41v4.8a3.27,3.27,0,0,0,3.1,3.2h56a3,3,0,0,0,2.9-3.1v-4.9" transform="translate(-564.16 -998.51)"/><path class="cls-18" d="M887.9,1462.41" transform="translate(-564.16 -998.51)"/><path class="cls-18" d="M823.9,1462.41" transform="translate(-564.16 -998.51)"/><line class="cls-18" x1="302.74" y1="449.89" x2="302.74" y2="455.89"/><line class="cls-18" x1="280.74" y1="449.89" x2="280.74" y2="455.89"/><line class="cls-18" x1="277.74" y1="443.89" x2="305.74" y2="443.89"/><rect class="cls-19" x="474.96" y="684.66" width="12" height="10"/><path class="cls-17" d="M1055.12,1670.17a2,2,0,0,1-2-2v-2a2,2,0,0,0-2-2v-2l-4,2h-8a2,2,0,0,0-2,2v2a2,2,0,0,1-2,2h-1v3l1.15,3c0.68,4.68,3.75,10,9.85,10s9.16-5.32,9.85-10l1.15-3v-3h-1Z" transform="translate(-564.16 -998.51)"/><path class="cls-16" d="M1019.12,1715.17v-11c0-6.08,5-8,11-10l4-1h22l4,1c6,2,11,3.92,11,10v11h-52Z" transform="translate(-564.16 -998.51)"/><path class="cls-18" d="M1034.12,1693.17l-4,1c-6,2-11,3.92-11,10v11h52v-11c0-6.08-5-8-11-10l-4-1" transform="translate(-564.16 -998.51)"/><line class="cls-18" x1="464.96" y1="710.66" x2="464.96" y2="716.66"/><line class="cls-18" x1="496.96" y1="710.66" x2="496.96" y2="716.66"/><line class="cls-18" x1="474.96" y1="690.66" x2="474.96" y2="685.66"/><line class="cls-18" x1="486.96" y1="690.66" x2="486.96" y2="685.66"/><path class="cls-18" d="M1034.12,1670.17v-8a3,3,0,0,1,3-3h1a3,3,0,0,1,3-3h11a4,4,0,0,1,4,4v10h-1a2,2,0,0,1-2-2v-2a2,2,0,0,0-2-2v-2l-4,2h-8a2,2,0,0,0-2,2v2a2,2,0,0,1-2,2h-1Z" transform="translate(-564.16 -998.51)"/><path class="cls-18" d="M1056.12,1670.17v3l-1,1c0,5-3,12-10,12s-10-7-10-12l-1-1v-3" transform="translate(-564.16 -998.51)"/><polygon class="cls-24" points="476.96 698.66 467.96 694.66 472.96 690.66 480.96 692.66 480.96 694.66 476.96 698.66"/><polygon class="cls-24" points="484.96 698.66 493.96 694.66 488.96 690.66 480.96 692.66 480.96 694.66 484.96 698.66"/><polygon class="cls-18" points="476.96 698.66 467.96 694.66 472.96 690.66 480.96 692.66 480.96 694.66 476.96 698.66"/><polygon class="cls-18" points="484.96 698.66 493.96 694.66 488.96 690.66 480.96 692.66 480.96 694.66 484.96 698.66"/><path class="cls-29" d="M1045.12,1705.17" transform="translate(-564.16 -998.51)"/><path class="cls-29" d="M1045.12,1703.17" transform="translate(-564.16 -998.51)"/><path class="cls-29" d="M1045.12,1699.17" transform="translate(-564.16 -998.51)"/><path class="cls-29" d="M1045.12,1707.17" transform="translate(-564.16 -998.51)"/><polygon class="cls-23" points="479.38 696.35 475.84 716.66 481.4 721.6 486.96 716.66 482.46 696.35 480.96 694.66 479.38 696.35"/><path class="cls-21" d="M1033,1714.84v-9c0-6.08-5-9-11-11l-6-2H998l-6,2c-6,2-11,4.92-11,11v9" transform="translate(-564.16 -998.51)"/><path class="cls-15" d="M998,1692.84l-6,2c-6,2-11,4.92-11,11v9s51.83,0.17,52,0v-9c0-6.08-5-9-11-11l-6-2" transform="translate(-564.16 -998.51)"/><polygon class="cls-23" points="448.85 690.33 451.85 692.33 457.85 701.33 451.85 701.33 442.85 713.33 433.85 701.33 427.85 701.33 433.85 692.33 436.85 690.33 436.85 685.33 448.85 685.33 448.85 690.33"/><line class="cls-18" x1="426.85" y1="710.33" x2="426.85" y2="716.33"/><line class="cls-18" x1="458.85" y1="710.33" x2="458.85" y2="716.33"/><path class="cls-24" d="M1004,1661.84c0,3,3,10,12,10h0c0,7.18-1,14-9,14s-9-6.82-9-14v-2a4,4,0,0,1,4-4h3" transform="translate(-564.16 -998.51)"/><path class="cls-18" d="M1004,1661.84c0,3,3,10,12,10h0c0,7.18-1,14-9,14s-9-6.82-9-14v-2a4,4,0,0,1,4-4h3" transform="translate(-564.16 -998.51)"/><path class="cls-18" d="M1001,1686.84c-3,0-9-2-9-2s2-8,2-13v-6a10,10,0,0,1,10-10h6a10,10,0,0,1,10,10v6c0,5,2,13,2,13s-6,2-9,2" transform="translate(-564.16 -998.51)"/><polyline class="cls-18" points="436.85 685.33 436.85 694.33 442.85 713.33 448.85 694.33 448.85 685.33"/><rect class="cls-16" x="689.47" y="680.27" width="42" height="6"/><path class="cls-17" d="M1295.88,1684.62h5a3,3,0,0,0,0-6h-5v6Z" transform="translate(-564.16 -998.51)"/><polygon class="cls-17" points="689.69 680.14 682.69 680.14 677.69 683.14 682.69 686.14 689.69 686.14 689.69 680.14"/><path class="cls-18" d="M1291.84,1684.66v2a2,2,0,0,1-2,2h-17" transform="translate(-564.16 -998.51)"/><line class="cls-18" x1="689.69" y1="686.14" x2="689.69" y2="680.14"/><line class="cls-18" x1="731.69" y1="686.14" x2="731.69" y2="680.14"/><path class="cls-18" d="M1300.84,1678.66a3,3,0,0,1,0,6h-54l-5-3,5-3h54Z" transform="translate(-564.16 -998.51)"/><rect class="cls-16" x="686.44" y="668.82" width="42" height="6"/><path class="cls-17" d="M1250.34,1667.49h-5a3,3,0,0,0,0,6h5v-6Z" transform="translate(-564.16 -998.51)"/><polygon class="cls-17" points="728.22 674.94 735.22 674.94 740.22 671.94 735.22 668.94 728.22 668.94 728.22 674.94"/><path class="cls-18" d="M1254.38,1667.46v-2a2,2,0,0,1,2-2h17" transform="translate(-564.16 -998.51)"/><line class="cls-18" x1="728.22" y1="668.94" x2="728.22" y2="674.94"/><line class="cls-18" x1="686.22" y1="668.94" x2="686.22" y2="674.94"/><path class="cls-18" d="M1245.38,1673.46a3,3,0,0,1,0-6h54l5,3-5,3h-54Z" transform="translate(-564.16 -998.51)"/><polyline class="cls-15" points="722.74 641.89 722.74 648.89 730.74 648.89"/><path class="cls-15" d="M1295.59,1650.41v-3l-8.63-7h-35.61c-0.42,0-.76.34-0.76,1.76v8.24" transform="translate(-564.16 -998.51)"/><path class="cls-15" d="M1250.59,1687.41v14.24a0.76,0.76,0,0,0,.76.76h43.47a0.76,0.76,0,0,0,.76-0.76v-14.24" transform="translate(-564.16 -998.51)"/><path class="cls-15" d="M1255.66,1692.41c2,0,2,2,4,2s2-2,4-2,2,2,4,2,2-2,4-2,2,2,4,2" transform="translate(-564.16 -998.51)"/><path class="cls-15" d="M1275.71,1696.41" transform="translate(-564.16 -998.51)"/><path class="cls-15" d="M1255.51,1696.41" transform="translate(-564.16 -998.51)"/><rect class="cls-16" x="689.98" y="655.07" width="42" height="6"/><path class="cls-17" d="M1296.39,1659.43h5a3,3,0,0,0,0-6h-5v6Z" transform="translate(-564.16 -998.51)"/><polygon class="cls-17" points="690.2 654.94 683.2 654.94 678.2 657.94 683.2 660.94 690.2 660.94 690.2 654.94"/><line class="cls-18" x1="690.2" y1="660.94" x2="690.2" y2="654.94"/><line class="cls-18" x1="732.2" y1="660.94" x2="732.2" y2="654.94"/><path class="cls-18" d="M1301.36,1653.46a3,3,0,0,1,0,6h-54l-5-3,5-3h54Z" transform="translate(-564.16 -998.51)"/><polyline class="cls-17" points="701.77 315.81 707.77 297.81 753.77 297.81 759.77 315.81"/><rect class="cls-17" x="701.77" y="315.81" width="58" height="26"/><polygon class="cls-15" points="759.77 315.81 759.77 341.81 701.77 341.81 701.77 315.81 707.77 297.81 753.77 297.81 759.77 315.81"/><rect class="cls-21" x="714.77" y="293.81" width="32" height="4"/><polyline class="cls-15" points="714.77 297.81 714.77 293.81 746.77 293.81 746.77 297.81"/><rect class="cls-21" x="712.77" y="297.81" width="36" height="5"/><polyline class="cls-15" points="712.77 302.81 712.77 297.81 748.77 297.81 748.77 302.81"/><rect class="cls-21" x="710.77" y="302.81" width="40" height="6"/><polyline class="cls-15" points="710.77 308.81 710.77 302.81 750.77 302.81 750.77 308.81"/><rect class="cls-21" x="708.77" y="308.81" width="44" height="7"/><polyline class="cls-15" points="708.77 315.81 708.77 308.81 752.77 308.81 752.77 315.81"/><path class="cls-21" d="M1306.93,1323.32v5a3,3,0,0,1-3,3h-18a3,3,0,0,1-3-3v-5h24Z" transform="translate(-564.16 -998.51)"/><path class="cls-15" d="M1306.93,1323.32v5a3,3,0,0,1-3,3h-18a3,3,0,0,1-3-3v-5h24Z" transform="translate(-564.16 -998.51)"/><line class="cls-15" x1="713.77" y1="328.81" x2="711.77" y2="328.81"/><line class="cls-15" x1="749.77" y1="328.81" x2="747.77" y2="328.81"/><path class="cls-15" d="M1301.93,1327.32" transform="translate(-564.16 -998.51)"/><path class="cls-15" d="M1287.93,1327.32" transform="translate(-564.16 -998.51)"/><line class="cls-15" x1="701.77" y1="315.81" x2="759.77" y2="315.81"/><circle class="cls-17" cx="862.82" cy="246.64" r="3"/><line class="cls-15" x1="862.82" y1="237.64" x2="862.82" y2="243.64"/><circle class="cls-15" cx="862.82" cy="246.64" r="3"/><line class="cls-15" x1="865.82" y1="246.64" x2="891.82" y2="246.64"/><line class="cls-15" x1="859.82" y1="246.64" x2="833.82" y2="246.64"/><path class="cls-21" d="M1427,1224.16c-9.39,0-17-3.13-17-7v12c0,3.87,7.61,7,17,7s17-3.13,17-7v-12C1444,1221,1436.37,1224.16,1427,1224.16Z" transform="translate(-564.16 -998.51)"/><path class="cls-30" d="M1427,1212.16c-9.39,0-17-3.13-17-7v12c0,3.87,7.61,7,17,7s17-3.13,17-7v-12C1444,1209,1436.37,1212.16,1427,1212.16Z" transform="translate(-564.16 -998.51)"/><path class="cls-21" d="M1410,1205.16c0,3.87,7.61,7,17,7s17-3.13,17-7v-12h-34v12Z" transform="translate(-564.16 -998.51)"/><ellipse class="cls-30" cx="862.82" cy="194.64" rx="17" ry="7"/><ellipse class="cls-15" cx="862.82" cy="194.64" rx="17" ry="7"/><path class="cls-15" d="M1444,1205.16c0,3.87-7.61,7-17,7s-17-3.13-17-7" transform="translate(-564.16 -998.51)"/><path class="cls-15" d="M1444,1217.16c0,3.87-7.61,7-17,7s-17-3.13-17-7" transform="translate(-564.16 -998.51)"/><path class="cls-15" d="M1444,1229.16c0,3.87-7.61,7-17,7s-17-3.13-17-7" transform="translate(-564.16 -998.51)"/><line class="cls-15" x1="879.82" y1="194.64" x2="879.82" y2="230.64"/><line class="cls-15" x1="845.82" y1="194.64" x2="845.82" y2="230.64"/><g class="cls-1"><path class="cls-2" d="M1317,1269.32c0.59-1.09,1.26-2.25,2-3.46" transform="translate(-564.16 -998.51)"/><path class="cls-31" d="M1326.94,1255.23a52.54,52.54,0,0,1,11-9.34,56.44,56.44,0,0,1,18.18-7.05" transform="translate(-564.16 -998.51)"/><path class="cls-2" d="M1362.7,1237.74c1.41-.18,2.74-0.31,4-0.42" transform="translate(-564.16 -998.51)"/><polygon class="cls-4" points="759.14 271.71 749.44 278.71 748.23 266.81 759.14 271.71"/><polygon class="cls-4" points="801.38 244.94 811.08 237.94 800.17 233.03 801.38 244.94"/></g><g class="cls-1"><path class="cls-2" d="M1219.25,1659.33l-3.8-1.24" transform="translate(-564.16 -998.51)"/><path class="cls-32" d="M1201.91,1654.2a122.2,122.2,0,0,0-56.35-.77c-18.62,4-31.95,9.74-41.36,15" transform="translate(-564.16 -998.51)"/><path class="cls-2" d="M1098.16,1672.09q-1.79,1.15-3.32,2.22" transform="translate(-564.16 -998.51)"/><polygon class="cls-4" points="655.28 654.62 663.27 663.52 651.56 666 655.28 654.62"/><polygon class="cls-4" points="528.63 669.97 523.74 680.89 535.64 679.67 528.63 669.97"/></g><g class="cls-1"><path class="cls-2" d="M1273.09,1526c1.27,0.24,2.59.47,3.94,0.7" transform="translate(-564.16 -998.51)"/><path class="cls-33" d="M1292.18,1529.75c14.36,3.78,29.87,11.55,41,33.33,5.7,11.1,2.69,37.35-3.91,55" transform="translate(-564.16 -998.51)"/><path class="cls-2" d="M1326.22,1625.15c-0.64,1.25-1.31,2.41-2,3.47" transform="translate(-564.16 -998.51)"/><polygon class="cls-4" points="709.32 533.62 700.57 525.46 712.01 521.97 709.32 533.62"/><polygon class="cls-4" points="756.69 624.56 754.01 636.22 765.45 632.71 756.69 624.56"/></g><polygon class="cls-16" points="925.58 556.39 863.58 556.39 863.58 520.39 881.58 520.39 885.58 516.39 925.58 516.39 925.58 556.39"/><rect class="cls-16" x="863.57" y="551.39" width="62" height="5"/><polyline class="cls-15" points="909.58 516.39 925.58 516.39 925.58 556.39 863.58 556.39 863.58 520.39 881.58 520.39 885.58 516.39 899.58 516.39"/><polyline class="cls-15" points="899.58 508.39 885.58 508.39 881.58 504.39 863.58 504.39 863.58 520.39"/><polyline class="cls-15" points="925.58 516.39 925.58 508.39 909.58 508.39"/><line class="cls-15" x1="868.57" y1="526.39" x2="870.57" y2="526.39"/><line class="cls-15" x1="872.57" y1="526.39" x2="874.57" y2="526.39"/><line class="cls-15" x1="876.57" y1="526.39" x2="878.57" y2="526.39"/><polyline class="cls-24" points="909.58 503.39 909.58 522.39 919.58 522.39 904.58 537.39 889.58 522.39 899.58 522.39 899.58 503.39"/><polygon class="cls-18" points="909.58 503.39 909.58 522.39 919.58 522.39 904.58 537.39 889.58 522.39 899.58 522.39 899.58 503.39 909.58 503.39"/><polygon class="cls-24" points="651.74 526.67 651.91 545 656.74 544.97 656.24 527 651.74 526.67"/><polyline class="cls-24" points="656.74 545 656.24 526.5 651.74 526.17 651.91 544.5"/><path class="cls-19" d="M1241.4,1543.42v-18h4v-17a5,5,0,0,0-5-5h-10a5,5,0,0,0-5,5v17h4v18" transform="translate(-564.16 -998.51)"/><path class="cls-21" d="M1224.4,1520.42h5v-18a6,6,0,0,0-6-6h-10a6,6,0,0,0-6,6v18h5" transform="translate(-564.16 -998.51)"/><rect class="cls-19" x="648.24" y="521.91" width="12" height="23"/><circle class="cls-17" cx="654.24" cy="488.91" r="5"/><line class="cls-18" x1="654.24" y1="544.91" x2="654.24" y2="524.91"/><circle class="cls-18" cx="654.24" cy="488.91" r="5"/><path class="cls-18" d="M1224.4,1520.42h5v-18a6,6,0,0,0-6-6h-10a6,6,0,0,0-6,6v18h5" transform="translate(-564.16 -998.51)"/><path class="cls-19" d="M1207.4,1543.42v-18h4v-17a5,5,0,0,0-5-5h-10a5,5,0,0,0-5,5v17h4v18" transform="translate(-564.16 -998.51)"/><path class="cls-16" d="M1211.4,1525.42v-17a5,5,0,0,0-5-5h-10a5,5,0,0,0-5,5v17h20Z" transform="translate(-564.16 -998.51)"/><path class="cls-16" d="M1245.4,1525.42v-17a5,5,0,0,0-5-5h-10a5,5,0,0,0-5,5v17h20Z" transform="translate(-564.16 -998.51)"/><circle class="cls-17" cx="637.24" cy="496.91" r="4"/><line class="cls-18" x1="637.24" y1="544.91" x2="637.24" y2="529.91"/><circle class="cls-18" cx="637.24" cy="496.91" r="4"/><path class="cls-34" d="M1229.4,1543.46c6.83,0,12,0,12,0v-18h4v-17a5,5,0,0,0-5-5h-10a5,5,0,0,0-5,5v17h4v18" transform="translate(-564.16 -998.51)"/><path class="cls-34" d="M1229.4,1543.46" transform="translate(-564.16 -998.51)"/><path class="cls-34" d="M1225.63,1543.46" transform="translate(-564.16 -998.51)"/><path class="cls-34" d="M1211.58,1543.45c4.56,0,9.27.07,13.8,0.07" transform="translate(-564.16 -998.51)"/><path class="cls-34" d="M1211.58,1543.45" transform="translate(-564.16 -998.51)"/><path class="cls-34" d="M1207.4,1543.44" transform="translate(-564.16 -998.51)"/><path class="cls-34" d="M1207.4,1543.4v-18h4v-17a5,5,0,0,0-5-5h-10a5,5,0,0,0-5,5v17h4v18l12,0" transform="translate(-564.16 -998.51)"/><line class="cls-34" x1="643.24" y1="544.91" x2="643.24" y2="544.89"/><circle class="cls-17" cx="671.24" cy="496.91" r="4"/><line class="cls-18" x1="671.24" y1="544.91" x2="671.24" y2="529.91"/><circle class="cls-18" cx="671.24" cy="496.91" r="4"/><line class="cls-18" x1="654.24" y1="500.91" x2="654.24" y2="502.91"/><line class="cls-18" x1="654.24" y1="504.91" x2="654.24" y2="506.91"/><line class="cls-18" x1="671.24" y1="507.91" x2="671.24" y2="509.91"/><line class="cls-18" x1="637.24" y1="507.91" x2="637.24" y2="509.91"/><line class="cls-34" x1="654.24" y1="545" x2="654.24" y2="525.59"/><line class="cls-18" x1="654.24" y1="545" x2="654.24" y2="525"/><path class="cls-4" d="M1011.9,1080l2.41-.16a2,2,0,0,0-.12.64c0,1.49,1.22,2.41,3.13,2.41,2.37,0,3.33-.78,3.33-2.07,0-3.77-9.06-1.7-9.06-7.54,0-2.21,1.77-4.37,5.59-4.37s5.52,1.77,5.52,4.07a2.29,2.29,0,0,1-.21,1l-2.28.23a2.79,2.79,0,0,0,.11-0.71c0-1.33-.9-2.46-3.13-2.46-1.91,0-3.1.87-3.1,2.18,0,3.68,9.06,1.59,9.06,7.43,0,2.39-1.7,4.39-5.77,4.39s-5.7-2-5.7-4A2.29,2.29,0,0,1,1011.9,1080Z" transform="translate(-564.16 -998.51)"/><path class="cls-4" d="M1032.78,1078.9a1.72,1.72,0,0,0,.12-0.71c0-1.38-.76-2.21-2.53-2.21-1.93,0-3.08.9-3.08,3.54a3.25,3.25,0,0,0,3.45,3.56,4.45,4.45,0,0,0,3.36-1.13l0.83,1.75s-1.29,1.36-4.39,1.36c-3.36,0-5.59-1.91-5.59-5.54s2.07-5.52,5.47-5.52,4.6,2,4.6,3.84a2.82,2.82,0,0,1-.16.92Z" transform="translate(-564.16 -998.51)"/><path class="cls-4" d="M1045.08,1075.59h0.07l0.34-1.43h1.77v8.14a0.73,0.73,0,0,0,.69.87,1.34,1.34,0,0,0,.55-0.09v1.75a2.75,2.75,0,0,1-1.43.23,1.68,1.68,0,0,1-1.89-1.7v-0.07h-0.07a3.8,3.8,0,0,1-3.59,1.77c-2.67,0-4.85-1.91-4.85-5.52s2.25-5.54,5-5.54A3.94,3.94,0,0,1,1045.08,1075.59Zm-0.21,6.35v-4.55a3,3,0,0,0-2.64-1.4c-1.82,0-3.2,1.17-3.2,3.56s1.52,3.54,3.15,3.54A3.23,3.23,0,0,0,1044.88,1081.94Z" transform="translate(-564.16 -998.51)"/><path class="cls-4" d="M1053.66,1076.12h0.07s0.62-2.12,3.68-2.12c2.78,0,4,1.77,4,4.16V1083l1.52,0.23v1.72h-3.89v-6.32c0-1.56-.67-2.6-2.41-2.6a2.63,2.63,0,0,0-2.64,1.93v5l1.43,0.21v1.75h-5.31v-1.72l1.52-.23v-6.83l-1.52-.23v-1.72h3.29Z" transform="translate(-564.16 -998.51)"/><path class="cls-4" d="M815.93,1206.66v-1.72l2-.23v-11.82h-3.82l-0.23,2.42h-1.91l0.09-4.46h14.19l0.07,4.46h-1.89l-0.25-2.42h-3.79v11.82l2,0.23v1.72h-6.44Z" transform="translate(-564.16 -998.51)"/><path class="cls-4" d="M835.29,1198.1a4.39,4.39,0,0,0-1.22-.16c-2.6,0-3.22,2.71-3.22,2.71v4l1.82,0.18v1.79H827v-1.72l1.52-.23v-6.83l-1.52-.23v-1.72h3.29l0.25,2.71h0.07a3.67,3.67,0,0,1,3.56-2.87,5.24,5.24,0,0,1,1.15.12v2.23Z" transform="translate(-564.16 -998.51)"/><path class="cls-4" d="M844.63,1197.34h0.07l0.34-1.43h1.77v8.14a0.73,0.73,0,0,0,.69.87,1.34,1.34,0,0,0,.55-0.09v1.75a2.75,2.75,0,0,1-1.43.23,1.68,1.68,0,0,1-1.89-1.7V1205h-0.07a3.8,3.8,0,0,1-3.59,1.77c-2.67,0-4.85-1.91-4.85-5.52s2.25-5.54,5-5.54A3.94,3.94,0,0,1,844.63,1197.34Zm-0.21,6.35v-4.55a3,3,0,0,0-2.64-1.4c-1.82,0-3.2,1.17-3.2,3.56s1.52,3.54,3.15,3.54A3.23,3.23,0,0,0,844.42,1203.69Z" transform="translate(-564.16 -998.51)"/><path class="cls-4" d="M853.88,1206.66l-3.52-8.78-1.54-.23v-1.72H854v1.72l-1.17.23,2.48,6.48h0.16l2.51-6.48-1.24-.23v-1.72h5.17v1.72l-1.54.23-3.5,8.78h-3Z" transform="translate(-564.16 -998.51)"/><path class="cls-4" d="M865,1201.87a3.19,3.19,0,0,0,3.5,3,4.31,4.31,0,0,0,3.29-1.13l0.85,1.75s-1.33,1.36-4.46,1.36-5.54-1.91-5.54-5.54,2.28-5.52,5.47-5.52a4.69,4.69,0,0,1,4.78,4.88,4.75,4.75,0,0,1-.14,1.24H865Zm0-1.54h5.7a2.51,2.51,0,0,0-2.58-2.69A2.94,2.94,0,0,0,865,1200.33Z" transform="translate(-564.16 -998.51)"/><path class="cls-4" d="M878.23,1204.7l1.43,0.23v1.72h-5.31v-1.72l1.49-.23v-13.25l-1.49-.23v-1.72h3.89v15.2Z" transform="translate(-564.16 -998.51)"/><path class="cls-4" d="M826.35,1494.42v-1.72l2-.23v-11.82h-3.82l-0.23,2.42h-1.91l0.09-4.46h14.19l0.07,4.46h-1.89l-0.25-2.42h-3.79v11.82l2,0.23v1.72h-6.44Z" transform="translate(-564.16 -998.51)"/><path class="cls-4" d="M845.72,1485.87a4.39,4.39,0,0,0-1.22-.16c-2.6,0-3.22,2.71-3.22,2.71v4l1.82,0.18v1.79h-5.7v-1.72l1.52-.23v-6.83l-1.52-.23v-1.72h3.29l0.25,2.71H841a3.67,3.67,0,0,1,3.56-2.87,5.24,5.24,0,0,1,1.15.12v2.23Z" transform="translate(-564.16 -998.51)"/><path class="cls-4" d="M855.05,1485.11h0.07l0.34-1.43h1.77v8.14a0.73,0.73,0,0,0,.69.87,1.34,1.34,0,0,0,.55-0.09v1.75a2.75,2.75,0,0,1-1.43.23,1.68,1.68,0,0,1-1.89-1.7v-0.07H855.1a3.8,3.8,0,0,1-3.59,1.77c-2.67,0-4.85-1.91-4.85-5.52s2.25-5.54,5-5.54A3.94,3.94,0,0,1,855.05,1485.11Zm-0.21,6.35v-4.55a3,3,0,0,0-2.64-1.4c-1.82,0-3.2,1.17-3.2,3.56s1.52,3.54,3.15,3.54A3.23,3.23,0,0,0,854.85,1491.46Z" transform="translate(-564.16 -998.51)"/><path class="cls-4" d="M864.3,1494.42l-3.52-8.78-1.54-.23v-1.72h5.2v1.72l-1.17.23,2.48,6.48h0.16l2.51-6.48-1.24-.23v-1.72h5.17v1.72l-1.54.23-3.5,8.78h-3Z" transform="translate(-564.16 -998.51)"/><path class="cls-4" d="M875.39,1489.64a3.19,3.19,0,0,0,3.5,3,4.31,4.31,0,0,0,3.29-1.13l0.85,1.75s-1.33,1.36-4.46,1.36S873,1492.68,873,1489s2.28-5.52,5.47-5.52a4.69,4.69,0,0,1,4.78,4.88,4.75,4.75,0,0,1-.14,1.24h-7.75Zm0-1.54h5.7a2.51,2.51,0,0,0-2.58-2.69A2.94,2.94,0,0,0,875.39,1488.1Z" transform="translate(-564.16 -998.51)"/><path class="cls-4" d="M888.66,1492.47l1.43,0.23v1.72h-5.31v-1.72l1.49-.23v-13.25l-1.49-.23v-1.72h3.89v15.2Z" transform="translate(-564.16 -998.51)"/><path class="cls-4" d="M780,1724.11v-1.72l2-.23v-11.82h-3.82l-0.23,2.42H776l0.09-4.46h14.19l0.07,4.46H788.5l-0.25-2.42h-3.79v11.82l2,0.23v1.72H780Z" transform="translate(-564.16 -998.51)"/><path class="cls-4" d="M799.38,1715.56a4.39,4.39,0,0,0-1.22-.16c-2.6,0-3.22,2.71-3.22,2.71v4l1.82,0.18v1.79h-5.7v-1.72l1.52-.23v-6.83l-1.52-.23v-1.72h3.29l0.25,2.71h0.07a3.67,3.67,0,0,1,3.56-2.87,5.24,5.24,0,0,1,1.15.12v2.23Z" transform="translate(-564.16 -998.51)"/><path class="cls-4" d="M808.72,1714.8h0.07l0.34-1.43h1.77v8.14a0.73,0.73,0,0,0,.69.87,1.34,1.34,0,0,0,.55-0.09V1724a2.75,2.75,0,0,1-1.43.23,1.68,1.68,0,0,1-1.89-1.7v-0.07h-0.07a3.8,3.8,0,0,1-3.59,1.77c-2.67,0-4.85-1.91-4.85-5.52s2.25-5.54,5-5.54A3.94,3.94,0,0,1,808.72,1714.8Zm-0.21,6.35v-4.55a3,3,0,0,0-2.64-1.4c-1.82,0-3.2,1.17-3.2,3.56s1.52,3.54,3.15,3.54A3.23,3.23,0,0,0,808.51,1721.14Z" transform="translate(-564.16 -998.51)"/><path class="cls-4" d="M818,1724.11l-3.52-8.78-1.54-.23v-1.72h5.2v1.72l-1.17.23,2.48,6.48h0.16l2.51-6.48-1.24-.23v-1.72H826v1.72l-1.54.23-3.5,8.78h-3Z" transform="translate(-564.16 -998.51)"/><path class="cls-4" d="M829.05,1719.33a3.19,3.19,0,0,0,3.5,3,4.31,4.31,0,0,0,3.29-1.13l0.85,1.75s-1.33,1.36-4.46,1.36-5.54-1.91-5.54-5.54,2.28-5.52,5.47-5.52a4.69,4.69,0,0,1,4.78,4.88,4.75,4.75,0,0,1-.14,1.24h-7.75Zm0-1.54h5.7a2.51,2.51,0,0,0-2.58-2.69A2.94,2.94,0,0,0,829.05,1717.79Z" transform="translate(-564.16 -998.51)"/><path class="cls-4" d="M842.32,1722.16l1.43,0.23v1.72h-5.31v-1.72l1.49-.23v-13.25l-1.49-.23V1707h3.89v15.2Z" transform="translate(-564.16 -998.51)"/><path class="cls-4" d="M1016,1750.16l2,0.23v1.72h-6.53v-1.72l2-.23v-4l-5-7.91-1.77-.25v-1.72h6.37V1738l-1.79.25,3.33,5.77h0.23l3.45-5.77-1.82-.25v-1.72h6.25V1738l-1.79.25-5,7.91v4Z" transform="translate(-564.16 -998.51)"/><path class="cls-4" d="M1026.76,1752.27c-3.29,0-5.5-1.91-5.5-5.54s2.3-5.52,5.5-5.52,5.47,1.89,5.47,5.52S1030,1752.27,1026.76,1752.27Zm3.1-5.54c0-2.41-1.54-3.54-3.1-3.54s-3.15,1.13-3.15,3.54,1.43,3.56,3.15,3.56S1029.87,1749.14,1029.87,1746.73Z" transform="translate(-564.16 -998.51)"/><path class="cls-4" d="M1042.7,1750.06s-0.6,2.21-3.68,2.21c-2.76,0-4-1.77-4-4.16v-4.78l-1.52-.23v-1.72h3.91v6.32c0,1.56.64,2.6,2.42,2.6a2.61,2.61,0,0,0,2.62-1.84v-5.13l-1.4-.23v-1.72h3.79v8.78l1.52,0.23v1.72H1043l-0.25-2h-0.07Z" transform="translate(-564.16 -998.51)"/><path class="cls-4" d="M570.23,1537.92l-4.32-13.84-1.75-.25v-1.72h6.3v1.72l-1.84.25,2.71,9.93c0,0.16.23,1,.23,1h0.23s0.14-.8.18-1l3-11.91h2.12L580,1534c0,0.16.16,1,.16,1h0.25s0.16-.8.21-1l2.76-9.93-1.82-.25v-1.72h6.21v1.72l-1.75.25-4.37,13.84h-2.94l-2.53-11.06c0-.23-0.12-0.67-0.12-0.71h-0.18s0,0.48-.09.71l-2.64,11.06h-2.9Z" transform="translate(-564.16 -998.51)"/><path class="cls-4" d="M592.51,1536l1.4,0.23v1.72H588.6v-1.72l1.52-.23v-6.83l-1.52-.23v-1.72h3.91V1536Zm-1.29-11.2A1.72,1.72,0,1,1,593,1523,1.71,1.71,0,0,1,591.23,1524.77Z" transform="translate(-564.16 -998.51)"/><path class="cls-4" d="M598.93,1524.22v3h3.45V1529h-3.45v4.9c0,1.36.6,2.07,1.75,2.07a4.8,4.8,0,0,0,1.93-.32v2a7,7,0,0,1-2.41.39c-2.39,0-3.63-1.33-3.63-4V1529H595v-1.86h1.56l0.37-3h2Z" transform="translate(-564.16 -998.51)"/><path class="cls-4" d="M607.46,1529.14h0.07s0.62-2.12,3.68-2.12c2.78,0,4,1.77,4,4.16V1536l1.52,0.23v1.72h-3.89v-6.32c0-1.56-.67-2.6-2.41-2.6a2.63,2.63,0,0,0-2.64,1.93v5l1.43,0.21v1.75h-5.31v-1.72l1.52-.23v-6.83l-1.52-.23v-1.72h3.29Z" transform="translate(-564.16 -998.51)"/><path class="cls-4" d="M620.37,1533.14a3.19,3.19,0,0,0,3.5,3,4.31,4.31,0,0,0,3.29-1.13l0.85,1.75s-1.33,1.36-4.46,1.36-5.54-1.91-5.54-5.54,2.28-5.52,5.47-5.52a4.69,4.69,0,0,1,4.78,4.88,4.75,4.75,0,0,1-.14,1.24h-7.75Zm0-1.54h5.7a2.51,2.51,0,0,0-2.58-2.69A2.94,2.94,0,0,0,620.37,1531.6Z" transform="translate(-564.16 -998.51)"/><path class="cls-4" d="M629.94,1535.1a2.12,2.12,0,0,1,.12-0.69l2.14-.16a1.21,1.21,0,0,0-.07.37c0,1,.78,1.66,2.46,1.66s2.37-.55,2.37-1.4-1.29-1.17-2.71-1.43c-1.88-.34-4.09-0.83-4.09-3.29,0-1.77,1.59-3.13,4.35-3.13,3.38,0,4.55,1.38,4.55,3a1.88,1.88,0,0,1-.14.78l-2.14.14a1.93,1.93,0,0,0,.07-0.55c0-1-.64-1.56-2.23-1.56-1.08,0-2.12.41-2.12,1.4s1.47,1.26,3,1.56c2,0.39,3.84,1,3.84,3.17,0,1.75-1.31,3.13-4.69,3.13S629.94,1536.61,629.94,1535.1Z" transform="translate(-564.16 -998.51)"/><path class="cls-4" d="M641,1535.1a2.12,2.12,0,0,1,.12-0.69l2.14-.16a1.21,1.21,0,0,0-.07.37c0,1,.78,1.66,2.46,1.66s2.37-.55,2.37-1.4-1.29-1.17-2.71-1.43c-1.88-.34-4.09-0.83-4.09-3.29,0-1.77,1.59-3.13,4.35-3.13,3.38,0,4.55,1.38,4.55,3a1.88,1.88,0,0,1-.14.78l-2.14.14a1.93,1.93,0,0,0,.07-0.55c0-1-.64-1.56-2.23-1.56-1.08,0-2.12.41-2.12,1.4s1.47,1.26,3,1.56c2,0.39,3.84,1,3.84,3.17,0,1.75-1.31,3.13-4.69,3.13S641,1536.61,641,1535.1Z" transform="translate(-564.16 -998.51)"/><path class="cls-4" d="M580.42,1562.69a2.12,2.12,0,0,1,.12-0.69l2.14-.16a1.21,1.21,0,0,0-.07.37c0,1,.78,1.66,2.46,1.66s2.37-.55,2.37-1.4-1.29-1.17-2.71-1.43c-1.89-.34-4.09-0.83-4.09-3.29,0-1.77,1.59-3.13,4.35-3.13,3.38,0,4.55,1.38,4.55,3a1.88,1.88,0,0,1-.14.78l-2.14.14a1.93,1.93,0,0,0,.07-0.55c0-1-.64-1.56-2.23-1.56-1.08,0-2.12.41-2.12,1.4s1.47,1.26,3,1.56c2,0.39,3.84,1,3.84,3.17,0,1.75-1.31,3.13-4.69,3.13S580.42,1564.21,580.42,1562.69Z" transform="translate(-564.16 -998.51)"/><path class="cls-4" d="M595.43,1563.57l1.4,0.23v1.72h-5.31v-1.72l1.52-.23v-6.83l-1.52-.23v-1.72h3.91v8.78Zm-1.29-11.2a1.72,1.72,0,1,1,1.72-1.72A1.71,1.71,0,0,1,594.15,1552.37Z" transform="translate(-564.16 -998.51)"/><path class="cls-4" d="M606.68,1565.22c0-.07,0-0.92,0-0.92h-0.07a4,4,0,0,1-3.38,1.38c-2.67,0-4.85-1.91-4.85-5.52,0-3.77,2.07-5.54,4.83-5.54a4,4,0,0,1,3.56,1.82h0.07l0.34-1.66h3.29v1.72l-1.52.23v9.63c0,4-2.6,5.66-5.82,5.66a6.14,6.14,0,0,1-4.67-1.75l1-1.66s0.94,1.4,3.59,1.4c2.07,0,3.56-1,3.56-3.66v-1.15Zm-0.07-2.67V1558a3,3,0,0,0-2.64-1.4c-1.82,0-3.2,1.17-3.2,3.56s1.52,3.54,3.15,3.54A3.23,3.23,0,0,0,606.61,1562.56Z" transform="translate(-564.16 -998.51)"/><path class="cls-4" d="M615.49,1556.74h0.07s0.62-2.12,3.68-2.12c2.78,0,4,1.77,4,4.16v4.78l1.52,0.23v1.72h-3.89v-6.32c0-1.56-.67-2.6-2.41-2.6a2.63,2.63,0,0,0-2.64,1.93v5l1.43,0.21v1.75h-5.31v-1.72l1.52-.23v-6.83l-1.52-.23v-1.72h3.29Z" transform="translate(-564.16 -998.51)"/><path class="cls-4" d="M626,1562.69a2.12,2.12,0,0,1,.12-0.69l2.14-.16a1.21,1.21,0,0,0-.07.37c0,1,.78,1.66,2.46,1.66s2.37-.55,2.37-1.4-1.29-1.17-2.71-1.43c-1.88-.34-4.09-0.83-4.09-3.29,0-1.77,1.59-3.13,4.35-3.13,3.38,0,4.55,1.38,4.55,3a1.88,1.88,0,0,1-.14.78l-2.14.14a1.93,1.93,0,0,0,.07-0.55c0-1-.64-1.56-2.23-1.56-1.08,0-2.12.41-2.12,1.4s1.47,1.26,3,1.56c2,0.39,3.84,1,3.84,3.17,0,1.75-1.31,3.13-4.69,3.13S626,1564.21,626,1562.69Z" transform="translate(-564.16 -998.51)"/><path class="cls-4" d="M644.39,1305.32v-1.72l2-.23v-11.91l-2-.23v-1.72h6.9c4.74,0,8,2.35,8,7.91,0,5.73-3.24,7.91-7.66,7.91h-7.24Zm6.76-2c3.89,0,5.63-1.89,5.63-5.86,0-3.82-1.77-5.86-5.93-5.86h-2v11.73h2.32Z" transform="translate(-564.16 -998.51)"/><path class="cls-4" d="M666.63,1305.48c-3.29,0-5.5-1.91-5.5-5.54s2.3-5.52,5.5-5.52,5.47,1.89,5.47,5.52S669.92,1305.48,666.63,1305.48Zm3.1-5.54c0-2.41-1.54-3.54-3.1-3.54s-3.15,1.13-3.15,3.54,1.43,3.56,3.15,3.56S669.74,1302.36,669.74,1299.94Z" transform="translate(-564.16 -998.51)"/><path class="cls-4" d="M681.67,1299.32a1.72,1.72,0,0,0,.12-0.71c0-1.38-.76-2.21-2.53-2.21-1.93,0-3.08.9-3.08,3.54a3.25,3.25,0,0,0,3.45,3.56,4.45,4.45,0,0,0,3.36-1.13l0.83,1.75s-1.29,1.36-4.39,1.36c-3.36,0-5.59-1.91-5.59-5.54s2.07-5.52,5.47-5.52,4.6,2,4.6,3.84a2.82,2.82,0,0,1-.16.92Z" transform="translate(-564.16 -998.51)"/><path class="cls-4" d="M694.32,1303.28s-0.6,2.21-3.68,2.21c-2.76,0-4-1.77-4-4.16v-4.78l-1.52-.23v-1.72H689v6.32c0,1.56.64,2.6,2.42,2.6a2.61,2.61,0,0,0,2.62-1.84v-5.13l-1.4-.23v-1.72h3.79v8.78l1.52,0.23v1.72h-3.31l-0.25-2h-0.07Z" transform="translate(-564.16 -998.51)"/><path class="cls-4" d="M702.95,1296.54H703s0.62-2.12,3.68-2.12a3.64,3.64,0,0,1,3.59,2c0.14-.39.92-2,3.63-2s4,1.77,4,4.16v4.78l1.52,0.23v1.72h-3.91V1299c0-1.56-.64-2.6-2.41-2.6a2.57,2.57,0,0,0-2.46,1.45,7.32,7.32,0,0,1,0,.74v4.78l1.52,0.23v1.72h-3.89V1299c0-1.56-.67-2.6-2.41-2.6a2.63,2.63,0,0,0-2.64,1.93v5l1.43,0.23v1.72h-5.31v-1.72l1.52-.23v-6.83l-1.52-.23v-1.72h3.29Z" transform="translate(-564.16 -998.51)"/><path class="cls-4" d="M723.05,1300.54a3.19,3.19,0,0,0,3.5,3,4.31,4.31,0,0,0,3.29-1.13l0.85,1.75s-1.33,1.36-4.46,1.36-5.54-1.91-5.54-5.54,2.28-5.52,5.47-5.52a4.69,4.69,0,0,1,4.78,4.88,4.75,4.75,0,0,1-.14,1.24h-7.75Zm0-1.54h5.7a2.51,2.51,0,0,0-2.58-2.69A2.94,2.94,0,0,0,723.05,1299Z" transform="translate(-564.16 -998.51)"/><path class="cls-4" d="M736.16,1296.54h0.07s0.62-2.12,3.68-2.12c2.78,0,4,1.77,4,4.16v4.78l1.52,0.23v1.72h-3.89V1299c0-1.56-.67-2.6-2.41-2.6a2.63,2.63,0,0,0-2.64,1.93v5l1.43,0.21v1.75h-5.31v-1.72l1.52-.23v-6.83l-1.52-.23v-1.72h3.29Z" transform="translate(-564.16 -998.51)"/><path class="cls-4" d="M750.17,1291.62v3h3.45v1.86h-3.45v4.9c0,1.36.6,2.07,1.75,2.07a4.8,4.8,0,0,0,1.93-.32v2a7,7,0,0,1-2.41.39c-2.39,0-3.63-1.33-3.63-4v-5.06h-1.56v-1.86h1.56l0.37-3h2Z" transform="translate(-564.16 -998.51)"/><path class="cls-4" d="M641.86,1326.92a1.72,1.72,0,0,0,.12-0.71c0-1.38-.76-2.21-2.53-2.21-1.93,0-3.08.9-3.08,3.54a3.25,3.25,0,0,0,3.45,3.56,4.45,4.45,0,0,0,3.36-1.13l0.83,1.75s-1.29,1.36-4.39,1.36c-3.36,0-5.59-1.91-5.59-5.54s2.07-5.52,5.47-5.52,4.6,2,4.6,3.84a2.82,2.82,0,0,1-.16.92Z" transform="translate(-564.16 -998.51)"/><path class="cls-4" d="M648.12,1328.14a3.19,3.19,0,0,0,3.5,3,4.31,4.31,0,0,0,3.29-1.13l0.85,1.75s-1.33,1.36-4.46,1.36-5.54-1.91-5.54-5.54,2.28-5.52,5.47-5.52a4.69,4.69,0,0,1,4.78,4.88,4.75,4.75,0,0,1-.14,1.24h-7.75Zm0-1.54h5.7a2.51,2.51,0,0,0-2.58-2.69A2.94,2.94,0,0,0,648.12,1326.6Z" transform="translate(-564.16 -998.51)"/><path class="cls-4" d="M666,1324.37a4.39,4.39,0,0,0-1.22-.16c-2.6,0-3.22,2.71-3.22,2.71v4l1.82,0.18v1.79h-5.7v-1.72l1.52-.23v-6.83l-1.52-.23v-1.72H661l0.25,2.71h0.07a3.67,3.67,0,0,1,3.56-2.87,5.24,5.24,0,0,1,1.15.12v2.23Z" transform="translate(-564.16 -998.51)"/><path class="cls-4" d="M670.64,1319.22v3h3.45V1324h-3.45v4.9c0,1.36.6,2.07,1.75,2.07a4.8,4.8,0,0,0,1.93-.32v2a7,7,0,0,1-2.41.39c-2.39,0-3.63-1.33-3.63-4V1324H666.7v-1.86h1.56l0.37-3h2Z" transform="translate(-564.16 -998.51)"/><path class="cls-4" d="M679.58,1331l1.4,0.23v1.72h-5.31v-1.72l1.52-.23v-6.83l-1.52-.23v-1.72h3.91V1331Zm-1.29-11.2A1.72,1.72,0,1,1,680,1318,1.71,1.71,0,0,1,678.29,1319.77Z" transform="translate(-564.16 -998.51)"/><path class="cls-4" d="M682.55,1332.92v-1.72L684,1331V1324H682.5v-1.86H684v-2.42c0-2.78,1.4-4.21,4-4.21a5.27,5.27,0,0,1,2.07.39v2a3.63,3.63,0,0,0-1.66-.32,1.87,1.87,0,0,0-2,2.16v2.39h3.45V1324h-3.45v7l2.37,0.16v1.72h-6.25Zm12.21-2,1.4,0.23v1.72h-5.31v-1.72l1.52-.23v-6.83l-1.52-.23v-1.72h3.91V1331Zm-1.29-11.2a1.72,1.72,0,1,1,1.72-1.72A1.71,1.71,0,0,1,693.47,1319.77Z" transform="translate(-564.16 -998.51)"/><path class="cls-4" d="M705.59,1326.92a1.72,1.72,0,0,0,.12-0.71c0-1.38-.76-2.21-2.53-2.21-1.93,0-3.08.9-3.08,3.54a3.25,3.25,0,0,0,3.45,3.56,4.45,4.45,0,0,0,3.36-1.13l0.83,1.75s-1.29,1.36-4.39,1.36c-3.36,0-5.59-1.91-5.59-5.54s2.07-5.52,5.47-5.52,4.6,2,4.6,3.84a2.82,2.82,0,0,1-.16.92Z" transform="translate(-564.16 -998.51)"/><path class="cls-4" d="M717.9,1323.61H718l0.34-1.43h1.77v8.14a0.73,0.73,0,0,0,.69.87,1.34,1.34,0,0,0,.55-0.09v1.75a2.75,2.75,0,0,1-1.43.23,1.68,1.68,0,0,1-1.89-1.7v-0.07h-0.07a3.8,3.8,0,0,1-3.59,1.77c-2.67,0-4.85-1.91-4.85-5.52s2.25-5.54,5-5.54A3.94,3.94,0,0,1,717.9,1323.61Zm-0.21,6.35v-4.55A3,3,0,0,0,715,1324c-1.82,0-3.2,1.17-3.2,3.56s1.52,3.54,3.15,3.54A3.23,3.23,0,0,0,717.69,1330Z" transform="translate(-564.16 -998.51)"/><path class="cls-4" d="M726.41,1319.22v3h3.45V1324h-3.45v4.9c0,1.36.6,2.07,1.75,2.07a4.8,4.8,0,0,0,1.93-.32v2a7,7,0,0,1-2.41.39c-2.39,0-3.63-1.33-3.63-4V1324h-1.56v-1.86H724l0.37-3h2Z" transform="translate(-564.16 -998.51)"/><path class="cls-4" d="M735.36,1331l1.4,0.23v1.72h-5.31v-1.72L733,1331v-6.83l-1.52-.23v-1.72h3.91V1331Zm-1.29-11.2a1.72,1.72,0,1,1,1.72-1.72A1.71,1.71,0,0,1,734.07,1319.77Z" transform="translate(-564.16 -998.51)"/><path class="cls-4" d="M743.8,1333.08c-3.29,0-5.5-1.91-5.5-5.54s2.3-5.52,5.5-5.52,5.47,1.89,5.47,5.52S747.08,1333.08,743.8,1333.08Zm3.1-5.54c0-2.41-1.54-3.54-3.1-3.54s-3.15,1.13-3.15,3.54,1.43,3.56,3.15,3.56S746.9,1330,746.9,1327.54Z" transform="translate(-564.16 -998.51)"/><path class="cls-4" d="M754.51,1324.14h0.07s0.62-2.12,3.68-2.12c2.78,0,4,1.77,4,4.16V1331l1.52,0.23v1.72h-3.89v-6.32c0-1.56-.67-2.6-2.41-2.6a2.63,2.63,0,0,0-2.64,1.93v5l1.43,0.21v1.75H751v-1.72l1.52-.23v-6.83l-1.52-.23v-1.72h3.29Z" transform="translate(-564.16 -998.51)"/><path class="cls-4" d="M1002.2,1257.88v-1.72l2-.23V1244l-2-.25v-1.72h7.43c3.13,0,5.43,1.77,5.43,5s-2.16,5.08-5.7,5.08h-2.71v3.79l2.46,0.23v1.72h-6.9Zm6.9-7.82c2.25,0,3.45-.94,3.45-3s-1.56-2.94-3.43-2.94h-2.48v6h2.46Z" transform="translate(-564.16 -998.51)"/><path class="cls-4" d="M1024.88,1249.33a4.39,4.39,0,0,0-1.22-.16c-2.6,0-3.22,2.71-3.22,2.71v4l1.82,0.18v1.79h-5.7v-1.72l1.52-.23v-6.83l-1.52-.23v-1.72h3.29l0.25,2.71h0.07a3.67,3.67,0,0,1,3.56-2.87,5.24,5.24,0,0,1,1.15.12v2.23Z" transform="translate(-564.16 -998.51)"/><path class="cls-4" d="M1030,1255.93l1.4,0.23v1.72h-5.31v-1.72l1.52-.23v-6.83l-1.52-.23v-1.72H1030v8.78Zm-1.29-11.2a1.72,1.72,0,1,1,1.72-1.72A1.71,1.71,0,0,1,1028.7,1244.73Z" transform="translate(-564.16 -998.51)"/><path class="cls-4" d="M1036.47,1249.1h0.07s0.62-2.12,3.68-2.12c2.78,0,4,1.77,4,4.16v4.78l1.52,0.23v1.72h-3.89v-6.32c0-1.56-.67-2.6-2.41-2.6a2.63,2.63,0,0,0-2.64,1.93v5l1.43,0.21v1.75h-5.31v-1.72l1.52-.23v-6.83l-1.52-.23v-1.72h3.29Z" transform="translate(-564.16 -998.51)"/><path class="cls-4" d="M1050.48,1244.17v3h3.45V1249h-3.45v4.9c0,1.36.6,2.07,1.75,2.07a4.8,4.8,0,0,0,1.93-.32v2a7,7,0,0,1-2.41.39c-2.39,0-3.63-1.33-3.63-4V1249h-1.56v-1.86h1.56l0.37-3h2Z" transform="translate(-564.16 -998.51)"/><path class="cls-4" d="M1223.49,1207.53l2.41-.16a2,2,0,0,0-.12.64c0,1.49,1.22,2.41,3.13,2.41,2.37,0,3.33-.78,3.33-2.07,0-3.77-9.06-1.7-9.06-7.54,0-2.21,1.77-4.37,5.59-4.37s5.52,1.77,5.52,4.07a2.29,2.29,0,0,1-.21,1l-2.28.23a2.79,2.79,0,0,0,.11-0.71c0-1.33-.9-2.46-3.13-2.46-1.91,0-3.1.87-3.1,2.18,0,3.68,9.06,1.59,9.06,7.43,0,2.39-1.7,4.39-5.77,4.39s-5.7-2-5.7-4A2.29,2.29,0,0,1,1223.49,1207.53Z" transform="translate(-564.16 -998.51)"/><path class="cls-4" d="M1240.46,1210.45l1.4,0.23v1.72h-5.31v-1.72l1.52-.23v-6.83l-1.52-.23v-1.72h3.91v8.78Zm-1.29-11.2a1.72,1.72,0,1,1,1.72-1.72A1.71,1.71,0,0,1,1239.18,1199.25Z" transform="translate(-564.16 -998.51)"/><path class="cls-4" d="M1251.71,1212.11c0-.07,0-0.92,0-0.92h-0.07a4,4,0,0,1-3.38,1.38c-2.67,0-4.85-1.91-4.85-5.52,0-3.77,2.07-5.54,4.83-5.54a4,4,0,0,1,3.56,1.82h0.07l0.34-1.66h3.29v1.72l-1.52.23v9.63c0,4-2.6,5.66-5.82,5.66a6.14,6.14,0,0,1-4.67-1.75l1-1.66s0.94,1.4,3.59,1.4c2.07,0,3.56-1,3.56-3.66v-1.15Zm-0.07-2.67v-4.55a3,3,0,0,0-2.64-1.4c-1.82,0-3.2,1.17-3.2,3.56s1.52,3.54,3.15,3.54A3.23,3.23,0,0,0,1251.64,1209.44Z" transform="translate(-564.16 -998.51)"/><path class="cls-4" d="M1260.52,1203.62h0.07s0.62-2.12,3.68-2.12c2.78,0,4,1.77,4,4.16v4.78l1.52,0.23v1.72h-3.89v-6.32c0-1.56-.67-2.6-2.41-2.6a2.63,2.63,0,0,0-2.64,1.93v5l1.43,0.21v1.75H1257v-1.72l1.52-.23v-6.83l-1.52-.23v-1.72h3.29Z" transform="translate(-564.16 -998.51)"/><path class="cls-4" d="M1021,1476.62v-1.72l2-.23v-11.91l-2-.23v-1.72h12.42l0.07,4.46h-1.88l-0.25-2.42h-5.93v4.78h5.11v2h-5.11v4.92h5.91l0.25-2.39h1.89l-0.12,4.44H1021Z" transform="translate(-564.16 -998.51)"/><path class="cls-4" d="M1038.93,1467.84H1039s0.62-2.12,3.68-2.12a3.64,3.64,0,0,1,3.59,2c0.14-.39.92-2,3.63-2s4,1.77,4,4.16v4.78l1.52,0.23v1.72h-3.91v-6.32c0-1.56-.64-2.6-2.41-2.6a2.57,2.57,0,0,0-2.46,1.45,7.32,7.32,0,0,1,0,.74v4.78l1.52,0.23v1.72h-3.89v-6.32c0-1.56-.67-2.6-2.41-2.6a2.63,2.63,0,0,0-2.64,1.93v5l1.43,0.23v1.72h-5.31v-1.72l1.52-.23v-6.83l-1.52-.23v-1.72h3.29Z" transform="translate(-564.16 -998.51)"/><path class="cls-4" d="M1065.09,1467.31h0.07l0.34-1.43h1.77V1474a0.73,0.73,0,0,0,.69.87,1.34,1.34,0,0,0,.55-0.09v1.75a2.75,2.75,0,0,1-1.43.23,1.68,1.68,0,0,1-1.89-1.7V1475h-0.07a3.8,3.8,0,0,1-3.59,1.77c-2.67,0-4.85-1.91-4.85-5.52s2.25-5.54,5-5.54A3.94,3.94,0,0,1,1065.09,1467.31Zm-0.21,6.35v-4.55a3,3,0,0,0-2.64-1.4c-1.82,0-3.2,1.17-3.2,3.56s1.52,3.54,3.15,3.54A3.23,3.23,0,0,0,1064.88,1473.66Z" transform="translate(-564.16 -998.51)"/><path class="cls-4" d="M1074.08,1474.67l1.4,0.23v1.72h-5.31v-1.72l1.52-.23v-6.83l-1.52-.23v-1.72h3.91v8.78Zm-1.29-11.2a1.72,1.72,0,1,1,1.72-1.72A1.71,1.71,0,0,1,1072.79,1463.47Z" transform="translate(-564.16 -998.51)"/><path class="cls-4" d="M1080.73,1474.67l1.43,0.23v1.72h-5.31v-1.72l1.49-.23v-13.25l-1.49-.23v-1.72h3.89v15.2Z" transform="translate(-564.16 -998.51)"/><path class="cls-4" d="M1165,1578.4l2,0.23v1.72h-6.53v-1.72l2-.23v-4l-5-7.91-1.77-.25v-1.72h6.37v1.72l-1.79.25,3.33,5.77h0.23l3.45-5.77-1.82-.25v-1.72h6.25v1.72l-1.79.25-5,7.91v4Z" transform="translate(-564.16 -998.51)"/><path class="cls-4" d="M1175.81,1580.51c-3.29,0-5.5-1.91-5.5-5.54s2.3-5.52,5.5-5.52,5.47,1.89,5.47,5.52S1179.1,1580.51,1175.81,1580.51Zm3.1-5.54c0-2.41-1.54-3.54-3.1-3.54s-3.15,1.13-3.15,3.54,1.43,3.56,3.15,3.56S1178.92,1577.39,1178.92,1575Z" transform="translate(-564.16 -998.51)"/><path class="cls-4" d="M1191.75,1578.31s-0.6,2.21-3.68,2.21c-2.76,0-4-1.77-4-4.16v-4.78l-1.52-.23v-1.72h3.91v6.32c0,1.56.64,2.6,2.42,2.6a2.61,2.61,0,0,0,2.62-1.84v-5.13l-1.4-.23v-1.72h3.79v8.78l1.52,0.23v1.72h-3.31l-0.25-2h-0.07Z" transform="translate(-564.16 -998.51)"/><path class="cls-4" d="M1205.16,1571.8a4.39,4.39,0,0,0-1.22-.16c-2.6,0-3.22,2.71-3.22,2.71v4l1.82,0.18v1.79h-5.7v-1.72l1.52-.23v-6.83l-1.52-.23v-1.72h3.29l0.25,2.71h0.07a3.67,3.67,0,0,1,3.56-2.87,5.24,5.24,0,0,1,1.15.12v2.23Z" transform="translate(-564.16 -998.51)"/><path class="cls-4" d="M1218.89,1574.35a1.72,1.72,0,0,0,.12-0.71c0-1.38-.76-2.21-2.53-2.21-1.93,0-3.08.9-3.08,3.54a3.25,3.25,0,0,0,3.45,3.56,4.45,4.45,0,0,0,3.36-1.13l0.83,1.75s-1.29,1.36-4.39,1.36c-3.36,0-5.59-1.91-5.59-5.54s2.07-5.52,5.47-5.52,4.6,2,4.6,3.84a2.82,2.82,0,0,1-.16.92Z" transform="translate(-564.16 -998.51)"/><path class="cls-4" d="M1226.48,1578.4l1.43,0.23v1.72h-5.31v-1.72l1.49-.23v-13.25l-1.49-.23v-1.72h3.89v15.2Z" transform="translate(-564.16 -998.51)"/><path class="cls-4" d="M1233.4,1578.4l1.4,0.23v1.72h-5.31v-1.72l1.52-.23v-6.83l-1.52-.23v-1.72h3.91v8.78Zm-1.29-11.2a1.72,1.72,0,1,1,1.72-1.72A1.71,1.71,0,0,1,1232.12,1567.2Z" transform="translate(-564.16 -998.51)"/><path class="cls-4" d="M1238.72,1575.57a3.19,3.19,0,0,0,3.5,3,4.31,4.31,0,0,0,3.29-1.13l0.85,1.75s-1.33,1.36-4.46,1.36-5.54-1.91-5.54-5.54,2.28-5.52,5.47-5.52a4.69,4.69,0,0,1,4.78,4.88,4.75,4.75,0,0,1-.14,1.24h-7.75Zm0-1.54h5.7a2.51,2.51,0,0,0-2.58-2.69A2.94,2.94,0,0,0,1238.72,1574Z" transform="translate(-564.16 -998.51)"/><path class="cls-4" d="M1251.83,1571.57h0.07s0.62-2.12,3.68-2.12c2.78,0,4,1.77,4,4.16v4.78l1.52,0.23v1.72h-3.89V1574c0-1.56-.67-2.6-2.41-2.6a2.63,2.63,0,0,0-2.64,1.93v5l1.43,0.21v1.75h-5.31v-1.72l1.52-.23v-6.83l-1.52-.23v-1.72h3.29Z" transform="translate(-564.16 -998.51)"/><path class="cls-4" d="M1265.83,1566.65v3h3.45v1.86h-3.45v4.9c0,1.36.6,2.07,1.75,2.07a4.8,4.8,0,0,0,1.93-.32v2a7,7,0,0,1-2.41.39c-2.39,0-3.63-1.33-3.63-4v-5.06h-1.56v-1.86h1.56l0.37-3h2Z" transform="translate(-564.16 -998.51)"/><path class="cls-4" d="M1270.82,1577.53a2.12,2.12,0,0,1,.12-0.69l2.14-.16a1.21,1.21,0,0,0-.07.37c0,1,.78,1.66,2.46,1.66s2.37-.55,2.37-1.4-1.29-1.17-2.71-1.43c-1.88-.34-4.09-0.83-4.09-3.29,0-1.77,1.59-3.13,4.35-3.13,3.38,0,4.55,1.38,4.55,3a1.88,1.88,0,0,1-.14.78l-2.14.14a1.93,1.93,0,0,0,.07-0.55c0-1-.64-1.56-2.23-1.56-1.08,0-2.12.41-2.12,1.4s1.47,1.26,3,1.56c2,0.39,3.84,1,3.84,3.17,0,1.75-1.31,3.13-4.69,3.13S1270.82,1579,1270.82,1577.53Z" transform="translate(-564.16 -998.51)"/><path class="cls-4" d="M1250.5,1734.74l2.41-.16a2,2,0,0,0-.12.64c0,1.49,1.22,2.41,3.13,2.41,2.37,0,3.33-.78,3.33-2.07,0-3.77-9.06-1.7-9.06-7.54,0-2.21,1.77-4.37,5.59-4.37s5.52,1.77,5.52,4.07a2.29,2.29,0,0,1-.21,1l-2.28.23a2.79,2.79,0,0,0,.11-0.71c0-1.33-.9-2.46-3.13-2.46-1.91,0-3.1.87-3.1,2.18,0,3.68,9.06,1.59,9.06,7.43,0,2.39-1.7,4.39-5.77,4.39s-5.7-2-5.7-4A2.29,2.29,0,0,1,1250.5,1734.74Z" transform="translate(-564.16 -998.51)"/><path class="cls-4" d="M1267.47,1737.66l1.4,0.23v1.72h-5.31v-1.72l1.52-.23v-6.83l-1.52-.23v-1.72h3.91v8.78Zm-1.29-11.2a1.72,1.72,0,1,1,1.72-1.72A1.71,1.71,0,0,1,1266.18,1726.46Z" transform="translate(-564.16 -998.51)"/><path class="cls-4" d="M1278.72,1739.31c0-.07,0-0.92,0-0.92h-0.07a4,4,0,0,1-3.38,1.38c-2.67,0-4.85-1.91-4.85-5.52,0-3.77,2.07-5.54,4.83-5.54a4,4,0,0,1,3.56,1.82h0.07l0.34-1.66h3.29v1.72l-1.52.23v9.63c0,4-2.6,5.66-5.82,5.66a6.14,6.14,0,0,1-4.67-1.75l1-1.66s0.94,1.4,3.59,1.4c2.07,0,3.56-1,3.56-3.66v-1.15Zm-0.07-2.67v-4.55a3,3,0,0,0-2.64-1.4c-1.82,0-3.2,1.17-3.2,3.56s1.52,3.54,3.15,3.54A3.23,3.23,0,0,0,1278.65,1736.64Z" transform="translate(-564.16 -998.51)"/><path class="cls-4" d="M1287.52,1730.83h0.07s0.62-2.12,3.68-2.12c2.78,0,4,1.77,4,4.16v4.78l1.52,0.23v1.72h-3.89v-6.32c0-1.56-.67-2.6-2.41-2.6a2.63,2.63,0,0,0-2.64,1.93v5l1.43,0.21v1.75H1284v-1.72l1.52-.23v-6.83l-1.52-.23v-1.72h3.29Z" transform="translate(-564.16 -998.51)"/><path class="cls-4" d="M1402.3,1591.35v-1.72l2-.23v-11.91l-2-.23v-1.72h6.9c4.74,0,8,2.35,8,7.91,0,5.73-3.24,7.91-7.66,7.91h-7.24Zm6.76-2c3.89,0,5.63-1.89,5.63-5.86,0-3.82-1.77-5.86-5.93-5.86h-2v11.73h2.32Z" transform="translate(-564.16 -998.51)"/><path class="cls-4" d="M1427.46,1582h0.07l0.34-1.43h1.77v8.14a0.73,0.73,0,0,0,.69.87,1.34,1.34,0,0,0,.55-0.09v1.75a2.75,2.75,0,0,1-1.43.23,1.68,1.68,0,0,1-1.89-1.7v-0.07h-0.07a3.8,3.8,0,0,1-3.59,1.77c-2.67,0-4.85-1.91-4.85-5.52s2.25-5.54,5-5.54A3.94,3.94,0,0,1,1427.46,1582Zm-0.21,6.35v-4.55a3,3,0,0,0-2.64-1.4c-1.82,0-3.2,1.17-3.2,3.56s1.52,3.54,3.15,3.54A3.23,3.23,0,0,0,1427.25,1588.39Z" transform="translate(-564.16 -998.51)"/><path class="cls-4" d="M1436,1577.65v3h3.45v1.86H1436v4.9c0,1.36.6,2.07,1.75,2.07a4.8,4.8,0,0,0,1.93-.32v2a7,7,0,0,1-2.41.39c-2.39,0-3.63-1.33-3.63-4v-5.06H1432v-1.86h1.56l0.37-3h2Z" transform="translate(-564.16 -998.51)"/><path class="cls-4" d="M1449.38,1582h0.07l0.34-1.43h1.77v8.14a0.73,0.73,0,0,0,.69.87,1.34,1.34,0,0,0,.55-0.09v1.75a2.75,2.75,0,0,1-1.43.23,1.68,1.68,0,0,1-1.89-1.7v-0.07h-0.07a3.8,3.8,0,0,1-3.59,1.77c-2.67,0-4.85-1.91-4.85-5.52s2.25-5.54,5-5.54A3.94,3.94,0,0,1,1449.38,1582Zm-0.21,6.35v-4.55a3,3,0,0,0-2.64-1.4c-1.82,0-3.2,1.17-3.2,3.56s1.52,3.54,3.15,3.54A3.23,3.23,0,0,0,1449.17,1588.39Z" transform="translate(-564.16 -998.51)"/><path class="cls-4" d="M1461.94,1586.57a3.19,3.19,0,0,0,3.5,3,4.31,4.31,0,0,0,3.29-1.13l0.85,1.75s-1.33,1.36-4.46,1.36-5.54-1.91-5.54-5.54,2.28-5.52,5.47-5.52a4.69,4.69,0,0,1,4.78,4.88,4.75,4.75,0,0,1-.14,1.24h-7.75Zm0-1.54h5.7a2.51,2.51,0,0,0-2.58-2.69A2.94,2.94,0,0,0,1461.94,1585Z" transform="translate(-564.16 -998.51)"/><path class="cls-4" d="M1475,1582.57h0.07s0.62-2.12,3.68-2.12c2.78,0,4,1.77,4,4.16v4.78l1.52,0.23v1.72h-3.89V1585c0-1.56-.67-2.6-2.41-2.6a2.63,2.63,0,0,0-2.64,1.93v5l1.43,0.21v1.75h-5.31v-1.72l1.52-.23v-6.83l-1.52-.23v-1.72h3.29Z" transform="translate(-564.16 -998.51)"/><path class="cls-4" d="M1489.06,1577.65v3h3.45v1.86h-3.45v4.9c0,1.36.6,2.07,1.75,2.07a4.8,4.8,0,0,0,1.93-.32v2a7,7,0,0,1-2.41.39c-2.39,0-3.63-1.33-3.63-4v-5.06h-1.56v-1.86h1.56l0.37-3h2Z" transform="translate(-564.16 -998.51)"/><path class="cls-4" d="M1502.37,1582.8a4.39,4.39,0,0,0-1.22-.16c-2.6,0-3.22,2.71-3.22,2.71v4l1.82,0.18v1.79H1494v-1.72l1.52-.23v-6.83l-1.52-.23v-1.72h3.29l0.25,2.71h0.07a3.67,3.67,0,0,1,3.56-2.87,5.24,5.24,0,0,1,1.15.12v2.23Z" transform="translate(-564.16 -998.51)"/><path class="cls-4" d="M1512.17,1589.88h-0.07c-0.32.58-1.22,1.63-3.43,1.63-2.81,0-4-1.77-4-4.16v-4.78l-1.54-.23v-1.72H1507v6.32c0,1.56.64,2.6,2.39,2.6a2.68,2.68,0,0,0,2.67-1.91v-5.06l-1.45-.23v-1.72h3.82v11.82c0,3.84-2.44,5.5-5.68,5.5a5.85,5.85,0,0,1-4.51-1.75l1-1.66a4,4,0,0,0,3.4,1.4c2.14,0,3.5-1,3.5-3.5v-2.55Z" transform="translate(-564.16 -998.51)"/><path class="cls-4" d="M1225,1377.35v-1.72l2-.23v-11.91l-2-.23v-1.72h12.42l0.07,4.46h-1.88l-0.25-2.42h-5.93v4.78h5.11v2h-5.11v5l3.61,0.23v1.72h-8Z" transform="translate(-564.16 -998.51)"/><path class="cls-4" d="M1243.26,1377.51c-3.29,0-5.5-1.91-5.5-5.54s2.3-5.52,5.5-5.52,5.47,1.89,5.47,5.52S1246.54,1377.51,1243.26,1377.51Zm3.1-5.54c0-2.41-1.54-3.54-3.1-3.54s-3.15,1.13-3.15,3.54,1.43,3.56,3.15,3.56S1246.36,1374.39,1246.36,1372Z" transform="translate(-564.16 -998.51)"/><path class="cls-4" d="M1258.76,1368.8a4.39,4.39,0,0,0-1.22-.16c-2.6,0-3.22,2.71-3.22,2.71v4l1.82,0.18v1.79h-5.7v-1.72l1.52-.23v-6.83l-1.52-.23v-1.72h3.29l0.25,2.71H1254a3.67,3.67,0,0,1,3.56-2.87,5.24,5.24,0,0,1,1.15.12v2.23Z" transform="translate(-564.16 -998.51)"/><path class="cls-4" d="M1263.45,1368.57h0.07s0.62-2.12,3.68-2.12a3.64,3.64,0,0,1,3.59,2c0.14-.39.92-2,3.63-2s4,1.77,4,4.16v4.78l1.52,0.23v1.72h-3.91V1371c0-1.56-.64-2.6-2.41-2.6a2.57,2.57,0,0,0-2.46,1.45,7.32,7.32,0,0,1,0,.74v4.78l1.52,0.23v1.72h-3.89V1371c0-1.56-.67-2.6-2.41-2.6a2.63,2.63,0,0,0-2.64,1.93v5l1.43,0.23v1.72h-5.31v-1.72l1.52-.23v-6.83l-1.52-.23v-1.72h3.29Z" transform="translate(-564.16 -998.51)"/><path class="cls-4" d="M1286.2,1374.53a2.12,2.12,0,0,1,.12-0.69l2.14-.16a1.21,1.21,0,0,0-.07.37c0,1,.78,1.66,2.46,1.66s2.37-.55,2.37-1.4-1.29-1.17-2.71-1.43c-1.88-.34-4.09-0.83-4.09-3.29,0-1.77,1.59-3.13,4.35-3.13,3.38,0,4.55,1.38,4.55,3a1.88,1.88,0,0,1-.14.78l-2.14.14a1.93,1.93,0,0,0,.07-0.55c0-1-.64-1.56-2.23-1.56-1.08,0-2.12.41-2.12,1.4s1.47,1.26,3,1.56c2,0.39,3.84,1,3.84,3.17,0,1.75-1.31,3.13-4.69,3.13S1286.2,1376,1286.2,1374.53Z" transform="translate(-564.16 -998.51)"/><path class="cls-4" d="M1300.73,1363.65v3h3.45v1.86h-3.45v4.9c0,1.36.6,2.07,1.75,2.07a4.8,4.8,0,0,0,1.93-.32v2a7,7,0,0,1-2.41.39c-2.39,0-3.63-1.33-3.63-4v-5.06h-1.56v-1.86h1.56l0.37-3h2Z" transform="translate(-564.16 -998.51)"/><path class="cls-4" d="M1311.22,1377.51c-3.29,0-5.5-1.91-5.5-5.54s2.3-5.52,5.5-5.52,5.47,1.89,5.47,5.52S1314.51,1377.51,1311.22,1377.51Zm3.1-5.54c0-2.41-1.54-3.54-3.1-3.54s-3.15,1.13-3.15,3.54,1.43,3.56,3.15,3.56S1314.32,1374.39,1314.32,1372Z" transform="translate(-564.16 -998.51)"/><path class="cls-4" d="M1326.72,1368.8a4.39,4.39,0,0,0-1.22-.16c-2.6,0-3.22,2.71-3.22,2.71v4l1.82,0.18v1.79h-5.7v-1.72l1.52-.23v-6.83l-1.52-.23v-1.72h3.29l0.25,2.71H1322a3.67,3.67,0,0,1,3.56-2.87,5.24,5.24,0,0,1,1.15.12v2.23Z" transform="translate(-564.16 -998.51)"/><path class="cls-4" d="M1336.06,1368h0.07l0.34-1.43h1.77v8.14a0.73,0.73,0,0,0,.69.87,1.34,1.34,0,0,0,.55-0.09v1.75a2.75,2.75,0,0,1-1.43.23,1.68,1.68,0,0,1-1.89-1.7v-0.07h-0.07a3.8,3.8,0,0,1-3.59,1.77c-2.67,0-4.85-1.91-4.85-5.52s2.25-5.54,5-5.54A3.94,3.94,0,0,1,1336.06,1368Zm-0.21,6.35v-4.55a3,3,0,0,0-2.64-1.4c-1.82,0-3.2,1.17-3.2,3.56s1.52,3.54,3.15,3.54A3.23,3.23,0,0,0,1335.85,1374.39Z" transform="translate(-564.16 -998.51)"/><path class="cls-4" d="M1349.4,1377.05c0-.07,0-0.92,0-0.92h-0.07a4,4,0,0,1-3.38,1.38c-2.67,0-4.85-1.91-4.85-5.52,0-3.77,2.07-5.54,4.83-5.54a4,4,0,0,1,3.56,1.82h0.07l0.34-1.66h3.29v1.72l-1.52.23v9.63c0,4-2.6,5.66-5.82,5.66a6.14,6.14,0,0,1-4.67-1.75l1-1.66s0.94,1.4,3.59,1.4c2.07,0,3.56-1,3.56-3.66v-1.15Zm-0.07-2.67v-4.55a3,3,0,0,0-2.64-1.4c-1.82,0-3.2,1.17-3.2,3.56s1.52,3.54,3.15,3.54A3.23,3.23,0,0,0,1349.33,1374.39Z" transform="translate(-564.16 -998.51)"/><path class="cls-4" d="M1357,1372.57a3.19,3.19,0,0,0,3.5,3,4.31,4.31,0,0,0,3.29-1.13l0.85,1.75s-1.33,1.36-4.46,1.36-5.54-1.91-5.54-5.54,2.28-5.52,5.47-5.52a4.69,4.69,0,0,1,4.78,4.88,4.75,4.75,0,0,1-.14,1.24H1357Zm0-1.54h5.7a2.51,2.51,0,0,0-2.58-2.69A2.94,2.94,0,0,0,1357,1371Z" transform="translate(-564.16 -998.51)"/><path class="cls-4" d="M1377,1281.91v-1.72l2-.23V1268l-2-.23v-1.72h6.9c4.74,0,8,2.35,8,7.91,0,5.73-3.24,7.91-7.66,7.91H1377Zm6.76-2c3.89,0,5.63-1.89,5.63-5.86,0-3.82-1.77-5.86-5.93-5.86h-2v11.73h2.32Z" transform="translate(-564.16 -998.51)"/><path class="cls-4" d="M1402.19,1272.59h0.07l0.34-1.43h1.77v8.14a0.73,0.73,0,0,0,.69.87,1.34,1.34,0,0,0,.55-0.09v1.75a2.75,2.75,0,0,1-1.43.23,1.68,1.68,0,0,1-1.89-1.7v-0.07h-0.07a3.8,3.8,0,0,1-3.59,1.77c-2.67,0-4.85-1.91-4.85-5.52s2.25-5.54,5-5.54A3.94,3.94,0,0,1,1402.19,1272.59Zm-0.21,6.35v-4.55a3,3,0,0,0-2.64-1.4c-1.82,0-3.2,1.17-3.2,3.56s1.52,3.54,3.15,3.54A3.23,3.23,0,0,0,1402,1278.94Z" transform="translate(-564.16 -998.51)"/><path class="cls-4" d="M1410.71,1268.2v3h3.45V1273h-3.45v4.9c0,1.36.6,2.07,1.75,2.07a4.8,4.8,0,0,0,1.93-.32v2a7,7,0,0,1-2.41.39c-2.39,0-3.63-1.33-3.63-4V1273h-1.56v-1.86h1.56l0.37-3h2Z" transform="translate(-564.16 -998.51)"/><path class="cls-4" d="M1424.11,1272.59h0.07l0.34-1.43h1.77v8.14a0.73,0.73,0,0,0,.69.87,1.34,1.34,0,0,0,.55-0.09v1.75a2.75,2.75,0,0,1-1.43.23,1.68,1.68,0,0,1-1.89-1.7v-0.07h-0.07a3.8,3.8,0,0,1-3.59,1.77c-2.67,0-4.85-1.91-4.85-5.52s2.25-5.54,5-5.54A3.94,3.94,0,0,1,1424.11,1272.59Zm-0.21,6.35v-4.55a3,3,0,0,0-2.64-1.4c-1.82,0-3.2,1.17-3.2,3.56s1.52,3.54,3.15,3.54A3.23,3.23,0,0,0,1423.91,1278.94Z" transform="translate(-564.16 -998.51)"/><path class="cls-4" d="M1432.07,1280.27l-0.35,1.63H1430v-15.2l-1.52-.23v-1.72h3.91v6.71c0,0.07-.11.92-0.11,0.92h0.07a4,4,0,0,1,3.38-1.38c2.67,0,4.85,1.91,4.85,5.52,0,3.77-2.07,5.54-4.83,5.54a4,4,0,0,1-3.56-1.79h-0.07Zm0.28-6.14v4.55a2.91,2.91,0,0,0,2.64,1.43c1.82,0,3.2-1.2,3.2-3.59s-1.52-3.56-3.15-3.56A3.2,3.2,0,0,0,1432.35,1274.13Z" transform="translate(-564.16 -998.51)"/><path class="cls-4" d="M1450.68,1272.59h0.07l0.34-1.43h1.77v8.14a0.73,0.73,0,0,0,.69.87,1.34,1.34,0,0,0,.55-0.09v1.75a2.75,2.75,0,0,1-1.43.23,1.68,1.68,0,0,1-1.89-1.7v-0.07h-0.07a3.8,3.8,0,0,1-3.59,1.77c-2.67,0-4.85-1.91-4.85-5.52s2.25-5.54,5-5.54A3.94,3.94,0,0,1,1450.68,1272.59Zm-0.21,6.35v-4.55a3,3,0,0,0-2.64-1.4c-1.82,0-3.2,1.17-3.2,3.56s1.52,3.54,3.15,3.54A3.23,3.23,0,0,0,1450.47,1278.94Z" transform="translate(-564.16 -998.51)"/><path class="cls-4" d="M1455.72,1279.08a2.12,2.12,0,0,1,.12-0.69l2.14-.16a1.21,1.21,0,0,0-.07.37c0,1,.78,1.66,2.46,1.66s2.37-.55,2.37-1.4-1.29-1.17-2.71-1.43c-1.89-.34-4.09-0.83-4.09-3.29,0-1.77,1.59-3.13,4.35-3.13,3.38,0,4.55,1.38,4.55,3a1.88,1.88,0,0,1-.14.78l-2.14.14a1.93,1.93,0,0,0,.07-0.55c0-1-.64-1.56-2.23-1.56-1.08,0-2.12.41-2.12,1.4s1.47,1.26,3,1.56c2,0.39,3.84,1,3.84,3.17,0,1.75-1.31,3.13-4.69,3.13S1455.72,1280.6,1455.72,1279.08Z" transform="translate(-564.16 -998.51)"/><path class="cls-4" d="M1469.15,1277.12a3.19,3.19,0,0,0,3.5,3,4.31,4.31,0,0,0,3.29-1.13l0.85,1.75s-1.33,1.36-4.46,1.36-5.54-1.91-5.54-5.54,2.28-5.52,5.47-5.52a4.69,4.69,0,0,1,4.78,4.88,4.75,4.75,0,0,1-.14,1.24h-7.75Zm0-1.54h5.7a2.51,2.51,0,0,0-2.58-2.69A2.94,2.94,0,0,0,1469.15,1275.58Z" transform="translate(-564.16 -998.51)"/></svg>