<svg xmlns="http://www.w3.org/2000/svg" viewBox="0 0 919 425.4"><g opacity=".2"><path d="M130.7 273.6c.8-1.1 1.5-2.2 2.3-3.2" fill="none" stroke="#3993D0" stroke-width="4" stroke-linecap="round" stroke-linejoin="round"/><path d="M142.2 258.1c25.2-32.7 60.2-70.7 105.5-101 34.6-23.2 66.6-36.2 93.3-43.7" fill="none" stroke="#3993D0" stroke-width="4" stroke-linecap="round" stroke-linejoin="round" stroke-dasharray="8.1526,15.2861"/><path d="M348.5 111.5c1.3-.3 2.6-.6 3.9-1" fill="none" stroke="#3993D0" stroke-width="4" stroke-linecap="round" stroke-linejoin="round"/><path fill="#3993D0" d="M136.7 275.7l-10.9 5 1.2-12m225-151.9l8.8-8.1-11.5-3.6"/></g><g opacity=".2"><path d="M772.8 273.6c-.8-1.1-1.5-2.2-2.3-3.2" fill="none" stroke="#3993D0" stroke-width="4" stroke-linecap="round" stroke-linejoin="round"/><path d="M761.3 258.1c-25.2-32.7-60.2-70.7-105.5-101-34.6-23.2-66.6-36.2-93.3-43.7" fill="none" stroke="#3993D0" stroke-width="4" stroke-linecap="round" stroke-linejoin="round" stroke-dasharray="8.1526,15.2861"/><path d="M555.1 111.5c-1.3-.3-2.6-.6-3.9-1" fill="none" stroke="#3993D0" stroke-width="4" stroke-linecap="round" stroke-linejoin="round"/><path fill="#3993D0" d="M776.6 268.7l1.2 12-10.9-5M554.2 105.1l-11.4 3.6 8.8 8.1"/></g><path fill="#FFF" d="M810.4 337.4l.2 18.4 4.8-.1-.5-17.9"/><path d="M835.9 355.7v-18h4v-17c0-2.8-2.2-5-5-5h-10c-2.8 0-5 2.2-5 5v17h4v18" fill="none"/><path d="M818.9 332.7h5v-18c0-3.3-2.7-6-6-6h-10c-3.3 0-6 2.7-6 6v18h5" fill="#63BCEA" stroke="#153860" stroke-miterlimit="10"/><path fill="none" d="M806.9 332.7h12v23h-12z"/><circle cx="812.9" cy="299.7" r="5" fill="none" stroke="#153860" stroke-miterlimit="10"/><path fill="none" stroke="#153860" stroke-width="2" stroke-linejoin="round" stroke-miterlimit="10" d="M812.9 355.7v-20"/><circle cx="812.9" cy="299.7" r="5" fill="none" stroke="#153860" stroke-width="2" stroke-linejoin="round" stroke-miterlimit="10"/><path d="M818.9 332.7h5v-18c0-3.3-2.7-6-6-6h-10c-3.3 0-6 2.7-6 6v18h5" fill="none" stroke="#153860" stroke-width="2" stroke-linejoin="round" stroke-miterlimit="10"/><path d="M801.9 355.7v-18h4v-17c0-2.8-2.2-5-5-5h-10c-2.8 0-5 2.2-5 5v17h4v18" fill="none"/><path d="M805.9 337.7v-17c0-2.8-2.2-5-5-5h-10c-2.8 0-5 2.2-5 5v17h20zm34 0v-17c0-2.8-2.2-5-5-5h-10c-2.8 0-5 2.2-5 5v17h20z" fill="#63BCEA"/><circle cx="795.9" cy="307.7" r="4" fill="none" stroke="#153860" stroke-miterlimit="10"/><path fill="none" stroke="#153860" stroke-width="2" stroke-linejoin="round" stroke-miterlimit="10" d="M795.9 355.7v-15"/><circle cx="795.9" cy="307.7" r="4" fill="none" stroke="#153860" stroke-width="2" stroke-linejoin="round" stroke-miterlimit="10"/><path d="M823.9 355.7h12v-18h4v-17c0-2.8-2.2-5-5-5h-10c-2.8 0-5 2.2-5 5v17h4v18m-17.8 0c4.6 0 9.3.1 13.8.1m-18-.2v-18h4v-17c0-2.8-2.2-5-5-5h-10c-2.8 0-5 2.2-5 5v17h4v18c0 .1 5.2.1 12 0m0 .1v-.1" fill="none" stroke="#153860" stroke-width="2" stroke-linecap="round" stroke-linejoin="round" stroke-miterlimit="10"/><circle cx="829.9" cy="307.7" r="4" fill="none" stroke="#153860" stroke-miterlimit="10"/><path fill="none" stroke="#153860" stroke-width="2" stroke-linejoin="round" stroke-miterlimit="10" d="M829.9 355.7v-15"/><circle cx="829.9" cy="307.7" r="4" fill="none" stroke="#153860" stroke-width="2" stroke-linejoin="round" stroke-miterlimit="10"/><path fill="none" stroke="#153860" stroke-width="2" stroke-linejoin="round" stroke-miterlimit="10" d="M812.9 311.7v2m0 2v2m17 1v2m-34-2v2"/><path fill="none" d="M101.1 322.8h12v10h-12z"/><path d="M117.1 309.8c-1.1 0-2-.9-2-2v-2c0-1.1-.9-2-2-2v-2l-4 2h-8c-1.1 0-2 .9-2 2v2c0 1.1-.9 2-2 2h-1v3l1.2 3c.7 4.7 3.7 10 9.8 10s9.2-5.3 9.8-10l1.2-3v-3h-1z" fill="none" stroke="#153860" stroke-miterlimit="10"/><path d="M81.1 354.8v-11c0-6.1 5-8 11-10l4-1h22l4 1c6 2 11 3.9 11 10v11h-52z" fill="#63BCEA"/><path d="M96.1 332.8l-4 1c-6 2-11 3.9-11 10v11h52v-11c0-6.1-5-8-11-10l-4-1m-27 16v6m32-6v6m-22-26v-5m12 5v-5m-17-14v-8c0-1.7 1.3-3 3-3h1c0-1.7 1.3-3 3-3h11c2.2 0 4 1.8 4 4v10h-1c-1.1 0-2-.9-2-2v-2c0-1.1-.9-2-2-2v-2l-4 2h-8c-1.1 0-2 .9-2 2v2c0 1.1-.9 2-2 2h-1z" fill="none" stroke="#153860" stroke-width="2" stroke-linejoin="round" stroke-miterlimit="10"/><path d="M118.1 309.8v3l-1 1c0 5-3 12-10 12s-10-7-10-12l-1-1v-3" fill="none" stroke="#153860" stroke-width="2" stroke-linejoin="round" stroke-miterlimit="10"/><path fill="#FFF" d="M103.1 336.8l-9-4 5-4 8 2v2m4 4l9-4-5-4-8 2v2"/><path fill="none" stroke="#153860" stroke-width="2" stroke-linejoin="round" stroke-miterlimit="10" d="M103.1 336.8l-9-4 5-4 8 2v2zm8 0l9-4-5-4-8 2v2z"/><path fill="#FFF" stroke="#153860" stroke-width="2" stroke-linejoin="round" stroke-miterlimit="10" d="M105.5 334.5l-3.5 20.3 5.6 5 5.5-5-4.5-20.3-1.5-1.7z"/><path d="M95 354.5v-9c0-6.1-5-9-11-11l-6-2H60l-6 2c-6 2-11 4.9-11 11v9" fill="#63BCEA" stroke="#153860" stroke-miterlimit="10"/><path d="M60 332.5l-6 2c-6 2-11 4.9-11 11v9s51.8.2 52 0v-9c0-6.1-5-9-11-11l-6-2" fill="none" stroke="#153860" stroke-width="2" stroke-miterlimit="10"/><path fill="#FFF" stroke="#153860" stroke-width="2" stroke-linejoin="round" stroke-miterlimit="10" d="M75 328.5l3 2 6 9h-6l-9 12-9-12h-6l6-9 3-2v-5h12z"/><path fill="none" stroke="#153860" stroke-width="2" stroke-linejoin="round" stroke-miterlimit="10" d="M53 348.5v6m32-6v6"/><path d="M66 301.5c0 3 3 10 12 10 0 7.2-1 14-9 14s-9-6.8-9-14v-2c0-2.2 1.8-4 4-4h3" fill="#FFF"/><path d="M66 301.5c0 3 3 10 12 10 0 7.2-1 14-9 14s-9-6.8-9-14v-2c0-2.2 1.8-4 4-4h3" fill="none" stroke="#153860" stroke-width="2" stroke-linejoin="round" stroke-miterlimit="10"/><path d="M63 326.5c-3 0-9-2-9-2s2-8 2-13v-6c0-5.5 4.5-10 10-10h6c5.5 0 10 4.5 10 10v6c0 5 2 13 2 13s-6 2-9 2" fill="none" stroke="#153860" stroke-width="2" stroke-linejoin="round" stroke-miterlimit="10"/><path fill="none" stroke="#153860" stroke-width="2" stroke-linejoin="round" stroke-miterlimit="10" d="M63 323.5v9l6 19 6-19v-9"/><path d="M75.3 390.6l2 .2v1.7h-6.5v-1.7l2-.2v-4l-5-7.9-1.8-.3v-1.7h6.4v1.7l-1.8.3 3.3 5.8h.2l3.4-5.8-1.8-.3v-1.7H82v1.7l-1.8.3-5 7.9v4zm10.8 2.1c-3.3 0-5.5-1.9-5.5-5.5s2.3-5.5 5.5-5.5 5.5 1.9 5.5 5.5-2.2 5.5-5.5 5.5zm3.1-5.6c0-2.4-1.5-3.5-3.1-3.5s-3.2 1.1-3.2 3.5 1.4 3.6 3.2 3.6c1.7 0 3.1-1.1 3.1-3.6zm12.8 3.4s-.6 2.2-3.7 2.2c-2.8 0-4-1.8-4-4.2v-4.8l-1.5-.2v-1.7h3.9v6.3c0 1.6.6 2.6 2.4 2.6 1.9 0 2.5-1.5 2.6-1.8v-5.1l-1.4-.2v-1.7h3.8v8.8l1.5.2v1.7h-3.3l-.3-2.1zm657.6 1.1l2 .2v1.7h-6.5v-1.7l2-.2v-4l-5-7.9-1.8-.3v-1.7h6.4v1.7l-1.8.3 3.3 5.8h.2l3.4-5.8-1.8-.3v-1.7h6.3v1.7l-1.8.3-5 7.9v4zm10.7 2.2c-3.3 0-5.5-1.9-5.5-5.5s2.3-5.5 5.5-5.5 5.5 1.9 5.5 5.5-2.2 5.5-5.5 5.5zm3.1-5.6c0-2.4-1.5-3.5-3.1-3.5s-3.2 1.1-3.2 3.5 1.4 3.6 3.2 3.6c1.7 0 3.1-1.2 3.1-3.6zm12.9 3.4s-.6 2.2-3.7 2.2c-2.8 0-4-1.8-4-4.2v-4.8l-1.5-.2v-1.7h3.9v6.3c0 1.6.6 2.6 2.4 2.6 1.9 0 2.5-1.5 2.6-1.8v-5.1l-1.4-.2V383h3.8v8.8l1.5.2v1.7h-3.3l-.3-2.1zm13.4-6.6c-.2 0-.6-.2-1.2-.2-2.6 0-3.2 2.7-3.2 2.7v4l1.8.2v1.8h-5.7v-1.7l1.5-.2v-6.8l-1.5-.2v-1.7h3.3l.3 2.7h.1s.6-2.9 3.6-2.9c.5 0 1 .1 1.1.1v2.2zm13.7 2.6s.1-.2.1-.7c0-1.4-.8-2.2-2.5-2.2-1.9 0-3.1.9-3.1 3.5 0 2.4 1.5 3.6 3.4 3.6 2.4 0 3.4-1.1 3.4-1.1l.8 1.7s-1.3 1.4-4.4 1.4c-3.4 0-5.6-1.9-5.6-5.5 0-3.7 2.1-5.5 5.5-5.5s4.6 2 4.6 3.8c0 .5-.2.9-.2.9l-2 .1zm7.6 4l1.4.2v1.7h-5.3v-1.7l1.5-.2v-13.2l-1.5-.2v-1.7h3.9v15.1zm6.9 0l1.4.2v1.7H824v-1.7l1.5-.2v-6.8l-1.5-.2v-1.7h3.9v8.7zm-1.3-11.2c-1 0-1.7-.8-1.7-1.7s.8-1.7 1.7-1.7c.9 0 1.7.8 1.7 1.7s-.7 1.7-1.7 1.7zm6.6 8.4c.2 2 1.7 3 3.5 3 2.3 0 3.3-1.1 3.3-1.1l.9 1.7s-1.3 1.4-4.5 1.4-5.5-1.9-5.5-5.5 2.3-5.5 5.5-5.5c3.1 0 4.8 2.4 4.8 4.9 0 .8-.1 1.2-.1 1.2h-7.9zm0-1.5h5.7c0-1.9-1.3-2.7-2.6-2.7-1.6 0-2.9 1-3.1 2.7zm13.2-2.5c.1 0 .7-2.1 3.7-2.1 2.8 0 4 1.8 4 4.2v4.8l1.5.2v1.7h-3.9v-6.3c0-1.6-.7-2.6-2.4-2.6-2.1 0-2.6 1.7-2.6 1.9v5l1.4.2v1.7h-5.3v-1.7l1.5-.2v-6.8l-1.5-.2v-1.7h3.3l.3 1.9zm14-4.9v3h3.4v1.9h-3.4v4.9c0 1.4.6 2.1 1.7 2.1 1.3 0 1.9-.3 1.9-.3v2s-1 .4-2.4.4c-2.4 0-3.6-1.3-3.6-4v-5.1h-1.6v-1.9h1.6l.4-3h2zm5 10.9c0-.4.1-.7.1-.7l2.1-.2s-.1.2-.1.4c0 1 .8 1.7 2.5 1.7s2.4-.6 2.4-1.4c0-.9-1.3-1.2-2.7-1.4-1.9-.3-4.1-.8-4.1-3.3 0-1.8 1.6-3.1 4.3-3.1 3.4 0 4.6 1.4 4.6 3 0 .5-.1.8-.1.8l-2.1.1s.1-.2.1-.6c0-1-.6-1.6-2.2-1.6-1.1 0-2.1.4-2.1 1.4 0 1.1 1.5 1.3 3 1.6 2 .4 3.8 1 3.8 3.2 0 1.7-1.3 3.1-4.7 3.1-3.7 0-4.8-1.5-4.8-3z" fill="#3993D0"/><path d="M368.3 242.6s.1-.3.1-.8c0-1.8-1-2.9-3.3-2.9-2.4 0-4 1.2-4 4.5 0 3.1 2 4.6 4.4 4.6 2.9 0 4-1.3 4-1.3l.8 1.6s-1.4 1.6-5 1.6c-3.8 0-6.4-2.3-6.4-6.4 0-4.3 2.4-6.4 6.3-6.4s5.3 2.2 5.3 4.5c0 .5-.2 1-.2 1h-2zm13.3-3.3c-.3-.1-.7-.2-1.4-.2-2.9 0-3.7 3.2-3.7 3.5v5.3l2.1.3v1.5h-6.1v-1.5l1.8-.3V239l-1.8-.3v-1.6h3.5l.2 3.2h.1s.6-3.3 4-3.3c.6 0 1.1.1 1.4.1v2.2zm12.7 4.8h-9.5c.3 2.7 2.2 3.9 4.4 3.9 2.9 0 4-1.3 4-1.3l.8 1.6s-1.5 1.6-5 1.6c-3.7 0-6.4-2.3-6.4-6.4 0-4.2 2.7-6.4 6.3-6.4 3.3 0 5.5 2.6 5.5 5.7.1.8-.1 1.3-.1 1.3zm-9.5-1.6h7.6c-.1-2.5-1.8-3.6-3.4-3.6-2.2 0-4 1.2-4.2 3.6zm24.2 7.1s-.3.2-1.4.2c-1.4 0-2-.9-2-2.2v-.1h-.1s-1 2.2-4.7 2.2c-2.6 0-4.3-1.6-4.3-3.6 0-2.5 2.2-3.8 5.7-3.8 1.8 0 3 .6 3 .6v-1.3c0-2-1.2-2.9-3.4-2.9-2.1 0-3.2 1-3.2 2.3 0 .4.1.6.1.6l-1.9-.1s-.1-.3-.1-.9c0-1.8 1.5-3.7 5.2-3.7 3.4 0 5.5 1.5 5.5 4.8v5.3c0 .6.3 1 .8 1 .4 0 .6-.1.6-.1v1.7zm-3.7-5s-1.2-.6-2.8-.6c-2.1 0-3.7.7-3.7 2.3 0 1.2 1.1 1.9 2.6 1.9 2.7 0 3.9-2 3.9-2v-1.6zm9-10.7v3.4h4v1.8h-4v6.4c0 1.7.7 2.6 2.1 2.6 1.4 0 2.2-.4 2.2-.4v1.9s-1 .4-2.6.4c-2.5 0-3.9-1.4-3.9-4.3V239h-1.9v-1.8h1.9l.4-3.4h1.8zm17.6 10.2h-9.5c.3 2.7 2.2 3.9 4.4 3.9 2.9 0 4-1.3 4-1.3l.8 1.6s-1.5 1.6-5 1.6c-3.7 0-6.4-2.3-6.4-6.4 0-4.2 2.7-6.4 6.3-6.4 3.3 0 5.5 2.6 5.5 5.7 0 .8-.1 1.3-.1 1.3zm-9.5-1.6h7.6c-.1-2.5-1.8-3.6-3.4-3.6-2.2 0-4 1.2-4.2 3.6zm13.5 7.4c-.8 0-1.4-.6-1.4-1.4 0-.8.7-1.4 1.4-1.4.8 0 1.4.7 1.4 1.4.1.7-.6 1.4-1.4 1.4zm10.2-3.5c0-.5.1-.8.1-.8l2-.2s-.1.2-.1.4c0 1.2 1 2.2 3.2 2.2s3.2-.7 3.2-1.8c0-1.2-1.6-1.6-3.4-1.9-2.2-.4-4.8-1-4.8-3.7 0-2.1 2-3.5 4.9-3.5 3.7 0 5.1 1.5 5.1 3.4 0 .6-.1.9-.1.9l-2 .1s.1-.3.1-.7c0-1.3-.9-2-3-2-1.4 0-2.8.5-2.8 1.8 0 1.4 1.7 1.7 3.6 2 2.4.5 4.6 1.2 4.6 3.7 0 2-1.5 3.6-5.3 3.6s-5.3-1.7-5.3-3.5zm16.8 1.5l1.7.3v1.5h-5.8v-1.5l1.8-.3V239l-1.8-.3v-1.6h4v10.8zm-1.2-13.9c-.9 0-1.7-.7-1.7-1.7 0-.9.7-1.7 1.7-1.7s1.7.7 1.7 1.7c.1.9-.7 1.7-1.7 1.7zm14.8 14.2c-.1 0-1.1 1.7-4.1 1.7-3.1 0-5.7-2.3-5.7-6.4 0-4.3 2.5-6.4 5.7-6.4 3 0 4.2 2.1 4.2 2.1h.1l.3-1.9h3.5v1.6l-1.8.3V251c0 4.6-2.9 6.4-6.6 6.4-3.7 0-5.3-2-5.3-2l1-1.5s1.1 1.6 4.3 1.6c2.5 0 4.5-1.2 4.5-4.6v-2.7zm0-1.8v-5.6c-.6-1.2-2.1-1.9-3.6-1.9-2.2 0-4.1 1.5-4.1 4.6 0 3.1 2.1 4.5 4 4.5 2.2 0 3.3-1.1 3.7-1.6zm9.7 1.5l1.7.2v1.6h-5.8v-1.5l1.8-.3V239l-1.8-.3v-1.6h3.5l.2 2.4h.1s.7-2.5 4.4-2.5c3.2 0 4.7 2.1 4.7 4.9v6l1.8.3v1.5h-4v-7.5c0-1.9-.8-3.3-3.1-3.3-2.9 0-3.5 2.6-3.5 2.6v6.4zm14 2c-.8 0-1.4-.6-1.4-1.4 0-.8.7-1.4 1.4-1.4.8 0 1.4.7 1.4 1.4.1.7-.6 1.4-1.4 1.4zm10.2-3.5c0-.5.1-.8.1-.8l2-.2s-.1.2-.1.4c0 1.2 1 2.2 3.2 2.2s3.2-.7 3.2-1.8c0-1.2-1.6-1.6-3.4-1.9-2.2-.4-4.8-1-4.8-3.7 0-2.1 2-3.5 4.9-3.5 3.7 0 5.1 1.5 5.1 3.4 0 .6-.1.9-.1.9l-2 .1s.1-.3.1-.7c0-1.3-.9-2-3-2-1.4 0-2.8.5-2.8 1.8 0 1.4 1.7 1.7 3.6 2 2.3.5 4.6 1.2 4.6 3.7 0 2-1.5 3.6-5.3 3.6s-5.3-1.7-5.3-3.5zm24.5-2.3h-9.5c.3 2.7 2.2 3.9 4.4 3.9 2.9 0 4-1.3 4-1.3l.8 1.6s-1.5 1.6-5 1.6c-3.7 0-6.4-2.3-6.4-6.4 0-4.2 2.7-6.4 6.3-6.4 3.3 0 5.5 2.6 5.5 5.7 0 .8-.1 1.3-.1 1.3zm-9.5-1.6h7.6c-.1-2.5-1.8-3.6-3.4-3.6-2.2 0-4 1.2-4.2 3.6zm15.7 5.4l1.7.2v1.6H537v-1.5l1.8-.3V239l-1.8-.3v-1.6h3.5l.2 2.4h.1s.7-2.5 4.4-2.5c3.2 0 4.7 2.1 4.7 4.9v6l1.8.3v1.5h-4v-7.5c0-1.9-.8-3.3-3.1-3.3-2.9 0-3.5 2.6-3.5 2.6v6.4zm22-9.2c.1 0 0-.8 0-.9v-6.2l-1.9-.3v-1.5h4.1v18.1l1.8.3v1.5h-3.5l-.3-1.8h-.1s-1.2 2-4.2 2c-3.3 0-5.7-2.2-5.7-6.4 0-4.1 2.6-6.4 5.7-6.4 3.2-.1 4.1 1.6 4.1 1.6zm0 7.4v-5.6c-.4-.5-1.4-1.7-3.6-1.7-2 0-4.1 1.4-4.1 4.5s1.9 4.6 4.1 4.6c1.5.1 3-.6 3.6-1.8zm7.6 3.8c-.8 0-1.4-.6-1.4-1.4 0-.8.7-1.4 1.4-1.4.8 0 1.4.7 1.4 1.4.1.7-.6 1.4-1.4 1.4z" fill="#337ABB"/><linearGradient id="a" gradientUnits="userSpaceOnUse" x1="544.79" y1="202.4944" x2="544.79" y2="272.0357" gradientTransform="matrix(1 0 0 -1 0 428.298)"><stop offset="0" stop-color="#347ABC"/><stop offset="1" stop-color="#3993D0"/></linearGradient><path d="M622.2 201.6c-5.9 2.5-10.2 3.5-13.4 3.7.2-1.1.4-2.2.5-3.3.8-7.4-.8-13.3-4.6-17.6-3.9-4.3-9.2-6.5-16.1-6.5-6.9 0-12.8 2.2-17.5 6.5-4.8 4.3-7.6 10.2-8.3 17.6-.5 4.5-.1 8.4 1.1 11.7-1.9 1.5-3.7 2.3-5.4 2.3-2.3 0-3.3-1.2-3-3.6l6-56.2h-12l-2.3 22c-1.6-.1-2.9-.2-3.9-.2-7.5 0-13.8 2.6-18.9 7.7-5 5.1-8 11.5-8.8 19.2-.3 2.7-.2 5.2.2 7.5-.5.4-1 .9-1.5 1.3-1.9 1.5-3.7 2.3-5.4 2.3-1.2 0-2-.3-2.5-.8s-.7-1.5-.5-2.8l2.1-19.5c.5-4.7-.3-8.3-2.5-10.9-2.1-2.6-5.7-3.8-10.6-3.8-5.8 0-10.2 2.2-13.2 6.7l.6-5.8h-12.1l-4.9 45.6h12.1l2.6-24.3c.3-2.9 1.5-5.8 3.7-8.5 2.1-2.8 4.7-4.1 7.6-4.1 1.4 0 2.6.5 3.5 1.5s1.2 2.6 1 4.7l-2.1 19.6c-.4 3.9.2 6.9 1.9 9 1.7 2.2 4.5 3.2 8.3 3.2 1.8 0 3.5-.3 5.2-.8 1.7-.5 3.1-1.2 4.2-1.8 1.1-.7 2.1-1.4 3.1-2.3s1.6-1.4 1.9-1.8l.1-.1c.2.4.5.7.7 1.1 3 3.8 7.5 5.8 13.5 5.8 5 0 8.9-1.6 11.8-4.8 1.6 3.2 4.7 4.8 9.1 4.8 1.8 0 3.5-.3 5.2-.8s3.1-1.2 4.2-1.8c1.1-.7 2.1-1.4 3.1-2.3.6-.6 1.1-1 1.4-1.3 3.8 4.1 9.2 6.2 16.1 6.2 7 0 12.9-2.1 17.6-6.3 2.4-2.1 4.2-4.6 5.6-7.6 6-.8 12.5-3.5 17.4-6.6l-1.9-3.8zm-78.1 4.3c-.2 3.4-1.3 6-3.1 8s-4.2 3-7 3c-5.3 0-7.5-4-6.6-12 .6-5.7 2.3-10 5.1-12.8 2.8-2.8 6.1-4.2 10-4.2 1.2 0 2.4.1 3.5.3l-1.9 17.7zm50.7 3.7c.2.1.3.2.5.4-2.2 3.9-5.7 5.9-10.7 5.9-7.7 0-11-4.6-10-13.9 1-9.4 5.3-14.1 13-14.1 6.3 0 9.7 3.2 10.1 9.5-1.8.1-3.5.9-4.6 2.4-1.9 2.4-2.2 6.7 1.7 9.8z" fill="url(#a)"/><linearGradient id="b" gradientUnits="userSpaceOnUse" x1="381.625" y1="202.4547" x2="381.625" y2="250.5011" gradientTransform="matrix(1 0 0 -1 0 428.298)"><stop offset="0" stop-color="#347ABC"/><stop offset="1" stop-color="#3993D0"/></linearGradient><path d="M441.7 177.9c-6.9 0-12.8 2.2-17.5 6.5s-7.6 10.2-8.3 17.6c-.4 3.6-.2 6.9.5 9.8-.6.7-1.3 1.3-2.1 1.9-1.9 1.5-3.7 2.3-5.4 2.3-1.2 0-2-.3-2.5-.8s-.7-1.5-.5-2.8l2.1-19.9c1-9.6-3.2-14.4-12.6-14.4-5.3 0-9.7 2.4-13.2 7.2-1.3-4.8-5.1-7.2-11.5-7.2-5.3 0-9.5 2.4-12.8 7.2l.7-6.3h-12.1l-2.7 25.3c-.7.8-1.6 1.6-2.8 2.7-1.4 1.2-2.9 2.4-4.6 3.5s-3.7 2.2-6 3c-2.3.8-4.7 1.2-7 1.2-4.6 0-7.8-1.2-9.4-3.7 3-.5 5.9-1.2 8.5-2.2 2.6-1 5.2-2.3 7.5-3.8 2.4-1.6 4.3-3.5 5.8-5.9 1.5-2.4 2.4-5 2.8-7.9.4-4-.5-7.3-2.8-9.8-2.3-2.5-5.8-3.8-10.5-3.8-6.5 0-12.1 2.3-16.6 7-4.5 4.7-7.2 10.5-7.9 17.5-.8 7.1.6 12.8 4.1 17.1s8.7 6.5 15.7 6.5c2.5 0 5-.3 7.5-1 2.6-.7 4.7-1.4 6.4-2.2 1.7-.8 3.4-1.7 4.9-2.8 1.4-1 2.4-1.6 2.9-2.1l-.7 6.9h12.1l2.7-24.9c.2-1.6.6-3.3 1.2-5 .7-1.7 1.8-3.3 3.4-4.8 1.6-1.5 3.5-2.2 5.6-2.2 1.4 0 2.4.4 3.1 1.3s.9 2.4.7 4.6l-3.3 31.1h12.1l2.6-24.6c.2-1.6.6-3.4 1.3-5.1.7-1.8 1.8-3.4 3.5-4.9 1.6-1.5 3.5-2.3 5.7-2.3 2.9 0 4.1 2 3.6 5.9l-2.1 19.9c-.4 3.9.2 6.9 1.9 9 1.7 2.2 4.5 3.2 8.3 3.2 1.8 0 3.5-.3 5.2-.8s3.1-1.2 4.2-1.8c1.1-.7 2.1-1.4 3.1-2.3s1.6-1.4 1.9-1.8c.3-.4.5-.6.7-.8l.1-.6c.4.6.9 1.2 1.4 1.8 3.8 4.2 9.2 6.3 16.2 6.3s12.9-2.1 17.6-6.3c4.7-4.2 7.4-10.1 8.2-17.5.8-7.4-.8-13.3-4.6-17.6-4-4.2-9.4-6.4-16.3-6.4zm-129.1 22.8c.5-5 1.8-7.2 4-9.9s4.6-4 7.4-4c1.4 0 2.5.4 3.3 1.2s1.3 2.1.9 3.7c-.9 3.5-2.6 5.1-4.2 6.1-2.9 1.9-7.1 3-11.5 3.7l.1-.8zm138.1 1.3c-1 9.2-5.3 13.9-13 13.9s-11-4.6-10-13.9c1-9.4 5.3-14.1 13-14.1s11 4.7 10 14.1z" fill="url(#b)"/><linearGradient id="c" gradientUnits="userSpaceOnUse" x1="405.4503" y1="325.1214" x2="504.9049" y2="325.1214" gradientTransform="matrix(1 0 0 -1 0 428.298)"><stop offset="0" stop-color="#347ABC"/><stop offset="1" stop-color="#3993D0"/></linearGradient><path d="M497.3 103.2c0 23.2-18.9 42.1-42.1 42.1-23.2 0-42.1-18.9-42.1-42.1 0-23.2 18.9-42.1 42.1-42.1 5.7 0 11.2 1.2 16.2 3.2 1.8-2 3.7-4 5.6-5.8-6.6-3.2-14-5-21.8-5-27.4 0-49.7 22.3-49.7 49.7s22.3 49.7 49.7 49.7c27.4 0 49.7-22.3 49.7-49.7 0-12.3-4.5-23.5-11.9-32.2-2.8.8-5.4 1.8-7.8 2.8 7.5 7.6 12.1 17.9 12.1 29.4z" fill="url(#c)"/><linearGradient id="d" gradientUnits="userSpaceOnUse" x1="452.4278" y1="360.7726" x2="556.2764" y2="360.7726" gradientTransform="matrix(1 0 0 -1 0 428.298)"><stop offset="0" stop-color="#347ABC"/><stop offset="1" stop-color="#3993D0"/></linearGradient><path d="M518.7 45.5s18.4 9.1 30.5-7.4c-1.9 1.8-12.6 4-17.3 1.5 0 0 12.5-1 19.6-8.9 4.5-5 4.9-9.9 4.9-9.9s-51.3 1.3-85.1 39.5c-11.4 12.9-17.9 25.4-18.7 38.5-.6 9.6 3.8 15.5 3.8 15.5s-6.7-40.2 47.4-49.9c-4.6-.9-9.7-4.2-10.5-6.3 20.1 8.5 39.5-.7 44.9-6.4-3.2.9-16.8-1.4-19.5-6.2z" fill="url(#d)"/></svg>