<svg xmlns="http://www.w3.org/2000/svg" viewBox="0 0 1024.7 842.3"><g opacity=".2"><path d="M574.9 93.7c1.3 0 2.6.1 4 .1" fill="none" stroke="#3893D0" stroke-width="4" stroke-linecap="round" stroke-linejoin="round"/><path d="M593 95.1c16 2.1 35.6 7.2 55.3 18.7 6.5 3.8 12.3 7.8 17.4 11.8" fill="none" stroke="#3893D0" stroke-width="4" stroke-linecap="round" stroke-linejoin="round" stroke-dasharray="7.552,14.1599"/><path d="M671.2 130.1l3 2.7" fill="none" stroke="#3893D0" stroke-width="4" stroke-linecap="round" stroke-linejoin="round"/><path fill="#3893D0" d="M576.7 99.8l-10.4-6 10.4-6m92 48.1l11.6 2.9-3.3-11.5"/></g><g opacity=".2"><path d="M327.6 273.3c0 1.2-.1 2.6-.1 4" fill="none" stroke="#3893D0" stroke-width="4" stroke-linecap="round" stroke-linejoin="round"/><path d="M326.1 291.8C321.7 325 307 380.5 270 413c-68.9 60.3-106.4 66.6-126.8 67" fill="none" stroke="#3893D0" stroke-width="4" stroke-linecap="round" stroke-linejoin="round" stroke-dasharray="7.7507,14.5327"/><path d="M135.9 480c-1.5 0-2.8-.1-4 0" fill="none" stroke="#3893D0" stroke-width="4" stroke-linecap="round" stroke-linejoin="round"/><path fill="#3893D0" d="M321.6 275.5l5.2-10.8 6.7 10M132.3 474l-8.7 8.3 11.5 3.4"/></g><g opacity=".2"><path d="M449.7 92.7c-1.3 0-2.6.1-4 .1" fill="none" stroke="#3893D0" stroke-width="4" stroke-linecap="round" stroke-linejoin="round"/><path d="M431.6 94.1c-16 2.1-35.6 7.2-55.3 18.7-6.5 3.8-12.3 7.8-17.4 11.8" fill="none" stroke="#3893D0" stroke-width="4" stroke-linecap="round" stroke-linejoin="round" stroke-dasharray="7.552,14.1599"/><path d="M353.5 129.1l-3 2.7" fill="none" stroke="#3893D0" stroke-width="4" stroke-linecap="round" stroke-linejoin="round"/><path fill="#3893D0" d="M447.9 86.8l10.4 6-10.3 6m-100.3 27.5l-3.4 11.5 11.6-2.9"/></g><g opacity=".2"><path d="M107.8 307.9c-1 .8-2 1.7-3 2.6" fill="none" stroke="#3893D0" stroke-width="4" stroke-linecap="round" stroke-linejoin="round"/><path d="M95.4 322.3c-11.3 17.9-16.5 44.1-5.5 65.1 18.1 34.6 25 31.7 55.1 49.1 39.8 23 91.3 48.1 114.5 83.8 23.9 36.7 29.6 88.2 27.8 116.8" fill="none" stroke="#3893D0" stroke-width="4" stroke-linecap="round" stroke-linejoin="round" stroke-dasharray="8.0491,15.0921"/><path d="M286.5 644.6c-.2 1.4-.4 2.7-.6 4" fill="none" stroke="#3893D0" stroke-width="4" stroke-linecap="round" stroke-linejoin="round"/><path fill="#3893D0" d="M103.2 304l12-.6-5.5 10.6m170.8 331.1l2.8 11.7 8.6-8.3"/></g><g opacity=".2"><path d="M234.8 276.6c1.3-.1 2.7-.2 4-.3" fill="none" stroke="#3893D0" stroke-width="4" stroke-linecap="round" stroke-linejoin="round"/><path d="M254.5 277.5c43.3 7.6 86 50.4 95.8 90.2 5.7 23.3 4.4 37.7 1.4 47.4" fill="none" stroke="#3893D0" stroke-width="4" stroke-linecap="round" stroke-linejoin="round" stroke-dasharray="8.4259,15.7986"/><path d="M348.8 422.4c-.6 1.3-1.2 2.5-1.8 3.6" fill="none" stroke="#3893D0" stroke-width="4" stroke-linecap="round" stroke-linejoin="round"/><path fill="#3893D0" d="M237.4 282.3l-11.1-4.4 9.4-7.4m106.7 151.3l.9 12 9.9-6.8"/></g><g opacity=".2"><path d="M382.4 494.6c1 .8 2.1 1.6 3.2 2.4" fill="none" stroke="#3893D0" stroke-width="4" stroke-linecap="round" stroke-linejoin="round"/><path d="M397.2 503c7.7 2.8 18.1 4.7 33.7 5.3 8.6.3 14.6.8 19.5.6" fill="none" stroke="#3893D0" stroke-width="4" stroke-linecap="round" stroke-linejoin="round" stroke-dasharray="6.9982,13.1216"/><path d="M457 508.1c1.3-.3 2.5-.7 3.8-1.2" fill="none" stroke="#3893D0" stroke-width="4" stroke-linecap="round" stroke-linejoin="round"/><path fill="#3893D0" d="M379.9 500.2l-3.9-11.3 11.7 2.3m74.3 21.7l6.3-10.2-11.9-.4"/></g><g opacity=".2"><path d="M148.8 593.2c25.6 16.3 85.5 39 184.2 31.3 85.1-6.6 138.1-53.6 158.9-81.2" fill="none" stroke="#3893D0" stroke-width="4" stroke-linecap="round" stroke-linejoin="round" stroke-dasharray="8,15"/><path fill="#3893D0" d="M146.9 599.1l-5.1-10.8 11.9.9m341.9-41l1.1-11.9-10.9 5"/></g><g opacity=".2"><path d="M707.5 269.1c-.9.8-1.9 1.7-3 2.6" fill="none" stroke="#3893D0" stroke-width="4" stroke-linecap="round" stroke-linejoin="round"/><path d="M692.6 280.1c-12.8 7.9-30.3 15.7-49.6 17.1-38.8 2.7-59.5-5.4-71.5-13" fill="none" stroke="#3893D0" stroke-width="4" stroke-linecap="round" stroke-linejoin="round" stroke-dasharray="7.7748,14.5778"/><path d="M565.5 280c-1.1-.9-2.2-1.7-3.1-2.5" fill="none" stroke="#3893D0" stroke-width="4" stroke-linecap="round" stroke-linejoin="round"/><path fill="#3893D0" d="M701.9 266.2l11.4-3.4-2.7 11.6m-143.4-.8l-12-.9 5.2 10.8"/></g><g opacity=".2"><path d="M512.5 327.7c.4 1.2 1 2.4 1.6 3.7" fill="none" stroke="#3893D0" stroke-width="4" stroke-linecap="round" stroke-linejoin="round"/><path d="M522.3 343.4c11.8 13.6 30.2 25.5 44 29.1 24.6 6.3 49.4.7 85.5 24.3 18.8 12.3 41.5 44.2 43.3 82.3" fill="none" stroke="#3893D0" stroke-width="4" stroke-linecap="round" stroke-linejoin="round" stroke-dasharray="7.799,14.6231"/><path d="M695.2 486.4c0 1.3-.1 2.7-.2 4" fill="none" stroke="#3893D0" stroke-width="4" stroke-linecap="round" stroke-linejoin="round"/><path fill="#3893D0" d="M507.2 330.7l3.6-11.4 8.1 8.8m170.3 160l4.9 10.8 7-9.7"/></g><g opacity=".2"><path d="M543.1 545.4c.4 1.2.8 2.5 1.2 3.8" fill="none" stroke="#3893D0" stroke-width="4" stroke-linecap="round" stroke-linejoin="round"/><path d="M547.7 562.6c4 17.5 6.9 38.3 4.6 50.1-3.4 17.5-9.7 34.4-16.3 45.8" fill="none" stroke="#3893D0" stroke-width="4" stroke-linecap="round" stroke-linejoin="round" stroke-dasharray="7.3959,13.8673"/><path d="M532.3 664.4c-.8 1.2-1.6 2.2-2.5 3.2" fill="none" stroke="#3893D0" stroke-width="4" stroke-linecap="round" stroke-linejoin="round"/><path fill="#3893D0" d="M537.9 549l2.3-11.7 9 7.8m-22 116.5l-4.2 11.2 11.8-2"/></g><g opacity=".2"><path d="M866.5 416.3c1.1.5 2.3 1.2 3.5 1.9" fill="none" stroke="#3893D0" stroke-width="4" stroke-linecap="round" stroke-linejoin="round"/><path d="M883 426.7c10.7 8.1 22.6 19.2 30.7 31.5 10 15.2 15 28.7 17.3 39.1" fill="none" stroke="#3893D0" stroke-width="4" stroke-linecap="round" stroke-linejoin="round" stroke-dasharray="8.2501,15.469"/><path d="M932.3 504.9c.2 1.4.3 2.7.4 4" fill="none" stroke="#3893D0" stroke-width="4" stroke-linecap="round" stroke-linejoin="round"/><path fill="#3893D0" d="M866.3 422.7l-8-8.9 11.7-2.5m56.5 95.8l5.8 10.4 6.2-10.3"/></g><g opacity=".2"><path d="M818.3 735.8c1.2 0 2.6 0 4-.1" fill="none" stroke="#3893D0" stroke-width="4" stroke-linecap="round" stroke-linejoin="round"/><path d="M836.1 733.1c17.3-4.7 39.9-15 61.1-28.3 18-11.2 27.9-29.1 33.1-43.1" fill="none" stroke="#3893D0" stroke-width="4" stroke-linecap="round" stroke-linejoin="round" stroke-dasharray="7.5285,14.116"/><path d="M932.6 655.1c.4-1.4.8-2.6 1.1-3.9" fill="none" stroke="#3893D0" stroke-width="4" stroke-linecap="round" stroke-linejoin="round"/><path fill="#3893D0" d="M818.7 741.7l-8.7-8.2 11.4-3.5M939 654.1l-3.7-11.3-8 8.9"/></g><g fill="none" stroke="#073660" stroke-width="2" stroke-miterlimit="10"><path d="M736.3 146.8v8h8"/><path d="M743.8 179.8v-25l-8.6-8h-35.6c-.4 0-.8.3-.8.8v32.2m0 12V208c0 .4.3.8.8.8H743c.4 0 .8-.3.8-.8v-12.2"/><path d="M703.8 198.8c2 0 2 2 4 2s2-2 4-2 2 2 4 2 2-2 4-2 2 2 4 2m-19.5-40h35m-35 8h35m-35 8h17"/></g><path fill="#5CBDF2" d="M701.3 183.1h42v6h-42z"/><path d="M743.5 189h5c1.7 0 3-1.3 3-3s-1.3-3-3-3h-5v6zm-42-6h-7l-5 3 5 3h7z" fill="none" stroke="#073660" stroke-miterlimit="10"/><path d="M739.5 189v2c0 1.1-.9 2-2 2h-17m-19-4v-6m42 6v-6" fill="none" stroke="#073660" stroke-width="2" stroke-linejoin="round" stroke-miterlimit="10"/><path d="M748.5 183c1.7 0 3 1.3 3 3s-1.3 3-3 3h-54l-5-3 5-3h54z" fill="none" stroke="#073660" stroke-width="2" stroke-linejoin="round" stroke-miterlimit="10"/><path fill="#5CBDF2" d="M62.6 509.1h42v6h-42z"/><path d="M104.8 515h5c1.7 0 3-1.3 3-3s-1.3-3-3-3h-5v6zm-42-6h-7l-5 3 5 3h7z" fill="none" stroke="#073660" stroke-miterlimit="10"/><path d="M100.8 515v2c0 1.1-.9 2-2 2h-17m-19-4v-6m42 6v-6" fill="none" stroke="#073660" stroke-width="2" stroke-linejoin="round" stroke-miterlimit="10"/><path d="M109.8 509c1.7 0 3 1.3 3 3s-1.3 3-3 3h-54l-5-3 5-3h54z" fill="none" stroke="#073660" stroke-width="2" stroke-linejoin="round" stroke-miterlimit="10"/><path fill="#5CBDF2" d="M59.6 497.7h42v6h-42z"/><path d="M59.3 497.8h-5c-1.7 0-3 1.3-3 3s1.3 3 3 3h5v-6zm42 6h7l5-3-5-3h-7z" fill="none" stroke="#073660" stroke-miterlimit="10"/><path d="M63.3 497.8v-2c0-1.1.9-2 2-2h17m19 4v6m-42-6v6" fill="none" stroke="#073660" stroke-width="2" stroke-linejoin="round" stroke-miterlimit="10"/><path d="M54.3 503.8c-1.7 0-3-1.3-3-3s1.3-3 3-3h54l5 3-5 3h-54z" fill="none" stroke="#073660" stroke-width="2" stroke-linejoin="round" stroke-miterlimit="10"/><path fill="none" stroke="#073660" stroke-width="2" stroke-miterlimit="10" d="M96.3 472.8v8h8"/><path d="M104.6 494.8v-14l-8.6-8H60.3c-.4 0-.8.3-.8.8v21.2m.1 23V534c0 .4.3.8.8.8h43.5c.4 0 .8-.3.8-.8v-12.2" fill="none" stroke="#073660" stroke-width="2" stroke-miterlimit="10"/><path d="M64.6 524.8c2 0 2 2 4 2s2-2 4-2 2 2 4 2 2-2 4-2 2 2 4 2m-20.3-40h35" fill="none" stroke="#073660" stroke-width="2" stroke-miterlimit="10"/><path fill="none" d="M160 248.7h34l8 8v46h-42"/><path fill="none" stroke="#073660" stroke-width="2" stroke-miterlimit="10" d="M202 256.7h-8v-8"/><path fill="none" stroke="#073660" stroke-width="2" stroke-linejoin="round" stroke-miterlimit="10" d="M172 302.7h-12v-54h34l8 8v46h-12"/><g stroke-miterlimit="10"><g stroke-linejoin="round"><path fill="#5CBDF2" stroke="#5CBDF2" stroke-linecap="round" d="M187.1 295.8l-.1 14.9-6-5-6 5 .1-14.7 5.8 2.5"/><path fill="none" stroke="#073660" stroke-width="2" d="M187 295.7v15l-6-5-6 5v-15"/></g><path d="M194 285.7c0-1.5-1-2.7-2.4-2.9-.2-.9-.6-1.7-1-2.5.3-.5.4-1 .4-1.6 0-1.7-1.3-3-3-3-.6 0-1.1.2-1.6.4-.8-.4-1.6-.8-2.5-1-.3-1.4-1.5-2.4-2.9-2.4-1.5 0-2.7 1-2.9 2.4-.9.2-1.7.6-2.5 1-.5-.3-1-.4-1.6-.4-1.7 0-3 1.3-3 3 0 .6.2 1.1.4 1.6-.4.8-.8 1.6-1 2.5-1.4.3-2.4 1.5-2.4 2.9s1 2.7 2.4 2.9c.2.9.6 1.7 1 2.5-.3.5-.4 1-.4 1.6 0 1.7 1.3 3 3 3 .6 0 1.1-.2 1.6-.4.8.4 1.6.8 2.5 1 .3 1.4 1.5 2.4 2.9 2.4 1.5 0 2.7-1 2.9-2.4.9-.2 1.7-.6 2.5-1 .5.3 1 .4 1.6.4 1.7 0 3-1.3 3-3 0-.6-.2-1.1-.4-1.6.4-.8.8-1.6 1-2.5 1.4-.2 2.4-1.4 2.4-2.9z" fill="none" stroke="#073660"/><circle cx="181" cy="285.7" r="6" fill="#5CBDF2" stroke="#073660"/><path d="M194 285.7c0-1.5-1-2.7-2.4-2.9-.2-.9-.6-1.7-1-2.5.3-.5.4-1 .4-1.6 0-1.7-1.3-3-3-3-.6 0-1.1.2-1.6.4-.8-.4-1.6-.8-2.5-1-.3-1.4-1.5-2.4-2.9-2.4-1.5 0-2.7 1-2.9 2.4-.9.2-1.7.6-2.5 1-.5-.3-1-.4-1.6-.4-1.7 0-3 1.3-3 3 0 .6.2 1.1.4 1.6-.4.8-.8 1.6-1 2.5-1.4.3-2.4 1.5-2.4 2.9s1 2.7 2.4 2.9c.2.9.6 1.7 1 2.5-.3.5-.4 1-.4 1.6 0 1.7 1.3 3 3 3 .6 0 1.1-.2 1.6-.4.8.4 1.6.8 2.5 1 .3 1.4 1.5 2.4 2.9 2.4 1.5 0 2.7-1 2.9-2.4.9-.2 1.7-.6 2.5-1 .5.3 1 .4 1.6.4 1.7 0 3-1.3 3-3 0-.6-.2-1.1-.4-1.6.4-.8.8-1.6 1-2.5 1.4-.2 2.4-1.4 2.4-2.9z" fill="#5CBDF2" stroke="#073660" stroke-width="2"/><circle cx="181" cy="285.7" r="6" fill="#FFF" stroke="#073660" stroke-width="2" stroke-linejoin="round"/></g><path fill="#5CBDF2" d="M148 256.7h6v42h-6z"/><path d="M148 256.7v-5c0-1.7 1.3-3 3-3s3 1.3 3 3v5h-6zm6 42v7l-3 5-3-5v-7z" fill="none" stroke="#073660" stroke-miterlimit="10"/><path d="M148 260.7h-2c-1.1 0-2 .9-2 2v17m4 19h6m-6-42h6" fill="none" stroke="#073660" stroke-width="2" stroke-linejoin="round" stroke-miterlimit="10"/><path d="M154 251.7c0-1.7-1.3-3-3-3s-3 1.3-3 3v54l3 5 3-5v-54z" fill="none" stroke="#073660" stroke-width="2" stroke-linejoin="round" stroke-miterlimit="10"/><path fill="#FFF" stroke="#073660" stroke-width="2" stroke-linejoin="round" stroke-miterlimit="10" d="M165 253.7h12m-12 7h32"/><path fill="none" stroke="#073660" stroke-width="2" stroke-linejoin="round" stroke-miterlimit="10" d="M165 264.7h32m-32 4h32"/><path d="M471.4 222c0-1.7 1.3-3 3-3h56c1.7 0 3 1.3 3 3v33h-62v-33z" fill="#5CBDF2" stroke="#073660" stroke-width="2" stroke-miterlimit="10"/><path fill="none" d="M524.2 219v8h-43.7v-8"/><path fill="none" stroke="#073660" stroke-width="2" stroke-miterlimit="10" d="M524.4 219v8h-44v-8"/><g fill="none" stroke="#073660" stroke-miterlimit="10"><path d="M490.4 219v-14h24v14"/><path stroke-width="2" d="M490.4 219v-14h24v14"/></g><path fill="#FFF" d="M485.8 245h33.1v22h-33.1z"/><path fill="none" stroke="#073660" stroke-width="2" stroke-miterlimit="10" d="M485.4 244h34v23h-34zm5 18h24m-24-4h24"/><path fill="#5CBDF2" d="M557.4 472.7l-22.2-16.8 21.3-21m-62.3 37.8l22.2-16.8-21.3-21"/><path fill="none" d="M507.3 413.8h46.8v43.7h-46.8z"/><path d="M530.1 437.3c-.1 0-1.5 2.8-5.8 2.8-4.1 0-7.6-3-7.6-8.4s3.4-8.4 7.7-8.4c3.8 0 5.5 2.6 5.5 2.6h.1l.4-2.3h1.8v13.1c0 1.2.6 1.6 1.4 1.6 3.6 0 5.8-2.7 5.8-8.6 0-7.3-4.4-13.6-14-13.6-9 0-14.4 6.9-14.4 14.8 0 10.2 7.6 13.3 10.7 14.4l-1.2 1.8c-2.9-1.2-11.8-4.5-11.8-16.2 0-8.8 6.1-16.8 16.7-16.8 11.2 0 16.3 7.5 16.3 15.4 0 7.6-4.1 10.7-8.7 10.7-2.2 0-3-1.4-3-2.5v-.4zm-.3-1.6v-7.6c-1-1.9-3.1-2.8-5.1-2.8-3 0-5.7 2.1-5.7 6.4 0 4.4 3 6.4 5.7 6.4 3.2 0 4.7-1.7 5.1-2.4z" fill="#073660"/><path fill="none" stroke="#073660" stroke-width="2" stroke-miterlimit="10" d="M550.3 433.8h7v40h-63v-40h7"/><path fill="#5CBDF2" stroke="#073660" stroke-width="2" stroke-miterlimit="10" d="M557.5 472.8l-31.3-24-31.3 24"/><path fill="none" stroke="#073660" stroke-width="2" stroke-miterlimit="10" d="M494.9 433.8l22.5 22.3m40.1-22.3l-22.1 21.9"/><g stroke="#073660" stroke-width="2" stroke-linejoin="round" stroke-miterlimit="10"><path fill="#5CBDF2" d="M479.3 77.8h62v11h-62z"/><path fill="none" d="M483.3 83.8h2m2 0h2m3 0h2m43 0h-11m-44-10h45m13.6 4c1.3-1.3 3.1-5.1 1.8-6.4l-6.9-6.9-24.4-24.4-6.9-6.9c-1.3-1.3-5.1.6-6.4 1.8l42.8 42.8z"/></g><g opacity=".2"><path d="M629.3 560.2c-1.2-.3-2.5-.6-3.9-1" fill="none" stroke="#3893D0" stroke-width="4" stroke-linecap="round" stroke-linejoin="round"/><path d="M608 552.9c-5.6-2.7-11.2-6.2-15.9-10.6" fill="none" stroke="#3893D0" stroke-width="4" stroke-linecap="round" stroke-linejoin="round" stroke-dasharray="9.9213,18.6025"/><path d="M586 535.2c-.7-1.1-1.4-2.2-2.1-3.4" fill="none" stroke="#3893D0" stroke-width="4" stroke-linecap="round" stroke-linejoin="round"/><path fill="#3893D0" d="M628.8 553.8l9 7.9-11.3 3.9m-36.2-34.5l-9.5-7.3-1.6 11.8"/></g><g stroke="#073660" stroke-width="2" stroke-linejoin="round" stroke-miterlimit="10"><path d="M351.3 187.8c0 1.1-.9 2-2 2h-58c-1.1 0-2-.9-2-2v-12c0-1.1.9-2 2-2h58c1.1 0 2 .9 2 2v12z" fill="none"/><path fill="#5CBDF2" d="M337.3 177.8h10v8h-10zm-44 0h10v8h-10z"/><path fill="none" d="M306.3 179.8h28m4.9-20h1.7l-1.3-4h-38l-1.3 4h.2z"/><path fill="#5CBDF2" d="M339.2 159.8h-38.9l-4.7 14h50l-4.7-14z"/><path fill="none" d="M335.3 195.8h12v8h-12zm-42 0h12v8h-12zm-4-8v4.8c0 1.7 1.4 3.2 3.1 3.2h56c1.7 0 2.9-1.4 2.9-3.1v-4.9m-20 2v6m-22-6v6"/></g><path fill="none" stroke="#073660" stroke-width="2" stroke-linejoin="round" stroke-miterlimit="10" d="M306.3 183.8h28"/><g stroke="#073660" stroke-width="2" stroke-linejoin="round" stroke-miterlimit="10"><path d="M315.3 704.8c0 1.1-.9 2-2 2h-58c-1.1 0-2-.9-2-2v-12c0-1.1.9-2 2-2h58c1.1 0 2 .9 2 2v12z" fill="none"/><path fill="#5CBDF2" d="M301.3 694.8h10v8h-10zm-44 0h10v8h-10z"/><path fill="none" d="M270.3 696.8h28m4.9-20h1.7l-1.4-4h-38l-1.3 4h.2z"/><path fill="#5CBDF2" d="M303.2 676.8h-39l-4.7 14h50l-4.6-14z"/><path fill="none" d="M299.3 712.8h12v8h-12zm-42 0h12v8h-12zm-4-8v4.8c0 1.7 1.4 3.2 3.1 3.2h56c1.7 0 2.9-1.4 2.9-3.1v-4.9m-20 2v6m-22-6v6"/></g><path fill="none" stroke="#073660" stroke-width="2" stroke-linejoin="round" stroke-miterlimit="10" d="M270.3 700.8h28"/><g opacity=".2"><path d="M215.2 710.7h-4" fill="none" stroke="#3893D0" stroke-width="4" stroke-linecap="round" stroke-linejoin="round"/><path d="M196.3 710.4c-26-1.2-64.9-6-92.3-25.5-15.9-11.3-27.4-28.9-33.8-42.5" fill="none" stroke="#3893D0" stroke-width="4" stroke-linecap="round" stroke-linejoin="round" stroke-dasharray="7.9134,14.8377"/><path d="M67.3 635.5c-.5-1.3-1-2.6-1.3-3.8" fill="none" stroke="#3893D0" stroke-width="4" stroke-linecap="round" stroke-linejoin="round"/><path fill="#3893D0" d="M213.4 704.7l10.4 6.1-10.4 5.9m-141-84.3l-7.8-9.1-4 11.2"/></g><g stroke="#073660" stroke-width="2" stroke-linejoin="round" stroke-miterlimit="10"><path d="M361.3 479.8c0 1.1-.9 2-2 2h-58c-1.1 0-2-.9-2-2v-12c0-1.1.9-2 2-2h58c1.1 0 2 .9 2 2v12z" fill="none"/><path fill="#5CBDF2" d="M347.3 469.8h10v8h-10zm-44 0h10v8h-10z"/><path fill="none" d="M316.3 471.8h28m5.2-20h1.7l-1.3-4h-38l-1.4 4h.3z"/><path fill="#5CBDF2" d="M349.5 451.8h-39l-4.6 14h50l-4.7-14z"/><path fill="none" d="M345.3 487.8h12v8h-12zm-42 0h12v8h-12zm-4-8v4.8c0 1.7 1.4 3.2 3.1 3.2h56c1.7 0 2.9-1.4 2.9-3.1v-4.9m-20 2v6m-22-6v6"/></g><path fill="none" stroke="#073660" stroke-width="2" stroke-linejoin="round" stroke-miterlimit="10" d="M316.3 475.8h28"/><path fill="none" d="M513.5 716.5h12v10h-12z"/><path d="M529.5 703.5c-1.1 0-2-.9-2-2v-2c0-1.1-.9-2-2-2v-2l-4 2h-8c-1.1 0-2 .9-2 2v2c0 1.1-.9 2-2 2h-1v3l1.2 3c.7 4.7 3.7 10 9.8 10s9.2-5.3 9.8-10l1.2-3v-3h-1z" fill="none" stroke="#073660" stroke-miterlimit="10"/><path d="M493.5 748.5v-11c0-6.1 5-8 11-10l4-1h22l4 1c6 2 11 3.9 11 10v11h-52z" fill="#5CBDF2"/><path d="M508.5 726.5l-4 1c-6 2-11 3.9-11 10v11h52v-11c0-6.1-5-8-11-10l-4-1m-27 16v6m32-6v6m-22-26v-5m12 5v-5m-17-14v-8c0-1.7 1.3-3 3-3h1c0-1.7 1.3-3 3-3h11c2.2 0 4 1.8 4 4v10h-1c-1.1 0-2-.9-2-2v-2c0-1.1-.9-2-2-2v-2l-4 2h-8c-1.1 0-2 .9-2 2v2c0 1.1-.9 2-2 2h-1z" fill="none" stroke="#073660" stroke-width="2" stroke-linejoin="round" stroke-miterlimit="10"/><path d="M530.5 703.5v3l-1 1c0 5-3 12-10 12s-10-7-10-12l-1-1v-3" fill="none" stroke="#073660" stroke-width="2" stroke-linejoin="round" stroke-miterlimit="10"/><path fill="#FFF" d="M515.5 730.5l-9-4 5-4 8 2v2m4 4l9-4-5-4-8 2v2"/><path fill="none" stroke="#073660" stroke-width="2" stroke-linejoin="round" stroke-miterlimit="10" d="M515.5 730.5l-9-4 5-4 8 2v2zm8 0l9-4-5-4-8 2v2z"/><path fill="#FFF" stroke="#073660" stroke-width="2" stroke-linejoin="round" stroke-miterlimit="10" d="M517.9 728.2l-3.5 20.3 5.6 5 5.5-5-4.5-20.3-1.5-1.7z"/><path d="M507.4 748.2v-9c0-6.1-5-9-11-11l-6-2h-18l-6 2c-6 2-11 4.9-11 11v9" fill="#5CBDF2" stroke="#073660" stroke-miterlimit="10"/><path d="M472.4 726.2l-6 2c-6 2-11 4.9-11 11v9s51.8.2 52 0v-9c0-6.1-5-9-11-11l-6-2" fill="none" stroke="#073660" stroke-width="2" stroke-miterlimit="10"/><path fill="#FFF" stroke="#073660" stroke-width="2" stroke-linejoin="round" stroke-miterlimit="10" d="M487.4 722.2l3 2 6 9h-6l-9 12-9-12h-6l6-9 3-2v-5h12z"/><path fill="none" stroke="#073660" stroke-width="2" stroke-linejoin="round" stroke-miterlimit="10" d="M465.4 742.2v6m32-6v6"/><path d="M478.4 695.2c0 3 3 10 12 10 0 7.2-1 14-9 14s-9-6.8-9-14v-2c0-2.2 1.8-4 4-4h3" fill="#FFF"/><path d="M478.4 695.2c0 3 3 10 12 10 0 7.2-1 14-9 14s-9-6.8-9-14v-2c0-2.2 1.8-4 4-4h3" fill="none" stroke="#073660" stroke-width="2" stroke-linejoin="round" stroke-miterlimit="10"/><path d="M475.4 720.2c-3 0-9-2-9-2s2-8 2-13v-6c0-5.5 4.5-10 10-10h6c5.5 0 10 4.5 10 10v6c0 5 2 13 2 13s-6 2-9 2" fill="none" stroke="#073660" stroke-width="2" stroke-linejoin="round" stroke-miterlimit="10"/><path fill="none" stroke="#073660" stroke-width="2" stroke-linejoin="round" stroke-miterlimit="10" d="M475.4 717.2v9l6 19 6-19v-9"/><path fill="#5CBDF2" d="M728 712.1h42v6h-42z"/><path d="M770.3 718h5c1.7 0 3-1.3 3-3s-1.3-3-3-3h-5v6zm-42-6h-7l-5 3 5 3h7z" fill="none" stroke="#073660" stroke-miterlimit="10"/><path d="M766.3 718v2c0 1.1-.9 2-2 2h-17m-19-4v-6m42 6v-6" fill="none" stroke="#073660" stroke-width="2" stroke-linejoin="round" stroke-miterlimit="10"/><path d="M775.3 712c1.7 0 3 1.3 3 3s-1.3 3-3 3h-54l-5-3 5-3h54z" fill="none" stroke="#073660" stroke-width="2" stroke-linejoin="round" stroke-miterlimit="10"/><path fill="#5CBDF2" d="M725 700.7h42v6h-42z"/><path d="M724.8 700.8h-5c-1.7 0-3 1.3-3 3s1.3 3 3 3h5v-6zm42 6h7l5-3-5-3h-7z" fill="none" stroke="#073660" stroke-miterlimit="10"/><path d="M728.8 700.8v-2c0-1.1.9-2 2-2h17m19 4v6m-42-6v6" fill="none" stroke="#073660" stroke-width="2" stroke-linejoin="round" stroke-miterlimit="10"/><path d="M719.8 706.8c-1.7 0-3-1.3-3-3s1.3-3 3-3h54l5 3-5 3h-54z" fill="none" stroke="#073660" stroke-width="2" stroke-linejoin="round" stroke-miterlimit="10"/><path fill="none" stroke="#073660" stroke-width="2" stroke-miterlimit="10" d="M761.3 673.8v7h8"/><path d="M770 683.8v-3l-8.6-7h-35.6c-.4 0-.8.3-.8 1.8v8.2m0 37V735c0 .4.3.8.8.8h43.5c.4 0 .8-.3.8-.8v-14.2" fill="none" stroke="#073660" stroke-width="2" stroke-miterlimit="10"/><path d="M730.1 725.8c2 0 2 2 4 2s2-2 4-2 2 2 4 2 2-2 4-2 2 2 4 2" fill="none" stroke="#073660" stroke-width="2" stroke-miterlimit="10"/><path fill="#5CBDF2" d="M728.6 686.9h42v6h-42z"/><path d="M770.8 692.8h5c1.7 0 3-1.3 3-3s-1.3-3-3-3h-5v6zm-42-6h-7l-5 3 5 3h7z" fill="none" stroke="#073660" stroke-miterlimit="10"/><path fill="none" stroke="#073660" stroke-width="2" stroke-linejoin="round" stroke-miterlimit="10" d="M728.8 692.8v-6m42 6v-6m5 0c1.7 0 3 1.3 3 3s-1.3 3-3 3h-54l-5-3 5-3h54z"/><g stroke="#073660" stroke-miterlimit="10"><path fill="none" d="M740.3 347.7l6-18h46l6 18m-58 0h58v26h-58z"/><path fill="none" stroke-width="2" d="M798.3 347.7v26h-58v-26l6-18h46z"/><path fill="#5CBDF2" d="M753.3 325.7h32v4h-32z"/><path fill="none" stroke-width="2" d="M753.3 329.7v-4h32v4"/><path fill="#5CBDF2" d="M751.3 329.7h36v5h-36z"/><path fill="none" stroke-width="2" d="M751.3 334.7v-5h36v5"/><path fill="#5CBDF2" d="M749.3 334.7h40v6h-40z"/><path fill="none" stroke-width="2" d="M749.3 340.7v-6h40v6"/><path fill="#5CBDF2" d="M747.3 340.7h44v7h-44z"/><path fill="none" stroke-width="2" d="M747.3 347.7v-7h44v7"/><path d="M781.3 356.7v5c0 1.7-1.3 3-3 3h-18c-1.7 0-3-1.3-3-3v-5h24z" fill="#5CBDF2"/><path d="M781.3 356.7v5c0 1.7-1.3 3-3 3h-18c-1.7 0-3-1.3-3-3v-5h24zm-29 4h-2m38 0h-2m-46-13h58" fill="none" stroke-width="2"/></g><g stroke="#073660" stroke-miterlimit="10"><g fill="none"><circle cx="901.4" cy="278.5" r="3"/><path stroke-width="2" d="M901.4 269.5v6"/><circle cx="901.4" cy="278.5" r="3" stroke-width="2"/><path stroke-width="2" d="M904.4 278.5h26m-32 0h-26"/></g><path d="M901.4 257.5c-9.4 0-17-3.1-17-7v12c0 3.9 7.6 7 17 7s17-3.1 17-7v-12c0 3.9-7.6 7-17 7z" fill="#5CBDF2"/><path d="M901.4 245.5c-9.4 0-17-3.1-17-7v12c0 3.9 7.6 7 17 7s17-3.1 17-7v-12c0 3.9-7.6 7-17 7z" fill="#FFF"/><path d="M884.4 238.5c0 3.9 7.6 7 17 7s17-3.1 17-7v-12h-34v12z" fill="#5CBDF2"/><ellipse cx="901.4" cy="226.5" rx="17" ry="7" fill="#FFF"/><ellipse cx="901.4" cy="226.5" rx="17" ry="7" fill="none" stroke-width="2"/><path d="M918.4 238.5c0 3.9-7.6 7-17 7s-17-3.1-17-7m34 12c0 3.9-7.6 7-17 7s-17-3.1-17-7m34 12c0 3.9-7.6 7-17 7s-17-3.1-17-7m34-36v36m-34-36v36" fill="none" stroke-width="2"/></g><g opacity=".2"><path d="M791.4 302.7c.6-1.1 1.3-2.3 2-3.5" fill="none" stroke="#3893D0" stroke-width="4" stroke-linecap="round" stroke-linejoin="round"/><path d="M801.3 288.6c3.1-3.4 6.8-6.7 11-9.3 6-3.7 12.4-5.8 18.2-7.1" fill="none" stroke="#3893D0" stroke-width="4" stroke-linecap="round" stroke-linejoin="round" stroke-dasharray="7.0826,13.2798"/><path d="M837.1 271.1c1.4-.2 2.7-.3 4-.4" fill="none" stroke="#3893D0" stroke-width="4" stroke-linecap="round" stroke-linejoin="round"/><path fill="#3893D0" d="M797.7 303.6l-9.7 7-1.2-11.9m53.1-21.9l9.7-7-10.9-4.9"/></g><g opacity=".2"><path d="M693.7 692.7c-1.2-.4-2.5-.8-3.8-1.2" fill="none" stroke="#3893D0" stroke-width="4" stroke-linecap="round" stroke-linejoin="round"/><path d="M676.3 687.5c-15.1-3.7-33.4-5.7-56.3-.8-18.6 4-31.9 9.7-41.4 15" fill="none" stroke="#3893D0" stroke-width="4" stroke-linecap="round" stroke-linejoin="round" stroke-dasharray="7.5174,14.0952"/><path d="M572.6 705.4c-1.2.8-2.3 1.5-3.3 2.2" fill="none" stroke="#3893D0" stroke-width="4" stroke-linecap="round" stroke-linejoin="round"/><path fill="#3893D0" d="M693.8 686.5l8 8.9-11.7 2.5m-122.9 3.9l-4.9 11 11.9-1.3"/></g><g opacity=".2"><path d="M747.5 559.3c1.3.2 2.6.5 3.9.7" fill="none" stroke="#3893D0" stroke-width="4" stroke-linecap="round" stroke-linejoin="round"/><path d="M766.6 563.1c14.4 3.8 29.9 11.5 41 33.3 5.7 11.1 2.7 37.4-3.9 55" fill="none" stroke="#3893D0" stroke-width="4" stroke-linecap="round" stroke-linejoin="round" stroke-dasharray="8.2487,15.4662"/><path d="M800.6 658.5c-.6 1.2-1.3 2.4-2 3.5" fill="none" stroke="#3893D0" stroke-width="4" stroke-linecap="round" stroke-linejoin="round"/><path fill="#3893D0" d="M747.9 565.5l-8.8-8.2 11.5-3.5m44.7 102.6l-2.7 11.7 11.4-3.5"/></g><path fill="#5CBDF2" d="M964.1 588.3h-62v-36h18l4-4h40"/><path fill="#5CBDF2" d="M902.1 583.3h62v5h-62z"/><path fill="none" stroke="#073660" stroke-width="2" stroke-miterlimit="10" d="M948.1 548.3h16v40h-62v-36h18l4-4h14m0-8h-14l-4-4h-18v16m62-4v-8h-16m-41 18h2m2 0h2m2 0h2"/><path fill="#FFF" d="M948.1 535.3v19h10l-15 15-15-15h10v-19"/><path fill="none" stroke="#073660" stroke-width="2" stroke-linejoin="round" stroke-miterlimit="10" d="M948.1 535.3v19h10l-15 15-15-15h10v-19z"/><path fill="#FFF" d="M690.3 558.5l.2 18.4 4.8-.1-.5-17.9"/><path fill="#FFF" d="M695.3 576.9l-.5-18.5-4.5-.4.2 18.4"/><path d="M715.8 576.8v-18h4v-17c0-2.8-2.2-5-5-5h-10c-2.8 0-5 2.2-5 5v17h4v18" fill="none"/><path d="M698.8 553.8h5v-18c0-3.3-2.7-6-6-6h-10c-3.3 0-6 2.7-6 6v18h5" fill="#5CBDF2" stroke="#073660" stroke-miterlimit="10"/><path fill="none" d="M686.8 553.8h12v23h-12z"/><circle cx="692.8" cy="520.8" r="5" fill="none" stroke="#073660" stroke-miterlimit="10"/><path fill="none" stroke="#073660" stroke-width="2" stroke-linejoin="round" stroke-miterlimit="10" d="M692.8 576.8v-20"/><circle cx="692.8" cy="520.8" r="5" fill="none" stroke="#073660" stroke-width="2" stroke-linejoin="round" stroke-miterlimit="10"/><path d="M698.8 553.8h5v-18c0-3.3-2.7-6-6-6h-10c-3.3 0-6 2.7-6 6v18h5" fill="none" stroke="#073660" stroke-width="2" stroke-linejoin="round" stroke-miterlimit="10"/><path d="M681.8 576.8v-18h4v-17c0-2.8-2.2-5-5-5h-10c-2.8 0-5 2.2-5 5v17h4v18" fill="none"/><path d="M685.8 558.8v-17c0-2.8-2.2-5-5-5h-10c-2.8 0-5 2.2-5 5v17h20zm34 0v-17c0-2.8-2.2-5-5-5h-10c-2.8 0-5 2.2-5 5v17h20z" fill="#5CBDF2"/><circle cx="675.8" cy="528.8" r="4" fill="none" stroke="#073660" stroke-miterlimit="10"/><path fill="none" stroke="#073660" stroke-width="2" stroke-linejoin="round" stroke-miterlimit="10" d="M675.8 576.8v-15"/><circle cx="675.8" cy="528.8" r="4" fill="none" stroke="#073660" stroke-width="2" stroke-linejoin="round" stroke-miterlimit="10"/><path d="M703.8 576.8h12v-18h4v-17c0-2.8-2.2-5-5-5h-10c-2.8 0-5 2.2-5 5v17h4v18m-17.8 0c4.6 0 9.3.1 13.8.1m-18-.1v-18h4v-17c0-2.8-2.2-5-5-5h-10c-2.8 0-5 2.2-5 5v17h4v18h12m0 0" fill="none" stroke="#073660" stroke-width="2" stroke-linecap="round" stroke-linejoin="round" stroke-miterlimit="10"/><circle cx="709.8" cy="528.8" r="4" fill="none" stroke="#073660" stroke-miterlimit="10"/><path fill="none" stroke="#073660" stroke-width="2" stroke-linejoin="round" stroke-miterlimit="10" d="M709.8 576.8v-15"/><circle cx="709.8" cy="528.8" r="4" fill="none" stroke="#073660" stroke-width="2" stroke-linejoin="round" stroke-miterlimit="10"/><path fill="none" stroke="#073660" stroke-width="2" stroke-linejoin="round" stroke-miterlimit="10" d="M692.8 532.8v2m0 2v2m17 1v2m-34-2v2"/><path fill="none" stroke="#073660" stroke-width="2" stroke-linecap="round" stroke-linejoin="round" stroke-miterlimit="10" d="M692.8 576.9v-19.4"/><path fill="none" stroke="#073660" stroke-width="2" stroke-linejoin="round" stroke-miterlimit="10" d="M692.8 576.9v-20"/><path d="M486.3 113.4l2.4-.2s-.1.3-.1.6c0 1.5 1.2 2.4 3.1 2.4 2.4 0 3.3-.8 3.3-2.1 0-3.8-9.1-1.7-9.1-7.5 0-2.2 1.8-4.4 5.6-4.4s5.5 1.8 5.5 4.1c0 .6-.2 1-.2 1l-2.3.2s.1-.4.1-.7c0-1.3-.9-2.5-3.1-2.5-1.9 0-3.1.9-3.1 2.2 0 3.7 9.1 1.6 9.1 7.4 0 2.4-1.7 4.4-5.8 4.4s-5.7-2-5.7-4c.1-.5.3-.9.3-.9zm20.9-1.1s.1-.2.1-.7c0-1.4-.8-2.2-2.5-2.2-1.9 0-3.1.9-3.1 3.5 0 2.4 1.5 3.6 3.4 3.6 2.4 0 3.4-1.1 3.4-1.1l.8 1.7s-1.3 1.4-4.4 1.4c-3.4 0-5.6-1.9-5.6-5.5 0-3.7 2.1-5.5 5.5-5.5s4.6 2 4.6 3.8c0 .5-.2.9-.2.9l-2 .1zm12.3-3.4l.4-1.4h1.8v8.1c0 .6.3.9.7.9.4 0 .6-.1.6-.1v1.7s-.3.2-1.4.2c-1.3 0-1.9-.8-1.9-1.7v-.1h-.1s-.8 1.8-3.6 1.8c-2.7 0-4.9-1.9-4.9-5.5s2.3-5.5 5-5.5c2.4.1 3.4 1.6 3.4 1.6zm-.2 6.4v-4.6c-.4-.8-1.5-1.4-2.6-1.4-1.8 0-3.2 1.2-3.2 3.6 0 2.4 1.5 3.5 3.1 3.5s2.3-.7 2.7-1.1zm8.8-5.8c.1 0 .7-2.1 3.7-2.1 2.8 0 4 1.8 4 4.2v4.8l1.5.2v1.7h-3.9V112c0-1.6-.7-2.6-2.4-2.6-2.1 0-2.6 1.7-2.6 1.9v5l1.4.2v1.7h-5.3v-1.7l1.5-.2v-6.8l-1.5-.2v-1.7h3.3l.3 1.9zM290.3 240v-1.7l2-.2v-11.8h-3.8l-.2 2.4h-1.9l.1-4.5h14.2l.1 4.5h-1.9l-.3-2.4h-3.8v11.8l2 .2v1.7h-6.5zm19.4-8.5c-.2 0-.6-.2-1.2-.2-2.6 0-3.2 2.7-3.2 2.7v4l1.8.2v1.8h-5.7v-1.7l1.5-.2v-6.8l-1.5-.2v-1.7h3.3l.3 2.7h.1s.6-2.9 3.6-2.9c.5 0 1 .1 1.1.1v2.2zm9.3-.8l.4-1.4h1.8v8.1c0 .6.3.9.7.9.4 0 .6-.1.6-.1v1.7s-.3.2-1.4.2c-1.3 0-1.9-.8-1.9-1.7v-.1h-.1s-.8 1.8-3.6 1.8c-2.7 0-4.9-1.9-4.9-5.5s2.3-5.5 5-5.5c2.5 0 3.4 1.6 3.4 1.6zm-.2 6.3v-4.6c-.4-.8-1.5-1.4-2.6-1.4-1.8 0-3.2 1.2-3.2 3.6 0 2.4 1.5 3.5 3.1 3.5 1.6.1 2.4-.6 2.7-1.1zm9.5 3l-3.5-8.8-1.5-.2v-1.7h5.2v1.7l-1.2.2 2.5 6.5h.2l2.5-6.5-1.2-.2v-1.7h5.2v1.7l-1.5.2-3.5 8.8h-3.2zm11.1-4.8c.2 2 1.7 3 3.5 3 2.3 0 3.3-1.1 3.3-1.1l.9 1.7s-1.3 1.4-4.5 1.4-5.5-1.9-5.5-5.5 2.3-5.5 5.5-5.5c3.1 0 4.8 2.4 4.8 4.9 0 .8-.1 1.2-.1 1.2h-7.9zm0-1.5h5.7c0-1.9-1.3-2.7-2.6-2.7-1.7 0-2.9 1-3.1 2.7zm13.2 4.4l1.4.2v1.7h-5.3v-1.7l1.5-.2v-13.2l-1.5-.2V223h3.9v15.1zm-51.8 289.7V526l2-.2V514H299l-.2 2.4h-1.9l.1-4.5h14.2l.1 4.5h-1.9l-.4-2.4h-3.8v11.8l2 .2v1.7h-6.4zm19.3-8.6c-.2 0-.6-.2-1.2-.2-2.6 0-3.2 2.7-3.2 2.7v4l1.8.2v1.8h-5.7V526l1.5-.2V519l-1.5-.2V517h3.3l.3 2.7h.1s.6-2.9 3.6-2.9c.5 0 1 .1 1.1.1v2.3zm9.4-.7l.4-1.4h1.8v8.1c0 .6.3.9.7.9.4 0 .6-.1.6-.1v1.7s-.3.2-1.4.2c-1.3 0-1.9-.8-1.9-1.7v-.1h-.1s-.8 1.8-3.6 1.8c-2.7 0-4.9-1.9-4.9-5.5s2.3-5.5 5-5.5c2.4 0 3.4 1.6 3.4 1.6zm-.2 6.3v-4.6c-.4-.8-1.5-1.4-2.6-1.4-1.8 0-3.2 1.2-3.2 3.6 0 2.4 1.5 3.5 3.1 3.5 1.5.1 2.3-.7 2.7-1.1zm9.4 3l-3.5-8.8-1.5-.2V517h5.2v1.7l-1.2.2 2.5 6.5h.2l2.5-6.5-1.2-.2V517h5.2v1.7l-1.5.2-3.5 8.8h-3.2zm11.1-4.8c.2 2 1.7 3 3.5 3 2.3 0 3.3-1.1 3.3-1.1l.9 1.7s-1.3 1.4-4.5 1.4-5.5-1.9-5.5-5.5 2.3-5.5 5.5-5.5c3.1 0 4.8 2.4 4.8 4.9 0 .8-.1 1.2-.1 1.2h-7.9zm0-1.5h5.7c0-1.9-1.3-2.7-2.6-2.7-1.7 0-2.9 1-3.1 2.7zm13.3 4.3l1.4.2v1.7h-5.3V526l1.5-.2v-13.2l-1.5-.2v-1.7h3.9v15.1zM254.4 757.5v-1.7l2-.2v-11.8h-3.8l-.2 2.4h-1.9l.1-4.5h14.2l.1 4.5H263l-.3-2.4h-3.8v11.8l2 .2v1.7h-6.5zm19.4-8.6c-.2 0-.6-.2-1.2-.2-2.6 0-3.2 2.7-3.2 2.7v4l1.8.2v1.8h-5.7v-1.7l1.5-.2v-6.8l-1.5-.2v-1.7h3.3l.3 2.7h.1s.6-2.9 3.6-2.9c.5 0 1 .1 1.1.1v2.2zm9.3-.8l.4-1.4h1.8v8.1c0 .6.3.9.7.9.4 0 .6-.1.6-.1v1.7s-.3.2-1.4.2c-1.3 0-1.9-.8-1.9-1.7v-.1h-.1s-.8 1.8-3.6 1.8c-2.7 0-4.9-1.9-4.9-5.5s2.3-5.5 5-5.5c2.5.1 3.4 1.6 3.4 1.6zm-.2 6.4v-4.6c-.4-.8-1.5-1.4-2.6-1.4-1.8 0-3.2 1.2-3.2 3.6 0 2.4 1.5 3.5 3.1 3.5s2.4-.7 2.7-1.1zm9.5 3l-3.5-8.8-1.5-.2v-1.7h5.2v1.7l-1.2.2 2.5 6.5h.2l2.5-6.5-1.2-.2v-1.7h5.2v1.7l-1.5.2-3.5 8.8h-3.2zm11.1-4.8c.2 2 1.7 3 3.5 3 2.3 0 3.3-1.1 3.3-1.1l.9 1.7s-1.3 1.4-4.5 1.4-5.5-1.9-5.5-5.5 2.3-5.5 5.5-5.5c3.1 0 4.8 2.4 4.8 4.9 0 .8-.1 1.2-.1 1.2h-7.9zm0-1.6h5.7c0-1.9-1.3-2.7-2.6-2.7-1.7 0-3 1.1-3.1 2.7zm13.2 4.4l1.4.2v1.7h-5.3v-1.7l1.5-.2v-13.2l-1.5-.2v-1.7h3.9v15.1zm173.7 28l2 .2v1.7h-6.5v-1.7l2-.2v-4l-5-7.9-1.8-.3v-1.7h6.4v1.7l-1.8.3 3.3 5.8h.2l3.4-5.8-1.8-.3v-1.7h6.3v1.7l-1.8.3-5 7.9v4zm10.8 2.1c-3.3 0-5.5-1.9-5.5-5.5s2.3-5.5 5.5-5.5 5.5 1.9 5.5 5.5-2.2 5.5-5.5 5.5zm3.1-5.5c0-2.4-1.5-3.5-3.1-3.5s-3.2 1.1-3.2 3.5 1.4 3.6 3.2 3.6c1.7-.1 3.1-1.2 3.1-3.6zm12.8 3.3s-.6 2.2-3.7 2.2c-2.8 0-4-1.8-4-4.2v-4.8l-1.5-.2v-1.7h3.9v6.3c0 1.6.6 2.6 2.4 2.6 1.9 0 2.5-1.5 2.6-1.8v-5.1l-1.4-.2v-1.7h3.8v8.8l1.5.2v1.7h-3.3l-.3-2.1zM44.6 571.3l-4.3-13.8-1.7-.3v-1.7h6.3v1.7l-1.8.3 2.7 9.9c0 .2.2 1 .2 1h.2s.1-.8.2-1l3-11.9h2.1l2.9 11.9c0 .2.2 1 .2 1h.3s.2-.8.2-1l2.8-9.9-1.8-.3v-1.7h6.2v1.7l-1.7.3-4.6 13.8h-2.9l-2.5-11.1c0-.2-.1-.7-.1-.7h-.2s0 .5-.1.7l-2.6 11.1h-3zm22.3-2l1.4.2v1.7H63v-1.7l1.5-.2v-6.8l-1.5-.2v-1.7h3.9v8.7zm-1.3-11.2c-1 0-1.7-.8-1.7-1.7s.8-1.7 1.7-1.7c.9 0 1.7.8 1.7 1.7s-.7 1.7-1.7 1.7zm7.7-.5v3h3.4v1.9h-3.4v4.9c0 1.4.6 2.1 1.7 2.1 1.3 0 1.9-.3 1.9-.3v2s-1 .4-2.4.4c-2.4 0-3.6-1.3-3.6-4v-5.1h-1.6v-1.9H71l.4-3h1.9zm8.6 4.9c.1 0 .7-2.1 3.7-2.1 2.8 0 4 1.8 4 4.2v4.8l1.5.2v1.7h-3.9V565c0-1.6-.7-2.6-2.4-2.6-2.1 0-2.6 1.7-2.6 1.9v5l1.4.2v1.7h-5.3v-1.7l1.5-.2v-6.8l-1.5-.2v-1.7h3.3l.3 1.9zm12.9 4c.2 2 1.7 3 3.5 3 2.3 0 3.3-1.1 3.3-1.1l.9 1.7s-1.3 1.4-4.5 1.4-5.5-1.9-5.5-5.5 2.3-5.5 5.5-5.5c3.1 0 4.8 2.4 4.8 4.9 0 .8-.1 1.2-.1 1.2h-7.9zm0-1.5h5.7c0-1.9-1.3-2.7-2.6-2.7-1.7 0-2.9 1-3.1 2.7zm9.5 3.4c0-.4.1-.7.1-.7l2.1-.2s-.1.2-.1.4c0 1 .8 1.7 2.5 1.7s2.4-.6 2.4-1.4c0-.9-1.3-1.2-2.7-1.4-1.9-.3-4.1-.8-4.1-3.3 0-1.8 1.6-3.1 4.3-3.1 3.4 0 4.6 1.4 4.6 3 0 .5-.1.8-.1.8l-2.1.1s.1-.2.1-.6c0-1-.6-1.6-2.2-1.6-1.1 0-2.1.4-2.1 1.4 0 1.1 1.5 1.3 3 1.6 2 .4 3.8 1 3.8 3.2 0 1.7-1.3 3.1-4.7 3.1-3.6 0-4.8-1.4-4.8-3zm11.1 0c0-.4.1-.7.1-.7l2.1-.2s-.1.2-.1.4c0 1 .8 1.7 2.5 1.7s2.4-.6 2.4-1.4c0-.9-1.3-1.2-2.7-1.4-1.9-.3-4.1-.8-4.1-3.3 0-1.8 1.6-3.1 4.3-3.1 3.4 0 4.6 1.4 4.6 3 0 .5-.1.8-.1.8l-2.1.1s.1-.2.1-.6c0-1-.6-1.6-2.2-1.6-1.1 0-2.1.4-2.1 1.4 0 1.1 1.5 1.3 3 1.6 2 .4 3.8 1 3.8 3.2 0 1.7-1.3 3.1-4.7 3.1-3.6 0-4.8-1.4-4.8-3zM54.8 596c0-.4.1-.7.1-.7l2.1-.2s-.1.2-.1.4c0 1 .8 1.7 2.5 1.7s2.4-.6 2.4-1.4c0-.9-1.3-1.2-2.7-1.4-1.9-.3-4.1-.8-4.1-3.3 0-1.8 1.6-3.1 4.3-3.1 3.4 0 4.6 1.4 4.6 3 0 .5-.1.8-.1.8l-2.1.1s.1-.2.1-.6c0-1-.6-1.6-2.2-1.6-1.1 0-2.1.4-2.1 1.4 0 1.1 1.5 1.3 3 1.6 2 .4 3.8 1 3.8 3.2 0 1.7-1.3 3.1-4.7 3.1-3.6 0-4.8-1.4-4.8-3zm15 .9l1.4.2v1.7h-5.3v-1.7l1.5-.2v-6.8l-1.5-.2v-1.7h3.9v8.7zm-1.2-11.2c-1 0-1.7-.8-1.7-1.7s.8-1.7 1.7-1.7c.9 0 1.7.8 1.7 1.7s-.8 1.7-1.7 1.7zm12.5 12.9v-.9H81s-.9 1.4-3.4 1.4c-2.7 0-4.9-1.9-4.9-5.5 0-3.8 2.1-5.5 4.8-5.5 2.6 0 3.6 1.8 3.6 1.8h.1l.3-1.7h3.3v1.7l-1.5.2v9.6c0 4-2.6 5.7-5.8 5.7-3.2 0-4.7-1.7-4.7-1.7l1-1.7s.9 1.4 3.6 1.4c2.1 0 3.6-1 3.6-3.7v-1.1zm-.1-2.7v-4.6c-.4-.8-1.5-1.4-2.6-1.4-1.8 0-3.2 1.2-3.2 3.6 0 2.4 1.5 3.5 3.2 3.5 1.5.1 2.3-.7 2.6-1.1zm8.9-5.8c.1 0 .7-2.1 3.7-2.1 2.8 0 4 1.8 4 4.2v4.8l1.5.2v1.7h-3.9v-6.3c0-1.6-.7-2.6-2.4-2.6-2.1 0-2.6 1.7-2.6 1.9v5l1.4.2v1.7h-5.3v-1.7l1.5-.2v-6.8l-1.5-.2v-1.7h3.3l.3 1.9zm10.5 5.9c0-.4.1-.7.1-.7l2.1-.2s-.1.2-.1.4c0 1 .8 1.7 2.5 1.7s2.4-.6 2.4-1.4c0-.9-1.3-1.2-2.7-1.4-1.9-.3-4.1-.8-4.1-3.3 0-1.8 1.6-3.1 4.3-3.1 3.4 0 4.6 1.4 4.6 3 0 .5-.1.8-.1.8l-2.1.1s.1-.2.1-.6c0-1-.6-1.6-2.2-1.6-1.1 0-2.1.4-2.1 1.4 0 1.1 1.5 1.3 3 1.6 2 .4 3.8 1 3.8 3.2 0 1.7-1.3 3.1-4.7 3.1-3.6 0-4.8-1.4-4.8-3zm18.4-257.3V337l2-.2v-11.9l-2-.2V323h6.9c4.7 0 8 2.3 8 7.9 0 5.7-3.2 7.9-7.7 7.9h-7.2zm6.8-2.1c3.9 0 5.6-1.9 5.6-5.9 0-3.8-1.8-5.9-5.9-5.9h-2v11.7h2.3zm15.4 2.2c-3.3 0-5.5-1.9-5.5-5.5s2.3-5.5 5.5-5.5 5.5 1.9 5.5 5.5-2.2 5.5-5.5 5.5zm3.1-5.5c0-2.4-1.5-3.5-3.1-3.5s-3.2 1.1-3.2 3.5 1.4 3.6 3.2 3.6c1.7 0 3.1-1.2 3.1-3.6zm12-.6s.1-.2.1-.7c0-1.4-.8-2.2-2.5-2.2-1.9 0-3.1.9-3.1 3.5 0 2.4 1.5 3.6 3.4 3.6 2.4 0 3.4-1.1 3.4-1.1l.8 1.7s-1.3 1.4-4.4 1.4c-3.4 0-5.6-1.9-5.6-5.5 0-3.7 2.1-5.5 5.5-5.5s4.6 2 4.6 3.8c0 .5-.2.9-.2.9l-2 .1zm12.6 3.9s-.6 2.2-3.7 2.2c-2.8 0-4-1.8-4-4.2v-4.8l-1.5-.2v-1.7h3.9v6.3c0 1.6.6 2.6 2.4 2.6 1.9 0 2.5-1.5 2.6-1.8v-5.1l-1.4-.2V328h3.8v8.8l1.5.2v1.7H169l-.3-2.1zm8.7-6.7c.1 0 .7-2.1 3.7-2.1 1.8 0 3 .8 3.6 2 .1-.4.9-2 3.6-2 2.8 0 4 1.8 4 4.2v4.8l1.5.2v1.7H190v-6.3c0-1.6-.6-2.6-2.4-2.6-1.5 0-2.2.9-2.5 1.4v5.5l1.5.2v1.7h-3.9v-6.3c0-1.6-.7-2.6-2.4-2.6-2.1 0-2.6 1.7-2.6 1.9v5l1.4.2v1.7h-5.3v-1.7l1.5-.2v-6.8l-1.5-.2v-1.7h3.3l.3 2zm20.1 4c.2 2 1.7 3 3.5 3 2.3 0 3.3-1.1 3.3-1.1l.9 1.7s-1.3 1.4-4.5 1.4-5.5-1.9-5.5-5.5 2.3-5.5 5.5-5.5c3.1 0 4.8 2.4 4.8 4.9 0 .8-.1 1.2-.1 1.2h-7.9zm0-1.5h5.7c0-1.9-1.3-2.7-2.6-2.7-1.7 0-3 1-3.1 2.7zm13.1-2.5c.1 0 .7-2.1 3.7-2.1 2.8 0 4 1.8 4 4.2v4.8l1.5.2v1.7H216v-6.3c0-1.6-.7-2.6-2.4-2.6-2.1 0-2.6 1.7-2.6 1.9v5l1.4.2v1.7H207v-1.7l1.5-.2v-6.8l-1.5-.2V328h3.3l.3 1.9zm14-4.9v3h3.4v1.9h-3.4v4.9c0 1.4.6 2.1 1.7 2.1 1.3 0 1.9-.3 1.9-.3v2s-1 .4-2.4.4c-2.4 0-3.6-1.3-3.6-4v-5.1h-1.6V328h1.6l.4-3h2zm-108.3 35.3s.1-.2.1-.7c0-1.4-.8-2.2-2.5-2.2-1.9 0-3.1.9-3.1 3.5 0 2.4 1.5 3.6 3.4 3.6 2.4 0 3.4-1.1 3.4-1.1l.8 1.7s-1.3 1.4-4.4 1.4c-3.4 0-5.6-1.9-5.6-5.5 0-3.7 2.1-5.5 5.5-5.5s4.6 2 4.6 3.8c0 .5-.2.9-.2.9l-2 .1zm6.2 1.2c.2 2 1.7 3 3.5 3 2.3 0 3.3-1.1 3.3-1.1l.9 1.7s-1.3 1.4-4.5 1.4-5.5-1.9-5.5-5.5 2.3-5.5 5.5-5.5c3.1 0 4.8 2.4 4.8 4.9 0 .8-.1 1.2-.1 1.2h-7.9zm0-1.6h5.7c0-1.9-1.3-2.7-2.6-2.7-1.6.1-2.9 1.1-3.1 2.7zm17.9-2.2c-.2 0-.6-.2-1.2-.2-2.6 0-3.2 2.7-3.2 2.7v4l1.8.2v1.8h-5.7v-1.7l1.5-.2v-6.8l-1.5-.2v-1.7h3.3l.3 2.7h.1s.6-2.9 3.6-2.9c.5 0 1 .1 1.1.1v2.2zm4.6-5.1v3h3.4v1.9H145v4.9c0 1.4.6 2.1 1.7 2.1 1.3 0 1.9-.3 1.9-.3v2s-1 .4-2.4.4c-2.4 0-3.6-1.3-3.6-4v-5.1H141v-1.9h1.6l.4-3h2zm9 11.7l1.4.2v1.7h-5.3v-1.7l1.5-.2v-6.8l-1.5-.2v-1.7h3.9v8.7zm-1.3-11.2c-1 0-1.7-.8-1.7-1.7s.8-1.7 1.7-1.7c.9 0 1.7.8 1.7 1.7s-.8 1.7-1.7 1.7zm4.3 13.2v-1.7l1.5-.2v-6.9H157v-1.9h1.5v-2.4c0-2.8 1.4-4.2 4-4.2 1.2 0 2.1.4 2.1.4v2s-.6-.3-1.7-.3c-1.3 0-2 .7-2 2.2v2.4h3.4v1.9h-3.4v7l2.4.2v1.7H157zm12.2-2l1.4.2v1.7h-5.3v-1.7l1.5-.2v-6.8l-1.5-.2v-1.7h3.9v8.7zm-1.3-11.2c-1 0-1.7-.8-1.7-1.7s.8-1.7 1.7-1.7c.9 0 1.7.8 1.7 1.7s-.8 1.7-1.7 1.7zm12.1 7.2s.1-.2.1-.7c0-1.4-.8-2.2-2.5-2.2-1.9 0-3.1.9-3.1 3.5 0 2.4 1.5 3.6 3.4 3.6 2.4 0 3.4-1.1 3.4-1.1l.8 1.7s-1.3 1.4-4.4 1.4c-3.4 0-5.6-1.9-5.6-5.5 0-3.7 2.1-5.5 5.5-5.5s4.6 2 4.6 3.8c0 .5-.2.9-.2.9l-2 .1zm12.3-3.3l.4-1.4h1.8v8.1c0 .6.3.9.7.9.4 0 .6-.1.6-.1v1.7s-.3.2-1.4.2c-1.3 0-1.9-.8-1.9-1.7v-.1h-.1s-.8 1.8-3.6 1.8c-2.7 0-4.9-1.9-4.9-5.5s2.3-5.5 5-5.5c2.4 0 3.4 1.6 3.4 1.6zm-.2 6.3v-4.6c-.4-.8-1.5-1.4-2.6-1.4-1.8 0-3.2 1.2-3.2 3.6 0 2.4 1.5 3.5 3.1 3.5 1.6.1 2.4-.7 2.7-1.1zm8.7-10.7v3h3.4v1.9h-3.4v4.9c0 1.4.6 2.1 1.7 2.1 1.3 0 1.9-.3 1.9-.3v2s-1 .4-2.4.4c-2.4 0-3.6-1.3-3.6-4v-5.1h-1.6v-1.9h1.6l.4-3h2zm9 11.7l1.4.2v1.7h-5.3v-1.7l1.5-.2v-6.8l-1.5-.2v-1.7h3.9v8.7zm-1.3-11.2c-1 0-1.7-.8-1.7-1.7s.8-1.7 1.7-1.7c.9 0 1.7.8 1.7 1.7s-.8 1.7-1.7 1.7zm9.7 13.3c-3.3 0-5.5-1.9-5.5-5.5s2.3-5.5 5.5-5.5 5.5 1.9 5.5 5.5-2.2 5.5-5.5 5.5zm3.1-5.5c0-2.4-1.5-3.5-3.1-3.5s-3.2 1.1-3.2 3.5 1.4 3.6 3.2 3.6c1.7 0 3.1-1.2 3.1-3.6zm7.6-3.4c.1 0 .7-2.1 3.7-2.1 2.8 0 4 1.8 4 4.2v4.8l1.5.2v1.7h-3.9V360c0-1.6-.7-2.6-2.4-2.6-2.1 0-2.6 1.7-2.6 1.9v5l1.4.2v1.7h-5.3v-1.7l1.5-.2v-6.8l-1.5-.2v-1.7h3.3l.3 1.9zm247.7-66.3v-1.7l2-.2v-11.9l-2-.3v-1.7h7.4c3.1 0 5.4 1.8 5.4 5 0 3.3-2.2 5.1-5.7 5.1H481v3.8l2.5.2v1.7h-6.9zm6.9-7.8c2.3 0 3.5-.9 3.5-3s-1.6-2.9-3.4-2.9h-2.5v6h2.4zm15.8-.7c-.2 0-.6-.2-1.2-.2-2.6 0-3.2 2.7-3.2 2.7v4l1.8.2v1.8H491v-1.7l1.5-.2v-6.8l-1.5-.2v-1.7h3.3l.3 2.7h.1s.6-2.9 3.6-2.9c.5 0 1 .1 1.1.1v2.2zm5.1 6.6l1.4.2v1.7h-5.3v-1.7l1.5-.2v-6.8l-1.5-.2v-1.7h3.9v8.7zm-1.3-11.2c-1 0-1.7-.8-1.7-1.7s.8-1.7 1.7-1.7c.9 0 1.7.8 1.7 1.7s-.7 1.7-1.7 1.7zm7.8 4.3c.1 0 .7-2.1 3.7-2.1 2.8 0 4 1.8 4 4.2v4.8l1.5.2v1.7h-3.9v-6.3c0-1.6-.7-2.6-2.4-2.6-2.1 0-2.6 1.7-2.6 1.9v5l1.4.2v1.7h-5.3v-1.7l1.5-.2v-6.8l-1.5-.2v-1.7h3.3l.3 1.9zm14-4.9v3h3.4v1.9h-3.4v4.9c0 1.4.6 2.1 1.7 2.1 1.3 0 1.9-.3 1.9-.3v2s-1 .4-2.4.4c-2.4 0-3.6-1.3-3.6-4v-5.1H521v-1.9h1.6l.4-3h1.9zm173-36.6l2.4-.2s-.1.3-.1.6c0 1.5 1.2 2.4 3.1 2.4 2.4 0 3.3-.8 3.3-2.1 0-3.8-9.1-1.7-9.1-7.5 0-2.2 1.8-4.4 5.6-4.4s5.5 1.8 5.5 4.1c0 .6-.2 1-.2 1l-2.3.2s.1-.4.1-.7c0-1.3-.9-2.5-3.1-2.5-1.9 0-3.1.9-3.1 2.2 0 3.7 9.1 1.6 9.1 7.4 0 2.4-1.7 4.4-5.8 4.4s-5.7-2-5.7-4c.1-.5.3-.9.3-.9zm17 2.9l1.4.2v1.7H711V244l1.5-.2V237l-1.5-.2V235h3.9v8.8zm-1.3-11.2c-1 0-1.7-.8-1.7-1.7s.8-1.7 1.7-1.7c.9 0 1.7.8 1.7 1.7s-.8 1.7-1.7 1.7zm12.5 12.9v-.9h-.1s-.9 1.4-3.4 1.4c-2.7 0-4.9-1.9-4.9-5.5 0-3.8 2.1-5.5 4.8-5.5 2.6 0 3.6 1.8 3.6 1.8h.1l.3-1.7h3.3v1.7l-1.5.2v9.6c0 4-2.6 5.7-5.8 5.7-3.2 0-4.7-1.7-4.7-1.7l1-1.7s.9 1.4 3.6 1.4c2.1 0 3.6-1 3.6-3.7v-1.1zm0-2.7v-4.6c-.4-.8-1.5-1.4-2.6-1.4-1.8 0-3.2 1.2-3.2 3.6 0 2.4 1.5 3.5 3.2 3.5 1.4 0 2.2-.7 2.6-1.1zm8.8-5.8c.1 0 .7-2.1 3.7-2.1 2.8 0 4 1.8 4 4.2v4.8l1.5.2v1.7h-3.9v-6.3c0-1.6-.7-2.6-2.4-2.6-2.1 0-2.6 1.7-2.6 1.9v5l1.4.2v1.7h-5.3V244l1.5-.2V237l-1.5-.2V235h3.3l.3 2zM495.4 510v-1.7l2-.2v-11.9l-2-.2v-1.7h12.4l.1 4.5H506l-.3-2.4h-5.9v4.8h5.1v2h-5.1v4.9h5.9l.3-2.4h1.9l-.1 4.4h-12.4zm17.9-8.8c.1 0 .7-2.1 3.7-2.1 1.8 0 3 .8 3.6 2 .1-.4.9-2 3.6-2 2.8 0 4 1.8 4 4.2v4.8l1.5.2v1.7h-3.9v-6.3c0-1.6-.6-2.6-2.4-2.6-1.5 0-2.2.9-2.5 1.4v5.5l1.5.2v1.7h-3.9v-6.3c0-1.6-.7-2.6-2.4-2.6-2.1 0-2.6 1.7-2.6 1.9v5l1.4.2v1.7h-5.3v-1.7l1.5-.2v-6.8l-1.5-.2v-1.7h3.3l.4 2zm26.2-.5l.4-1.4h1.8v8.1c0 .6.3.9.7.9.4 0 .6-.1.6-.1v1.7s-.3.2-1.4.2c-1.3 0-1.9-.8-1.9-1.7v-.1h-.1s-.8 1.8-3.6 1.8c-2.7 0-4.9-1.9-4.9-5.5s2.3-5.5 5-5.5c2.4 0 3.4 1.6 3.4 1.6zm-.2 6.3v-4.6c-.4-.8-1.5-1.4-2.6-1.4-1.8 0-3.2 1.2-3.2 3.6 0 2.4 1.5 3.5 3.1 3.5 1.6.1 2.3-.7 2.7-1.1zm9.2 1l1.4.2v1.7h-5.3v-1.7l1.5-.2v-6.8l-1.5-.2v-1.7h3.9v8.7zm-1.3-11.2c-1 0-1.7-.8-1.7-1.7s.8-1.7 1.7-1.7c.9 0 1.7.8 1.7 1.7s-.8 1.7-1.7 1.7zm7.9 11.2l1.4.2v1.7h-5.3v-1.7l1.5-.2v-13.2l-1.5-.2v-1.7h3.9V508zm84.3 103.7l2 .2v1.7H635V612l2-.2v-4l-5-7.9-1.8-.3v-1.7h6.4v1.7l-1.8.3 3.3 5.8h.2l3.4-5.8-1.8-.3v-1.7h6.3v1.7l-1.8.3-5 7.9v3.9zm10.8 2.2c-3.3 0-5.5-1.9-5.5-5.5s2.3-5.5 5.5-5.5 5.5 1.9 5.5 5.5-2.2 5.5-5.5 5.5zm3.1-5.6c0-2.4-1.5-3.5-3.1-3.5s-3.2 1.1-3.2 3.5 1.4 3.6 3.2 3.6c1.7 0 3.1-1.2 3.1-3.6zm12.9 3.4s-.6 2.2-3.7 2.2c-2.8 0-4-1.8-4-4.2v-4.8l-1.5-.2V603h3.9v6.3c0 1.6.6 2.6 2.4 2.6 1.9 0 2.5-1.5 2.6-1.8V605l-1.4-.2V603h3.8v8.8l1.5.2v1.7h-3.3l-.3-2zm13.4-6.6c-.2 0-.6-.2-1.2-.2-2.6 0-3.2 2.7-3.2 2.7v4l1.8.2v1.8h-5.7V612l1.5-.2V605l-1.5-.2V603h3.3l.3 2.7h.1s.6-2.9 3.6-2.9c.5 0 1 .1 1.1.1v2.2zm13.7 2.6s.1-.2.1-.7c0-1.4-.8-2.2-2.5-2.2-1.9 0-3.1.9-3.1 3.5 0 2.4 1.5 3.6 3.4 3.6 2.4 0 3.4-1.1 3.4-1.1l.8 1.7s-1.3 1.4-4.4 1.4c-3.4 0-5.6-1.9-5.6-5.5 0-3.7 2.1-5.5 5.5-5.5s4.6 2 4.6 3.8c0 .5-.2.9-.2.9l-2 .1zm7.6 4l1.4.2v1.7H697V612l1.5-.2v-13.2l-1.5-.2v-1.7h3.9v15zm6.9 0l1.4.2v1.7h-5.3V612l1.5-.2V605l-1.5-.2V603h3.9v8.7zm-1.3-11.1c-1 0-1.7-.8-1.7-1.7s.8-1.7 1.7-1.7c.9 0 1.7.8 1.7 1.7s-.7 1.7-1.7 1.7zm6.6 8.3c.2 2 1.7 3 3.5 3 2.3 0 3.3-1.1 3.3-1.1l.9 1.7s-1.3 1.4-4.5 1.4-5.5-1.9-5.5-5.5 2.3-5.5 5.5-5.5c3.1 0 4.8 2.4 4.8 4.9 0 .8-.1 1.2-.1 1.2h-7.9zm0-1.5h5.7c0-1.9-1.3-2.7-2.6-2.7-1.6 0-2.9 1-3.1 2.7zm13.1-2.5c.1 0 .7-2.1 3.7-2.1 2.8 0 4 1.8 4 4.2v4.8l1.5.2v1.7h-3.9v-6.3c0-1.6-.7-2.6-2.4-2.6-2.1 0-2.6 1.7-2.6 1.9v5l1.4.2v1.7h-5.3V612l1.5-.2V605l-1.5-.2V603h3.3l.3 1.9zm14-4.9v3h3.4v1.9h-3.4v4.9c0 1.4.6 2.1 1.7 2.1 1.3 0 1.9-.3 1.9-.3v2s-1 .4-2.4.4c-2.4 0-3.6-1.3-3.6-4v-5.1h-1.6V603h1.6l.4-3h2zm5 10.9c0-.4.1-.7.1-.7l2.1-.2s-.1.2-.1.4c0 1 .8 1.7 2.5 1.7s2.4-.6 2.4-1.4c0-.9-1.3-1.2-2.7-1.4-1.9-.3-4.1-.8-4.1-3.3 0-1.8 1.6-3.1 4.3-3.1 3.4 0 4.6 1.4 4.6 3 0 .5-.1.8-.1.8l-2.1.1s.1-.2.1-.6c0-1-.6-1.6-2.2-1.6-1.1 0-2.1.4-2.1 1.4 0 1.1 1.5 1.3 3 1.6 2 .4 3.8 1 3.8 3.2 0 1.7-1.3 3.1-4.7 3.1-3.6 0-4.8-1.5-4.8-3zm-20.3 157.2l2.4-.2s-.1.3-.1.6c0 1.5 1.2 2.4 3.1 2.4 2.4 0 3.3-.8 3.3-2.1 0-3.8-9.1-1.7-9.1-7.5 0-2.2 1.8-4.4 5.6-4.4s5.5 1.8 5.5 4.1c0 .6-.2 1-.2 1l-2.3.2s.1-.4.1-.7c0-1.3-.9-2.5-3.1-2.5-1.9 0-3.1.9-3.1 2.2 0 3.7 9.1 1.6 9.1 7.4 0 2.4-1.7 4.4-5.8 4.4s-5.7-2-5.7-4c.1-.5.3-.9.3-.9zm17 2.9l1.4.2v1.7H738v-1.7l1.5-.2v-6.8l-1.5-.2v-1.7h3.9v8.7zm-1.3-11.2c-1 0-1.7-.8-1.7-1.7s.8-1.7 1.7-1.7c.9 0 1.7.8 1.7 1.7s-.8 1.7-1.7 1.7zm12.5 12.9v-.9h-.1s-.9 1.4-3.4 1.4c-2.7 0-4.9-1.9-4.9-5.5 0-3.8 2.1-5.5 4.8-5.5 2.6 0 3.6 1.8 3.6 1.8h.1l.3-1.7h3.3v1.7l-1.5.2v9.6c0 4-2.6 5.7-5.8 5.7-3.2 0-4.7-1.7-4.7-1.7l1-1.7s.9 1.4 3.6 1.4c2.1 0 3.6-1 3.6-3.7v-1.1zm0-2.7v-4.6c-.4-.8-1.5-1.4-2.6-1.4-1.8 0-3.2 1.2-3.2 3.6 0 2.4 1.5 3.5 3.2 3.5 1.4 0 2.2-.7 2.6-1.1zm8.8-5.8c.1 0 .7-2.1 3.7-2.1 2.8 0 4 1.8 4 4.2v4.8l1.5.2v1.7h-3.9v-6.3c0-1.6-.7-2.6-2.4-2.6-2.1 0-2.6 1.7-2.6 1.9v5l1.4.2v1.7h-5.3v-1.7l1.5-.2v-6.8l-1.5-.2v-1.7h3.3l.3 1.9zm114.8-139.5V623l2-.2v-11.9l-2-.2V609h6.9c4.7 0 8 2.3 8 7.9 0 5.7-3.2 7.9-7.7 7.9h-7.2zm6.8-2c3.9 0 5.6-1.9 5.6-5.9 0-3.8-1.8-5.9-5.9-5.9h-2v11.7h2.3zm18.4-7.3l.4-1.4h1.8v8.1c0 .6.3.9.7.9.4 0 .6-.1.6-.1v1.7s-.3.2-1.4.2c-1.3 0-1.9-.8-1.9-1.7v-.1h-.1s-.8 1.8-3.6 1.8c-2.7 0-4.9-1.9-4.9-5.5s2.3-5.5 5-5.5c2.4 0 3.4 1.6 3.4 1.6zm-.2 6.3v-4.6c-.4-.8-1.5-1.4-2.6-1.4-1.8 0-3.2 1.2-3.2 3.6 0 2.4 1.5 3.5 3.1 3.5 1.5.1 2.3-.6 2.7-1.1zm8.7-10.7v3h3.4v1.9h-3.4v4.9c0 1.4.6 2.1 1.7 2.1 1.3 0 1.9-.3 1.9-.3v2s-1 .4-2.4.4c-2.4 0-3.6-1.3-3.6-4v-5.1h-1.6V614h1.6l.4-3h2zm13.4 4.4l.4-1.4h1.8v8.1c0 .6.3.9.7.9.4 0 .6-.1.6-.1v1.7s-.3.2-1.4.2c-1.3 0-1.9-.8-1.9-1.7v-.1h-.1s-.8 1.8-3.6 1.8c-2.7 0-4.9-1.9-4.9-5.5s2.3-5.5 5-5.5c2.4 0 3.4 1.6 3.4 1.6zm-.2 6.3v-4.6c-.4-.8-1.5-1.4-2.6-1.4-1.8 0-3.2 1.2-3.2 3.6 0 2.4 1.5 3.5 3.1 3.5 1.6.1 2.3-.6 2.7-1.1zm12.8-1.8c.2 2 1.7 3 3.5 3 2.3 0 3.3-1.1 3.3-1.1l.9 1.7s-1.3 1.4-4.5 1.4-5.5-1.9-5.5-5.5 2.3-5.5 5.5-5.5c3.1 0 4.8 2.4 4.8 4.9 0 .8-.1 1.2-.1 1.2h-7.9zm0-1.5h5.7c0-1.9-1.3-2.7-2.6-2.7-1.7 0-3 1-3.1 2.7zm13.1-2.5c.1 0 .7-2.1 3.7-2.1 2.8 0 4 1.8 4 4.2v4.8l1.5.2v1.7h-3.9v-6.3c0-1.6-.7-2.6-2.4-2.6-2.1 0-2.6 1.7-2.6 1.9v5l1.4.2v1.7h-5.3V623l1.5-.2V616l-1.5-.2V614h3.3l.3 1.9zm14-4.9v3h3.4v1.9h-3.4v4.9c0 1.4.6 2.1 1.7 2.1 1.3 0 1.9-.3 1.9-.3v2s-1 .4-2.4.4c-2.4 0-3.6-1.3-3.6-4v-5.1h-1.6V614h1.6l.4-3h2zm13.3 5.1c-.2 0-.6-.2-1.2-.2-2.6 0-3.2 2.7-3.2 2.7v4l1.8.2v1.8h-5.7V623l1.5-.2V616l-1.5-.2V614h3.3l.3 2.7h.1s.6-2.9 3.6-2.9c.5 0 1 .1 1.1.1v2.2zm9.8 7.1c-.4.6-1.3 1.6-3.5 1.6-2.8 0-4-1.8-4-4.2v-4.8l-1.5-.2V614h3.9v6.3c0 1.6.6 2.6 2.4 2.6 2.1 0 2.6-1.7 2.7-1.9v-5.1l-1.4-.2V614h3.8v11.8c0 3.8-2.4 5.5-5.7 5.5-3.1 0-4.5-1.7-4.5-1.7l1-1.7s.9 1.4 3.4 1.4c2.1 0 3.5-1 3.5-3.5v-2.6zM699.5 410.7V409l2-.2v-11.9l-2-.2V395h12.4l.1 4.5h-1.9l-.3-2.4h-5.9v4.8h5.1v2h-5.1v5l3.6.2v1.7h-8zm18.2.2c-3.3 0-5.5-1.9-5.5-5.5s2.3-5.5 5.5-5.5 5.5 1.9 5.5 5.5-2.2 5.5-5.5 5.5zm3.1-5.6c0-2.4-1.5-3.5-3.1-3.5s-3.2 1.1-3.2 3.5 1.4 3.6 3.2 3.6c1.7 0 3.1-1.2 3.1-3.6zm12.4-3.2c-.2 0-.6-.2-1.2-.2-2.6 0-3.2 2.7-3.2 2.7v4l1.8.2v1.8h-5.7V409l1.5-.2V402l-1.5-.2V400h3.3l.3 2.7h.1s.6-2.9 3.6-2.9c.5 0 1 .1 1.2.1v2.2zm4.7-.2c.1 0 .7-2.1 3.8-2.1 1.8 0 3 .8 3.6 2 .1-.4.9-2 3.6-2 2.8 0 4 1.8 4 4.2v4.8l1.5.2v1.7h-3.9v-6.3c0-1.6-.6-2.6-2.4-2.6-1.5 0-2.2.9-2.5 1.4v5.5l1.5.2v1.7h-3.9v-6.3c0-1.6-.7-2.6-2.4-2.6-2.1 0-2.6 1.7-2.6 1.9v5l1.4.2v1.7h-5.3V409l1.5-.2V402l-1.5-.2V400h3.3l.3 1.9zm22.7 6c0-.4.1-.7.1-.7l2.1-.2s-.1.2-.1.4c0 1 .8 1.7 2.5 1.7s2.4-.6 2.4-1.4c0-.9-1.3-1.2-2.7-1.4-1.9-.3-4.1-.8-4.1-3.3 0-1.8 1.6-3.1 4.3-3.1 3.4 0 4.6 1.4 4.6 3 0 .5-.1.8-.1.8l-2.1.1s.1-.2.1-.6c0-1-.6-1.6-2.2-1.6-1.1 0-2.1.4-2.1 1.4 0 1.1 1.5 1.3 3 1.6 2 .4 3.8 1 3.8 3.2 0 1.7-1.3 3.1-4.7 3.1-3.6 0-4.8-1.5-4.8-3zm14.5-10.9v3h3.4v1.9h-3.4v4.9c0 1.4.6 2.1 1.7 2.1 1.3 0 1.9-.3 1.9-.3v2s-1 .4-2.4.4c-2.4 0-3.6-1.3-3.6-4v-5.1h-1.6V400h1.6l.4-3h2zm10.5 13.9c-3.3 0-5.5-1.9-5.5-5.5s2.3-5.5 5.5-5.5 5.5 1.9 5.5 5.5-2.2 5.5-5.5 5.5zm3.1-5.6c0-2.4-1.5-3.5-3.1-3.5s-3.2 1.1-3.2 3.5 1.4 3.6 3.2 3.6c1.7 0 3.1-1.2 3.1-3.6zm12.4-3.2c-.2 0-.6-.2-1.2-.2-2.6 0-3.2 2.7-3.2 2.7v4l1.8.2v1.8h-5.7V409l1.5-.2V402l-1.5-.2V400h3.3l.3 2.7h.1s.6-2.9 3.6-2.9c.5 0 1 .1 1.1.1v2.2zm9.4-.7l.4-1.4h1.8v8.1c0 .6.3.9.7.9.4 0 .6-.1.6-.1v1.7s-.3.2-1.4.2c-1.3 0-1.9-.8-1.9-1.7v-.1h-.1s-.8 1.8-3.6 1.8c-2.7 0-4.9-1.9-4.9-5.5s2.3-5.5 5-5.5c2.4 0 3.4 1.6 3.4 1.6zm-.2 6.3v-4.6c-.4-.8-1.5-1.4-2.6-1.4-1.8 0-3.2 1.2-3.2 3.6 0 2.4 1.5 3.5 3.2 3.5 1.4.1 2.2-.6 2.6-1.1zm13.5 2.7v-.9h-.1s-.9 1.4-3.4 1.4c-2.7 0-4.9-1.9-4.9-5.5 0-3.8 2.1-5.5 4.8-5.5 2.6 0 3.6 1.8 3.6 1.8h.1l.3-1.7h3.3v1.7l-1.5.2v9.6c0 4-2.6 5.7-5.8 5.7-3.2 0-4.7-1.7-4.7-1.7l1-1.7s.9 1.4 3.6 1.4c2.1 0 3.6-1 3.6-3.7v-1.1zm-.1-2.7v-4.6c-.4-.8-1.5-1.4-2.6-1.4-1.8 0-3.2 1.2-3.2 3.6 0 2.4 1.5 3.5 3.2 3.5 1.5.1 2.3-.6 2.6-1.1zm7.7-1.8c.2 2 1.7 3 3.5 3 2.3 0 3.3-1.1 3.3-1.1l.8 1.7s-1.3 1.4-4.5 1.4-5.5-1.9-5.5-5.5 2.3-5.5 5.5-5.5c3.1 0 4.8 2.4 4.8 4.9 0 .8-.1 1.2-.1 1.2h-7.8zm0-1.5h5.7c0-1.9-1.3-2.7-2.6-2.7-1.6 0-2.9 1-3.1 2.7zm20-89.1v-1.7l2-.2v-11.9l-2-.2v-1.7h6.9c4.7 0 8 2.3 8 7.9 0 5.7-3.2 7.9-7.7 7.9h-7.2zm6.8-2.1c3.9 0 5.6-1.9 5.6-5.9 0-3.8-1.8-5.9-5.9-5.9h-2v11.7h2.3zm18.4-7.3l.4-1.4h1.8v8.1c0 .6.3.9.7.9.4 0 .6-.1.6-.1v1.7s-.3.2-1.4.2c-1.3 0-1.9-.8-1.9-1.7v-.1h-.1s-.8 1.8-3.6 1.8c-2.7 0-4.9-1.9-4.9-5.5s2.3-5.5 5-5.5c2.4.1 3.4 1.6 3.4 1.6zm-.2 6.4v-4.6c-.4-.8-1.5-1.4-2.6-1.4-1.8 0-3.2 1.2-3.2 3.6 0 2.4 1.5 3.5 3.1 3.5s2.4-.7 2.7-1.1zm8.7-10.7v3h3.4v1.9h-3.4v4.9c0 1.4.6 2.1 1.7 2.1 1.3 0 1.9-.3 1.9-.3v2s-1 .4-2.4.4c-2.4 0-3.6-1.3-3.6-4v-5.1h-1.6v-1.9h1.6l.4-3h2zm13.4 4.3l.4-1.4h1.8v8.1c0 .6.3.9.7.9.4 0 .6-.1.6-.1v1.7s-.3.2-1.4.2c-1.3 0-1.9-.8-1.9-1.7v-.1h-.1s-.8 1.8-3.6 1.8c-2.7 0-4.9-1.9-4.9-5.5s2.3-5.5 5-5.5c2.5.1 3.4 1.6 3.4 1.6zm-.2 6.4v-4.6c-.4-.8-1.5-1.4-2.6-1.4-1.8 0-3.2 1.2-3.2 3.6 0 2.4 1.5 3.5 3.1 3.5s2.4-.7 2.7-1.1zm8.2 1.3l-.3 1.6h-1.8V300l-1.5-.2v-1.7h3.9v6.7c0 .1-.1.9-.1.9h.1s.9-1.4 3.4-1.4c2.7 0 4.9 1.9 4.9 5.5 0 3.8-2.1 5.5-4.8 5.5-2.8.1-3.7-1.7-3.8-1.7zm.3-6.1v4.6c.4.9 1.5 1.4 2.6 1.4 1.8 0 3.2-1.2 3.2-3.6 0-2.4-1.5-3.6-3.2-3.6-1.5 0-2.3.7-2.6 1.2zm18.3-1.6l.4-1.4h1.8v8.1c0 .6.3.9.7.9.4 0 .6-.1.6-.1v1.7s-.3.2-1.4.2c-1.3 0-1.9-.8-1.9-1.7v-.1h-.1s-.8 1.8-3.6 1.8c-2.7 0-4.9-1.9-4.9-5.5s2.3-5.5 5-5.5c2.4.1 3.4 1.6 3.4 1.6zm-.2 6.4v-4.6c-.4-.8-1.5-1.4-2.6-1.4-1.8 0-3.2 1.2-3.2 3.6 0 2.4 1.5 3.5 3.1 3.5s2.3-.7 2.7-1.1zm5.2.1c0-.4.1-.7.1-.7l2.1-.2s-.1.2-.1.4c0 1 .8 1.7 2.5 1.7s2.4-.6 2.4-1.4c0-.9-1.3-1.2-2.7-1.4-1.9-.3-4.1-.8-4.1-3.3 0-1.8 1.6-3.1 4.3-3.1 3.4 0 4.6 1.4 4.6 3 0 .5-.1.8-.1.8l-2.1.1s.1-.2.1-.6c0-1-.6-1.6-2.2-1.6-1.1 0-2.1.4-2.1 1.4 0 1.1 1.5 1.3 3 1.6 2 .4 3.8 1 3.8 3.2 0 1.7-1.3 3.1-4.7 3.1-3.6 0-4.8-1.5-4.8-3zm13.5-1.9c.2 2 1.7 3 3.5 3 2.3 0 3.3-1.1 3.3-1.1l.9 1.7s-1.3 1.4-4.5 1.4-5.5-1.9-5.5-5.5 2.3-5.5 5.5-5.5c3.1 0 4.8 2.4 4.8 4.9 0 .8-.1 1.2-.1 1.2h-7.9zm0-1.6h5.7c0-1.9-1.3-2.7-2.6-2.7-1.7 0-3 1.1-3.1 2.7z" fill="#3893D0"/></svg>