<svg id="Layer_1" data-name="Layer 1" xmlns="http://www.w3.org/2000/svg" xmlns:xlink="http://www.w3.org/1999/xlink" viewBox="0 0 833.56 379.57"><defs><linearGradient id="linear-gradient" x1="544.79" y1="385.35" x2="544.79" y2="454.89" gradientTransform="matrix(1, 0, 0, -1, 0, 794)" gradientUnits="userSpaceOnUse"><stop offset="0" stop-color="#347abc"/><stop offset="1" stop-color="#3993d0"/></linearGradient><linearGradient id="linear-gradient-2" x1="381.63" y1="385.31" x2="381.63" y2="433.35" xlink:href="#linear-gradient"/><linearGradient id="linear-gradient-3" x1="405.45" y1="507.97" x2="504.9" y2="507.97" xlink:href="#linear-gradient"/><linearGradient id="linear-gradient-4" x1="452.43" y1="543.62" x2="556.28" y2="543.62" xlink:href="#linear-gradient"/></defs><title>The new way2</title><g style="opacity:0.2"><path d="M130.75,456.47l2.34-3.24" transform="translate(-42.01 -203.67)" style="fill:none;stroke:#3993d0;stroke-linecap:round;stroke-linejoin:round;stroke-width:4px"/><path d="M142.25,441c25.2-32.73,60.22-70.67,105.53-101,34.57-23.15,66.63-36.2,93.33-43.69" transform="translate(-42.01 -203.67)" style="fill:none;stroke:#3993d0;stroke-linecap:round;stroke-linejoin:round;stroke-width:4px;stroke-dasharray:8.152594566345215,15.286115646362305"/><path d="M348.49,294.32l3.88-1" transform="translate(-42.01 -203.67)" style="fill:none;stroke:#3993d0;stroke-linecap:round;stroke-linejoin:round;stroke-width:4px"/><polygon points="94.67 254.91 83.77 259.83 84.95 247.93 94.67 254.91" style="fill:#3993d0"/><polygon points="310 95.97 318.77 87.84 307.34 84.31 310 95.97" style="fill:#3993d0"/></g><g style="opacity:0.2"><path d="M772.82,456.47l-2.34-3.24" transform="translate(-42.01 -203.67)" style="fill:none;stroke:#3993d0;stroke-linecap:round;stroke-linejoin:round;stroke-width:4px"/><path d="M761.32,441c-25.2-32.73-60.22-70.67-105.53-101-34.57-23.15-66.63-36.2-93.33-43.69" transform="translate(-42.01 -203.67)" style="fill:none;stroke:#3993d0;stroke-linecap:round;stroke-linejoin:round;stroke-width:4px;stroke-dasharray:8.152594566345215,15.286115646362305"/><path d="M555.07,294.32l-3.88-1" transform="translate(-42.01 -203.67)" style="fill:none;stroke:#3993d0;stroke-linecap:round;stroke-linejoin:round;stroke-width:4px"/><polygon points="734.59 247.93 735.77 259.83 724.87 254.91 734.59 247.93" style="fill:#3993d0"/><polygon points="512.21 84.31 500.77 87.83 509.54 95.97 512.21 84.31" style="fill:#3993d0"/></g><polygon points="768.42 316.61 768.58 334.95 773.42 334.92 772.91 316.95 768.42 316.61" style="fill:#fff"/><path d="M835.93,538.52v-18h4v-17a5,5,0,0,0-5-5h-10a5,5,0,0,0-5,5v17h4v18" transform="translate(-42.01 -203.67)" style="fill:none"/><path d="M818.93,515.52h5v-18a6,6,0,0,0-6-6h-10a6,6,0,0,0-6,6v18h5" transform="translate(-42.01 -203.67)" style="fill:#63bcea;stroke:#153860;stroke-miterlimit:10"/><rect x="764.92" y="311.85" width="12" height="23" style="fill:none"/><circle cx="770.92" cy="278.85" r="5" style="fill:none;stroke:#153860;stroke-miterlimit:10"/><line x1="770.92" y1="334.85" x2="770.92" y2="314.85" style="fill:none;stroke:#153860;stroke-linejoin:round;stroke-width:2px"/><circle cx="770.92" cy="278.85" r="5" style="fill:none;stroke:#153860;stroke-linejoin:round;stroke-width:2px"/><path d="M818.93,515.52h5v-18a6,6,0,0,0-6-6h-10a6,6,0,0,0-6,6v18h5" transform="translate(-42.01 -203.67)" style="fill:none;stroke:#153860;stroke-linejoin:round;stroke-width:2px"/><path d="M801.93,538.52v-18h4v-17a5,5,0,0,0-5-5h-10a5,5,0,0,0-5,5v17h4v18" transform="translate(-42.01 -203.67)" style="fill:none"/><path d="M805.93,520.52v-17a5,5,0,0,0-5-5h-10a5,5,0,0,0-5,5v17h20Z" transform="translate(-42.01 -203.67)" style="fill:#63bcea"/><path d="M839.93,520.52v-17a5,5,0,0,0-5-5h-10a5,5,0,0,0-5,5v17h20Z" transform="translate(-42.01 -203.67)" style="fill:#63bcea"/><circle cx="753.92" cy="286.85" r="4" style="fill:none;stroke:#153860;stroke-miterlimit:10"/><line x1="753.92" y1="334.85" x2="753.92" y2="319.85" style="fill:none;stroke:#153860;stroke-linejoin:round;stroke-width:2px"/><circle cx="753.92" cy="286.85" r="4" style="fill:none;stroke:#153860;stroke-linejoin:round;stroke-width:2px"/><path d="M823.93,538.56c6.83,0,12,0,12,0v-18h4v-17a5,5,0,0,0-5-5h-10a5,5,0,0,0-5,5v17h4v18" transform="translate(-42.01 -203.67)" style="fill:none;stroke:#153860;stroke-linecap:round;stroke-linejoin:round;stroke-width:2px"/><path d="M823.93,538.56" transform="translate(-42.01 -203.67)" style="fill:none;stroke:#153860;stroke-linecap:round;stroke-linejoin:round;stroke-width:2px"/><path d="M820.16,538.56" transform="translate(-42.01 -203.67)" style="fill:none;stroke:#153860;stroke-linecap:round;stroke-linejoin:round;stroke-width:2px"/><path d="M806.11,538.54c4.56,0,9.27.07,13.8,0.07" transform="translate(-42.01 -203.67)" style="fill:none;stroke:#153860;stroke-linecap:round;stroke-linejoin:round;stroke-width:2px"/><path d="M806.11,538.54" transform="translate(-42.01 -203.67)" style="fill:none;stroke:#153860;stroke-linecap:round;stroke-linejoin:round;stroke-width:2px"/><path d="M801.92,538.54" transform="translate(-42.01 -203.67)" style="fill:none;stroke:#153860;stroke-linecap:round;stroke-linejoin:round;stroke-width:2px"/><path d="M801.93,538.5v-18h4v-17a5,5,0,0,0-5-5h-10a5,5,0,0,0-5,5v17h4v18l12,0" transform="translate(-42.01 -203.67)" style="fill:none;stroke:#153860;stroke-linecap:round;stroke-linejoin:round;stroke-width:2px"/><line x1="759.92" y1="334.85" x2="759.92" y2="334.83" style="fill:none;stroke:#153860;stroke-linecap:round;stroke-linejoin:round;stroke-width:2px"/><circle cx="787.92" cy="286.85" r="4" style="fill:none;stroke:#153860;stroke-miterlimit:10"/><line x1="787.92" y1="334.85" x2="787.92" y2="319.85" style="fill:none;stroke:#153860;stroke-linejoin:round;stroke-width:2px"/><circle cx="787.92" cy="286.85" r="4" style="fill:none;stroke:#153860;stroke-linejoin:round;stroke-width:2px"/><line x1="770.92" y1="290.85" x2="770.92" y2="292.85" style="fill:none;stroke:#153860;stroke-linejoin:round;stroke-width:2px"/><line x1="770.92" y1="294.85" x2="770.92" y2="296.85" style="fill:none;stroke:#153860;stroke-linejoin:round;stroke-width:2px"/><line x1="787.92" y1="297.85" x2="787.92" y2="299.85" style="fill:none;stroke:#153860;stroke-linejoin:round;stroke-width:2px"/><line x1="753.92" y1="297.85" x2="753.92" y2="299.85" style="fill:none;stroke:#153860;stroke-linejoin:round;stroke-width:2px"/><rect x="59.11" y="302.03" width="12" height="10" style="fill:none"/><path d="M117.12,492.7a2,2,0,0,1-2-2v-2a2,2,0,0,0-2-2v-2l-4,2h-8a2,2,0,0,0-2,2v2a2,2,0,0,1-2,2h-1v3l1.15,3c0.68,4.68,3.75,10,9.85,10s9.16-5.32,9.85-10l1.15-3v-3h-1Z" transform="translate(-42.01 -203.67)" style="fill:none;stroke:#153860;stroke-miterlimit:10"/><path d="M81.12,537.7v-11c0-6.08,5-8,11-10l4-1h22l4,1c6,2,11,3.92,11,10v11h-52Z" transform="translate(-42.01 -203.67)" style="fill:#63bcea"/><path d="M96.12,515.7l-4,1c-6,2-11,3.92-11,10v11h52v-11c0-6.08-5-8-11-10l-4-1" transform="translate(-42.01 -203.67)" style="fill:none;stroke:#153860;stroke-linejoin:round;stroke-width:2px"/><line x1="49.11" y1="328.03" x2="49.11" y2="334.03" style="fill:none;stroke:#153860;stroke-linejoin:round;stroke-width:2px"/><line x1="81.11" y1="328.03" x2="81.11" y2="334.03" style="fill:none;stroke:#153860;stroke-linejoin:round;stroke-width:2px"/><line x1="59.11" y1="308.03" x2="59.11" y2="303.03" style="fill:none;stroke:#153860;stroke-linejoin:round;stroke-width:2px"/><line x1="71.11" y1="308.03" x2="71.11" y2="303.03" style="fill:none;stroke:#153860;stroke-linejoin:round;stroke-width:2px"/><path d="M96.12,492.7v-8a3,3,0,0,1,3-3h1a3,3,0,0,1,3-3h11a4,4,0,0,1,4,4v10h-1a2,2,0,0,1-2-2v-2a2,2,0,0,0-2-2v-2l-4,2h-8a2,2,0,0,0-2,2v2a2,2,0,0,1-2,2h-1Z" transform="translate(-42.01 -203.67)" style="fill:none;stroke:#153860;stroke-linejoin:round;stroke-width:2px"/><path d="M118.12,492.7v3l-1,1c0,5-3,12-10,12s-10-7-10-12l-1-1v-3" transform="translate(-42.01 -203.67)" style="fill:none;stroke:#153860;stroke-linejoin:round;stroke-width:2px"/><polygon points="61.11 316.03 52.11 312.03 57.11 308.03 65.11 310.03 65.11 312.03 61.11 316.03" style="fill:#fff"/><polygon points="69.11 316.03 78.11 312.03 73.11 308.03 65.11 310.03 65.11 312.03 69.11 316.03" style="fill:#fff"/><polygon points="61.11 316.03 52.11 312.03 57.11 308.03 65.11 310.03 65.11 312.03 61.11 316.03" style="fill:none;stroke:#153860;stroke-linejoin:round;stroke-width:2px"/><polygon points="69.11 316.03 78.11 312.03 73.11 308.03 65.11 310.03 65.11 312.03 69.11 316.03" style="fill:none;stroke:#153860;stroke-linejoin:round;stroke-width:2px"/><path d="M107.12,527.7" transform="translate(-42.01 -203.67)" style="fill:none;stroke:#4e5253;stroke-linejoin:round;stroke-width:2px"/><path d="M107.12,525.7" transform="translate(-42.01 -203.67)" style="fill:none;stroke:#4e5253;stroke-linejoin:round;stroke-width:2px"/><path d="M107.12,521.7" transform="translate(-42.01 -203.67)" style="fill:none;stroke:#4e5253;stroke-linejoin:round;stroke-width:2px"/><path d="M107.12,529.7" transform="translate(-42.01 -203.67)" style="fill:none;stroke:#4e5253;stroke-linejoin:round;stroke-width:2px"/><polygon points="63.53 313.72 59.98 334.03 65.55 338.97 71.11 334.03 66.61 313.72 65.11 312.03 63.53 313.72" style="fill:#fff;stroke:#153860;stroke-linejoin:round;stroke-width:2px"/><path d="M95,537.37v-9c0-6.08-5-9-11-11l-6-2H60l-6,2c-6,2-11,4.92-11,11v9" transform="translate(-42.01 -203.67)" style="fill:#63bcea;stroke:#153860;stroke-miterlimit:10"/><path d="M60,515.37l-6,2c-6,2-11,4.92-11,11v9s51.83,0.17,52,0v-9c0-6.08-5-9-11-11l-6-2" transform="translate(-42.01 -203.67)" style="fill:none;stroke:#153860;stroke-miterlimit:10;stroke-width:2px"/><polygon points="33 307.7 36 309.7 42 318.7 36 318.7 27 330.7 18 318.7 12 318.7 18 309.7 21 307.7 21 302.7 33 302.7 33 307.7" style="fill:#fff;stroke:#153860;stroke-linejoin:round;stroke-width:2px"/><line x1="11" y1="327.7" x2="11" y2="333.7" style="fill:none;stroke:#153860;stroke-linejoin:round;stroke-width:2px"/><line x1="43" y1="327.7" x2="43" y2="333.7" style="fill:none;stroke:#153860;stroke-linejoin:round;stroke-width:2px"/><path d="M66,484.37c0,3,3,10,12,10h0c0,7.18-1,14-9,14s-9-6.82-9-14v-2a4,4,0,0,1,4-4h3" transform="translate(-42.01 -203.67)" style="fill:#fff"/><path d="M66,484.37c0,3,3,10,12,10h0c0,7.18-1,14-9,14s-9-6.82-9-14v-2a4,4,0,0,1,4-4h3" transform="translate(-42.01 -203.67)" style="fill:none;stroke:#153860;stroke-linejoin:round;stroke-width:2px"/><path d="M63,509.37c-3,0-9-2-9-2s2-8,2-13v-6a10,10,0,0,1,10-10h6a10,10,0,0,1,10,10v6c0,5,2,13,2,13s-6,2-9,2" transform="translate(-42.01 -203.67)" style="fill:none;stroke:#153860;stroke-linejoin:round;stroke-width:2px"/><polyline points="21 302.7 21 311.7 27 330.7 33 311.7 33 302.7" style="fill:none;stroke:#153860;stroke-linejoin:round;stroke-width:2px"/><text transform="translate(24 371.71)" style="font-size:23px;fill:#3993d0;font-family:Roble Alt"><tspan style="letter-spacing:-2px">Y</tspan><tspan x="13.71" y="0">ou</tspan></text><text transform="translate(708.28 372.78)" style="font-size:23px;fill:#3993d0;font-family:Roble Alt"><tspan style="letter-spacing:-2px">Y</tspan><tspan x="13.71" y="0">ou</tspan><tspan x="40.23" y="0">r</tspan><tspan x="49.27" y="0" style="white-space:pre"> clients</tspan></text><path d="M368.31,425.47a2.65,2.65,0,0,0,.11-0.83c0-1.79-1-2.89-3.34-2.89s-4,1.18-4,4.54c0,3.12,2,4.57,4.35,4.57,2.88,0,4-1.34,4-1.34l0.77,1.6s-1.42,1.6-5,1.6c-3.77,0-6.38-2.27-6.38-6.44,0-4.33,2.4-6.41,6.25-6.41s5.31,2.16,5.31,4.46a3.56,3.56,0,0,1-.16,1Z" transform="translate(-42.01 -203.67)" style="fill:#337abb"/><path d="M381.6,422.1a5,5,0,0,0-1.41-.19c-2.94,0-3.69,3.2-3.74,3.53v5.29l2.06,0.27v1.55h-6.09V431l1.82-.27v-8.84l-1.82-.27v-1.55h3.5l0.21,3.15h0.08a4.15,4.15,0,0,1,4-3.34,7.47,7.47,0,0,1,1.36.13v2.08Z" transform="translate(-42.01 -203.67)" style="fill:#337abb"/><path d="M394.32,427h-9.46a4.08,4.08,0,0,0,4.38,3.9c2.86,0,4-1.34,4-1.34l0.8,1.6s-1.47,1.6-5,1.6-6.36-2.27-6.36-6.44,2.67-6.41,6.3-6.41a5.48,5.48,0,0,1,5.5,5.74A6,6,0,0,1,394.32,427Zm-9.48-1.63h7.56a3.37,3.37,0,0,0-3.42-3.58A3.86,3.86,0,0,0,384.84,425.33Z" transform="translate(-42.01 -203.67)" style="fill:#337abb"/><path d="M409,432.49a2.74,2.74,0,0,1-1.41.24,1.9,1.9,0,0,1-2-2.19v-0.05h-0.05s-1,2.24-4.7,2.24c-2.56,0-4.3-1.55-4.3-3.63,0-2.54,2.19-3.85,5.74-3.85a7.08,7.08,0,0,1,3,.64v-1.34c0-2-1.17-2.86-3.39-2.86-2.06,0-3.15,1-3.15,2.3a2.51,2.51,0,0,0,.05.61l-1.92-.13a3.18,3.18,0,0,1-.11-0.85c0-1.79,1.55-3.74,5.21-3.74,3.39,0,5.53,1.5,5.53,4.78V430a0.84,0.84,0,0,0,.83,1,1.55,1.55,0,0,0,.64-0.11v1.63Zm-3.69-5a7,7,0,0,0-2.83-.62c-2.14,0-3.74.72-3.74,2.27,0,1.17,1.1,1.9,2.64,1.9a4.71,4.71,0,0,0,3.93-2v-1.52Z" transform="translate(-42.01 -203.67)" style="fill:#337abb"/><path d="M414.34,416.71v3.37h4v1.76h-4v6.44c0,1.71.75,2.56,2.06,2.56a5.56,5.56,0,0,0,2.24-.4v1.87a7.51,7.51,0,0,1-2.62.43c-2.51,0-3.9-1.44-3.9-4.33v-6.57h-1.87v-1.76h1.87l0.37-3.37h1.84Z" transform="translate(-42.01 -203.67)" style="fill:#337abb"/><path d="M431.86,427h-9.46a4.08,4.08,0,0,0,4.38,3.9c2.86,0,4-1.34,4-1.34l0.8,1.6s-1.47,1.6-5,1.6-6.36-2.27-6.36-6.44,2.67-6.41,6.3-6.41a5.48,5.48,0,0,1,5.5,5.74A6,6,0,0,1,431.86,427Zm-9.48-1.63h7.56a3.37,3.37,0,0,0-3.42-3.58A3.86,3.86,0,0,0,422.38,425.33Z" transform="translate(-42.01 -203.67)" style="fill:#337abb"/><path d="M435.92,432.73a1.45,1.45,0,0,1-1.44-1.44,1.47,1.47,0,0,1,1.44-1.44,1.45,1.45,0,0,1,1.44,1.44A1.44,1.44,0,0,1,435.92,432.73Z" transform="translate(-42.01 -203.67)" style="fill:#337abb"/><path d="M446.15,429.26a2.68,2.68,0,0,1,.11-0.77l2-.16a2,2,0,0,0-.05.43c0,1.23,1,2.16,3.2,2.16s3.15-.7,3.15-1.84-1.6-1.6-3.37-1.92c-2.22-.4-4.76-1-4.76-3.74,0-2.11,2-3.52,4.89-3.52,3.74,0,5.1,1.55,5.1,3.45a2.58,2.58,0,0,1-.13.91l-2,.13a2.89,2.89,0,0,0,.08-0.69c0-1.28-.85-2-3-2-1.39,0-2.78.54-2.78,1.79,0,1.42,1.74,1.66,3.55,2,2.35,0.45,4.57,1.18,4.57,3.66,0,2-1.5,3.61-5.29,3.61S446.15,431,446.15,429.26Z" transform="translate(-42.01 -203.67)" style="fill:#337abb"/><path d="M462.94,430.73l1.74,0.27v1.55h-5.77V431l1.82-.27v-8.84l-1.82-.27v-1.55h4v10.66Zm-1.2-13.89a1.7,1.7,0,1,1,1.71-1.71A1.7,1.7,0,0,1,461.74,416.84Z" transform="translate(-42.01 -203.67)" style="fill:#337abb"/><path d="M476.51,431.08h0s-1.12,1.66-4.11,1.66-5.72-2.27-5.72-6.41,2.46-6.44,5.69-6.44a4.94,4.94,0,0,1,4.25,2.06h0.08l0.35-1.87h3.47v1.55l-1.82.27v11.78c0,4.57-2.91,6.44-6.57,6.44s-5.32-2-5.32-2l1-1.52s1.12,1.63,4.3,1.63c2.46,0,4.46-1.2,4.46-4.57v-2.59Zm-0.05-1.84v-5.56a4,4,0,0,0-3.55-1.92c-2.19,0-4.06,1.47-4.06,4.57s2.06,4.54,4,4.54A4.2,4.2,0,0,0,476.46,429.23Z" transform="translate(-42.01 -203.67)" style="fill:#337abb"/><path d="M486.2,430.73l1.74,0.21v1.6h-5.77V431l1.82-.27v-8.84l-1.82-.27v-1.55h3.5l0.21,2.35H486s0.69-2.54,4.35-2.54c3.23,0,4.7,2.06,4.7,4.86v6l1.82,0.27v1.55h-4v-7.45c0-1.95-.83-3.34-3.1-3.34a3.47,3.47,0,0,0-3.5,2.62v6.36Z" transform="translate(-42.01 -203.67)" style="fill:#337abb"/><path d="M500.22,432.73a1.45,1.45,0,0,1-1.44-1.44,1.47,1.47,0,0,1,1.44-1.44,1.45,1.45,0,0,1,1.44,1.44A1.44,1.44,0,0,1,500.22,432.73Z" transform="translate(-42.01 -203.67)" style="fill:#337abb"/><path d="M510.45,429.26a2.68,2.68,0,0,1,.11-0.77l2-.16a2,2,0,0,0-.05.43c0,1.23,1,2.16,3.2,2.16s3.15-.7,3.15-1.84-1.6-1.6-3.37-1.92c-2.22-.4-4.75-1-4.75-3.74,0-2.11,2-3.52,4.89-3.52,3.74,0,5.1,1.55,5.1,3.45a2.55,2.55,0,0,1-.13.91l-2,.13a2.89,2.89,0,0,0,.08-0.69c0-1.28-.85-2-3-2-1.39,0-2.78.54-2.78,1.79,0,1.42,1.74,1.66,3.55,2,2.35,0.45,4.57,1.18,4.57,3.66,0,2-1.5,3.61-5.29,3.61S510.45,431,510.45,429.26Z" transform="translate(-42.01 -203.67)" style="fill:#337abb"/><path d="M534.91,427h-9.46a4.08,4.08,0,0,0,4.38,3.9c2.86,0,4-1.34,4-1.34l0.8,1.6s-1.47,1.6-5,1.6-6.36-2.27-6.36-6.44,2.67-6.41,6.3-6.41a5.48,5.48,0,0,1,5.5,5.74A6,6,0,0,1,534.91,427Zm-9.48-1.63H533a3.37,3.37,0,0,0-3.42-3.58A3.86,3.86,0,0,0,525.43,425.33Z" transform="translate(-42.01 -203.67)" style="fill:#337abb"/><path d="M541.08,430.73l1.74,0.21v1.6H537V431l1.81-.27v-8.84l-1.81-.27v-1.55h3.5l0.21,2.35h0.08s0.69-2.54,4.35-2.54c3.23,0,4.7,2.06,4.7,4.86v6l1.81,0.27v1.55h-4v-7.45c0-1.95-.83-3.34-3.1-3.34a3.47,3.47,0,0,0-3.5,2.62v6.36Z" transform="translate(-42.01 -203.67)" style="fill:#337abb"/><path d="M563.14,421.54h0.08s-0.11-.83-0.11-0.93v-6.17l-1.9-.27v-1.55h4.11v18.11l1.82,0.27v1.55h-3.47l-0.32-1.84h-0.11a4.88,4.88,0,0,1-4.22,2c-3.26,0-5.72-2.16-5.72-6.44s2.62-6.41,5.74-6.41S563.14,421.52,563.14,421.54Zm0,7.42v-5.56a4.06,4.06,0,0,0-3.55-1.66c-2,0-4.06,1.42-4.06,4.54s1.87,4.57,4.09,4.57A3.92,3.92,0,0,0,563.11,429Z" transform="translate(-42.01 -203.67)" style="fill:#337abb"/><path d="M570.75,432.73a1.45,1.45,0,0,1-1.44-1.44,1.47,1.47,0,0,1,1.44-1.44,1.45,1.45,0,0,1,1.44,1.44A1.44,1.44,0,0,1,570.75,432.73Z" transform="translate(-42.01 -203.67)" style="fill:#337abb"/><path transform="translate(-42.01 -203.67)" style="fill:none;isolation:isolate"/><path d="M622.19,384.48c-5.89,2.46-10.21,3.53-13.38,3.67,0.22-1.07.4-2.18,0.52-3.33q1.19-11.12-4.64-17.59t-16.08-6.46a25.19,25.19,0,0,0-17.51,6.46c-4.76,4.3-7.55,10.17-8.33,17.59a26.34,26.34,0,0,0,1.07,11.72l0,0a8.64,8.64,0,0,1-5.37,2.32c-2.28,0-3.29-1.21-3-3.61l6-56.16h-12l-2.34,22c-1.63-.12-2.93-0.2-3.87-0.2a25.37,25.37,0,0,0-18.88,7.69,31.24,31.24,0,0,0-8.78,19.19,25.75,25.75,0,0,0,.2,7.48c-0.46.44-1,.87-1.47,1.31a8.64,8.64,0,0,1-5.37,2.32,3.25,3.25,0,0,1-2.52-.81,3.64,3.64,0,0,1-.52-2.8L508,375.78q0.74-7-2.46-10.89T494.89,361q-8.66,0-13.17,6.74l0.61-5.79H470.26L465.4,407.6h12.08l2.6-24.33a16.75,16.75,0,0,1,3.67-8.51c2.12-2.76,4.66-4.12,7.57-4.12a4.4,4.4,0,0,1,3.49,1.53c0.87,1,1.19,2.56,1,4.66L493.7,396.4q-0.62,5.8,1.94,9c1.71,2.16,4.48,3.23,8.35,3.23a17.36,17.36,0,0,0,5.22-.81,19.55,19.55,0,0,0,4.18-1.8,25.09,25.09,0,0,0,4.92-4.08,0.35,0.35,0,0,0,.08-0.1c0.24,0.36.48,0.71,0.73,1.05q4.52,5.74,13.54,5.75,7.5,0,11.82-4.76,2.44,4.76,9.1,4.76a17.36,17.36,0,0,0,5.22-.81A19.55,19.55,0,0,0,563,406a21.46,21.46,0,0,0,3.05-2.28c0.61-.56,1.07-1,1.41-1.33,3.79,4.14,9.18,6.23,16.14,6.23s12.89-2.1,17.59-6.33a23.52,23.52,0,0,0,5.59-7.55,45.54,45.54,0,0,0,17.41-6.6Zm-78,4.24a12.89,12.89,0,0,1-3.09,8,9.06,9.06,0,0,1-7,3q-7.88,0-6.6-12c0.61-5.71,2.32-10,5.12-12.79a13.6,13.6,0,0,1,10-4.22A22.21,22.21,0,0,1,546,371Zm50.68,3.69,0.5,0.36c-2.16,3.95-5.73,5.93-10.75,5.93q-11.51,0-10-13.88,1.49-14.07,13-14.06c6.29,0,9.66,3.17,10.11,9.48a6.28,6.28,0,0,0-4.58,2.38C591.16,385.1,590.88,389.34,594.83,392.41Z" transform="translate(-42.01 -203.67)" style="fill:url(#linear-gradient)"/><path d="M441.75,360.79a25.19,25.19,0,0,0-17.51,6.46c-4.76,4.3-7.55,10.17-8.33,17.59a28.58,28.58,0,0,0,.48,9.8,22.67,22.67,0,0,1-2.12,1.94,8.64,8.64,0,0,1-5.37,2.32,3.25,3.25,0,0,1-2.52-.81,3.64,3.64,0,0,1-.52-2.8L408,375.42q1.52-14.34-12.63-14.36-7.88,0-13.23,7.22-1.9-7.23-11.48-7.22-7.88,0-12.75,7.22l0.67-6.27H346.49l-2.7,25.28A28,28,0,0,1,341,390a57.54,57.54,0,0,1-4.58,3.53,24.58,24.58,0,0,1-6,3,20.93,20.93,0,0,1-7,1.25q-7,0-9.42-3.73a46.26,46.26,0,0,0,8.53-2.24A38.23,38.23,0,0,0,330,388a19.75,19.75,0,0,0,5.81-5.87,17.91,17.91,0,0,0,2.76-7.91q0.65-6-2.78-9.78t-10.47-3.77a22.32,22.32,0,0,0-16.62,7,28.63,28.63,0,0,0-7.91,17.49q-1.13,10.59,4.08,17.07c3.47,4.32,8.72,6.48,15.7,6.48a30.15,30.15,0,0,0,7.54-1,34.68,34.68,0,0,0,11.3-5c1.45-1,2.4-1.65,2.93-2.06l-0.73,6.94h12.1l2.66-24.91a20.13,20.13,0,0,1,1.25-5,13,13,0,0,1,3.37-4.8,7.93,7.93,0,0,1,5.61-2.24,3.71,3.71,0,0,1,3.09,1.29c0.67,0.85.89,2.4,0.65,4.6L367,407.6h12.06L381.7,383a20.18,20.18,0,0,1,1.31-5.14,13.48,13.48,0,0,1,3.47-4.94,8,8,0,0,1,5.65-2.28c2.86,0,4.07,2,3.65,5.89l-2.12,19.87q-0.62,5.8,1.94,9c1.71,2.16,4.48,3.23,8.35,3.23a17.36,17.36,0,0,0,5.22-.81,19.55,19.55,0,0,0,4.18-1.8,25.09,25.09,0,0,0,4.92-4.08c0.3-.36.52-0.61,0.65-0.81l0.06-.63a18.06,18.06,0,0,0,1.43,1.82c3.79,4.2,9.22,6.33,16.24,6.33s12.89-2.1,17.59-6.33,7.44-10.05,8.23-17.53-0.75-13.27-4.64-17.59S448.59,360.79,441.75,360.79ZM312.64,383.57a16.4,16.4,0,0,1,4-9.89q3.24-4,7.44-4a4.2,4.2,0,0,1,3.25,1.25,3.87,3.87,0,0,1,.89,3.73,9.81,9.81,0,0,1-4.16,6.15c-2.9,1.94-7.06,3-11.52,3.71Zm138.05,1.27q-1.49,13.86-13,13.88t-10-13.88q1.49-14.07,13-14.06C448.35,370.76,451.7,375.46,450.69,384.84Z" transform="translate(-42.01 -203.67)" style="fill:url(#linear-gradient-2)"/><path d="M497.27,286a42.09,42.09,0,1,1-25.93-38.88q2.74-3.07,5.59-5.83A49.88,49.88,0,1,0,493,253.84a76.3,76.3,0,0,0-7.78,2.79A41.94,41.94,0,0,1,497.27,286Z" transform="translate(-42.01 -203.67)" style="fill:url(#linear-gradient-3)"/><path d="M518.66,228.39s18.43,9.14,30.46-7.42c-1.94,1.76-12.61,4-17.28,1.48,0,0,12.53-1,19.55-8.88a19,19,0,0,0,4.89-9.91s-51.25,1.26-85.06,39.5c-11.37,12.85-17.87,25.45-18.73,38.46-0.64,9.64,3.83,15.46,3.83,15.46s-6.66-40.22,47.36-49.89c-4.57-.94-9.74-4.21-10.49-6.26,20.11,8.46,39.54-.66,44.94-6.42C535,235.41,521.43,233.1,518.66,228.39Z" transform="translate(-42.01 -203.67)" style="fill:url(#linear-gradient-4)"/></svg>